<?xml version="1.0" encoding="utf-8"?>
<!-- Generator: Adobe Illustrator 21.0.0, SVG Export Plug-In . SVG Version: 6.00 Build 0)  -->
<svg version="1.1" id="Слой_1" xmlns="http://www.w3.org/2000/svg" xmlns:xlink="http://www.w3.org/1999/xlink" x="0px" y="0px"
	 viewBox="0 0 300 300" style="enable-background:new 0 0 300 300;" xml:space="preserve">
<style type="text/css">
	.st0{fill:#6B6966;stroke:#201600;stroke-width:4.2706;stroke-miterlimit:10;}
	.st1{fill:#AFAEAE;stroke:#000105;stroke-width:4.2706;stroke-miterlimit:10;}
	.st2{fill:#000105;}
	.st3{fill:#AFAEAE;stroke:#201600;stroke-width:4.2706;stroke-miterlimit:10;}
</style>
<g>
	<rect x="69.8" y="35.9" class="st0" width="175.5" height="199.3"/>
	<rect x="62.1" y="29.7" class="st0" width="175.5" height="199.3"/>
	<rect x="54.4" y="23.6" class="st0" width="175.5" height="199.3"/>
	<path class="st1" d="M241.1,273.9H58.5c-5.2,0-9.5-4.3-9.5-9.5v-33c0-5.2,4.3-9.5,9.5-9.5h182.5c5.2,0,9.5,4.3,9.5,9.5v33
		C250.6,269.7,246.3,273.9,241.1,273.9z"/>
	<rect x="192.5" y="236" class="st2" width="33.4" height="24"/>
	<circle class="st2" cx="77.2" cy="254.9" r="3.9"/>
	<circle class="st2" cx="89.7" cy="254.9" r="3.9"/>
	<path class="st2" d="M236.5,278.4h-13.9c-1.2,0-2.2-1-2.2-2.2l0,0c0-1.2,1-2.2,2.2-2.2h13.9c1.2,0,2.2,1,2.2,2.2l0,0
		C238.7,277.4,237.7,278.4,236.5,278.4z"/>
	<path class="st2" d="M63.1,278.4h13.9c1.2,0,2.2-1,2.2-2.2l0,0c0-1.2-1-2.2-2.2-2.2H63.1c-1.2,0-2.2,1-2.2,2.2l0,0
		C60.9,277.4,61.9,278.4,63.1,278.4z"/>
	<g>
		<rect x="63.1" y="33.1" class="st3" width="14.3" height="16.6"/>
		<rect x="83.6" y="33.1" class="st3" width="14.3" height="16.6"/>
		<rect x="104" y="33.1" class="st3" width="14.3" height="16.6"/>
		<rect x="124.5" y="33.1" class="st3" width="14.3" height="16.6"/>
		<rect x="145" y="33.1" class="st3" width="14.3" height="16.6"/>
		<rect x="165.4" y="33.1" class="st3" width="14.3" height="16.6"/>
		<rect x="185.9" y="33.1" class="st3" width="14.3" height="16.6"/>
		<rect x="206.4" y="33.1" class="st3" width="14.3" height="16.6"/>
		<rect x="63.1" y="56.3" class="st3" width="14.3" height="16.6"/>
		<rect x="83.6" y="56.3" class="st3" width="14.3" height="16.6"/>
		<rect x="104" y="56.3" class="st3" width="14.3" height="16.6"/>
		<rect x="124.5" y="56.3" class="st3" width="14.3" height="16.6"/>
		<rect x="145" y="56.3" class="st3" width="14.3" height="16.6"/>
		<rect x="165.4" y="56.3" class="st3" width="14.3" height="16.6"/>
		<rect x="185.9" y="56.3" class="st3" width="14.3" height="16.6"/>
		<rect x="206.4" y="56.3" class="st3" width="14.3" height="16.6"/>
		<rect x="63.1" y="79.5" class="st3" width="14.3" height="16.6"/>
		<rect x="83.6" y="79.5" class="st3" width="14.3" height="16.6"/>
		<rect x="104" y="79.5" class="st3" width="14.3" height="16.6"/>
		<rect x="124.5" y="79.5" class="st3" width="14.3" height="16.6"/>
		<rect x="145" y="79.5" class="st3" width="14.3" height="16.6"/>
		<rect x="165.4" y="79.5" class="st3" width="14.3" height="16.6"/>
		<rect x="185.9" y="79.5" class="st3" width="14.3" height="16.6"/>
		<rect x="206.4" y="79.5" class="st3" width="14.3" height="16.6"/>
		<rect x="63.1" y="102.7" class="st3" width="14.3" height="16.6"/>
		<rect x="83.6" y="102.7" class="st3" width="14.3" height="16.6"/>
		<rect x="104" y="102.7" class="st3" width="14.3" height="16.6"/>
		<rect x="124.5" y="102.7" class="st3" width="14.3" height="16.6"/>
		<rect x="145" y="102.7" class="st3" width="14.3" height="16.6"/>
		<rect x="165.4" y="102.7" class="st3" width="14.3" height="16.6"/>
		<rect x="185.9" y="102.7" class="st3" width="14.3" height="16.6"/>
		<rect x="206.4" y="102.7" class="st3" width="14.3" height="16.6"/>
		<rect x="63.1" y="126.1" class="st3" width="14.3" height="16.6"/>
		<rect x="83.6" y="126.1" class="st3" width="14.3" height="16.6"/>
		<rect x="104" y="126.1" class="st3" width="14.3" height="16.6"/>
		<rect x="124.5" y="126.1" class="st3" width="14.3" height="16.6"/>
		<rect x="145" y="126.1" class="st3" width="14.3" height="16.6"/>
		<rect x="165.4" y="126.1" class="st3" width="14.3" height="16.6"/>
		<rect x="185.9" y="126.1" class="st3" width="14.3" height="16.6"/>
		<rect x="206.4" y="126.1" class="st3" width="14.3" height="16.6"/>
		<rect x="63.1" y="149.3" class="st3" width="14.3" height="16.6"/>
		<rect x="83.6" y="149.3" class="st3" width="14.3" height="16.6"/>
		<rect x="104" y="149.3" class="st3" width="14.3" height="16.6"/>
		<rect x="124.5" y="149.3" class="st3" width="14.3" height="16.6"/>
		<rect x="145" y="149.3" class="st3" width="14.3" height="16.6"/>
		<rect x="165.4" y="149.3" class="st3" width="14.3" height="16.6"/>
		<rect x="185.9" y="149.3" class="st3" width="14.3" height="16.6"/>
		<rect x="206.4" y="149.3" class="st3" width="14.3" height="16.6"/>
		<rect x="63.1" y="172.5" class="st3" width="14.3" height="16.6"/>
		<rect x="83.6" y="172.5" class="st3" width="14.3" height="16.6"/>
		<rect x="104" y="172.5" class="st3" width="14.3" height="16.6"/>
		<rect x="124.5" y="172.5" class="st3" width="14.3" height="16.6"/>
		<rect x="145" y="172.5" class="st3" width="14.3" height="16.6"/>
		<rect x="165.4" y="172.5" class="st3" width="14.3" height="16.6"/>
		<rect x="185.9" y="172.5" class="st3" width="14.3" height="16.6"/>
		<rect x="206.4" y="172.5" class="st3" width="14.3" height="16.6"/>
		<rect x="63.1" y="195.8" class="st3" width="14.3" height="16.6"/>
		<rect x="83.6" y="195.8" class="st3" width="14.3" height="16.6"/>
		<rect x="104" y="195.8" class="st3" width="14.3" height="16.6"/>
		<rect x="124.5" y="195.8" class="st3" width="14.3" height="16.6"/>
		<rect x="145" y="195.8" class="st3" width="14.3" height="16.6"/>
		<rect x="165.4" y="195.8" class="st3" width="14.3" height="16.6"/>
		<rect x="185.9" y="195.8" class="st3" width="14.3" height="16.6"/>
		<rect x="206.4" y="195.8" class="st3" width="14.3" height="16.6"/>
	</g>
	<g>
		<polygon class="st2" points="63.1,40.2 63.1,33.1 70.2,33.1 		"/>
		<polygon class="st2" points="83.6,40.2 83.6,33.1 90.7,33.1 		"/>
		<polygon class="st2" points="104,40.2 104,33.1 111.2,33.1 		"/>
		<polygon class="st2" points="124.5,40.2 124.5,33.1 131.6,33.1 		"/>
		<polygon class="st2" points="145,40.2 145,33.1 152.1,33.1 		"/>
		<polygon class="st2" points="165.4,40.2 165.4,33.1 172.6,33.1 		"/>
		<polygon class="st2" points="185.9,40.2 185.9,33.1 193,33.1 		"/>
		<polygon class="st2" points="206.4,40.2 206.4,33.1 213.5,33.1 		"/>
		<polygon class="st2" points="63.6,63.4 63.6,56.3 70.7,56.3 		"/>
		<polygon class="st2" points="84,63.4 84,56.3 91.2,56.3 		"/>
		<polygon class="st2" points="104.5,63.4 104.5,56.3 111.6,56.3 		"/>
		<polygon class="st2" points="125,63.4 125,56.3 132.1,56.3 		"/>
		<polygon class="st2" points="145.4,63.4 145.4,56.3 152.6,56.3 		"/>
		<polygon class="st2" points="165.9,63.4 165.9,56.3 173,56.3 		"/>
		<polygon class="st2" points="186.4,63.4 186.4,56.3 193.5,56.3 		"/>
		<polygon class="st2" points="206.8,63.4 206.8,56.3 213.9,56.3 		"/>
		<polygon class="st2" points="63.6,86.7 63.6,79.5 70.7,79.5 		"/>
		<polygon class="st2" points="84,86.7 84,79.5 91.2,79.5 		"/>
		<polygon class="st2" points="104.5,86.7 104.5,79.5 111.6,79.5 		"/>
		<polygon class="st2" points="125,86.7 125,79.5 132.1,79.5 		"/>
		<polygon class="st2" points="145.4,86.7 145.4,79.5 152.6,79.5 		"/>
		<polygon class="st2" points="165.9,86.7 165.9,79.5 173,79.5 		"/>
		<polygon class="st2" points="186.4,86.7 186.4,79.5 193.5,79.5 		"/>
		<polygon class="st2" points="206.8,86.7 206.8,79.5 213.9,79.5 		"/>
		<polygon class="st2" points="63.6,109.9 63.6,102.7 70.7,102.7 		"/>
		<polygon class="st2" points="84,109.9 84,102.7 91.2,102.7 		"/>
		<polygon class="st2" points="104.5,109.9 104.5,102.7 111.6,102.7 		"/>
		<polygon class="st2" points="125,109.9 125,102.7 132.1,102.7 		"/>
		<polygon class="st2" points="145.4,109.9 145.4,102.7 152.6,102.7 		"/>
		<polygon class="st2" points="165.9,109.9 165.9,102.7 173,102.7 		"/>
		<polygon class="st2" points="186.4,109.9 186.4,102.7 193.5,102.7 		"/>
		<polygon class="st2" points="206.8,109.9 206.8,102.7 213.9,102.7 		"/>
	</g>
	<g>
		<polygon class="st2" points="63.1,133.2 63.1,126.1 70.2,126.1 		"/>
		<polygon class="st2" points="83.6,133.2 83.6,126.1 90.7,126.1 		"/>
		<polygon class="st2" points="104,133.2 104,126.1 111.2,126.1 		"/>
		<polygon class="st2" points="124.5,133.2 124.5,126.1 131.6,126.1 		"/>
		<polygon class="st2" points="145,133.2 145,126.1 152.1,126.1 		"/>
		<polygon class="st2" points="165.4,133.2 165.4,126.1 172.6,126.1 		"/>
		<polygon class="st2" points="185.9,133.2 185.9,126.1 193,126.1 		"/>
		<polygon class="st2" points="206.4,133.2 206.4,126.1 213.5,126.1 		"/>
		<polygon class="st2" points="63.6,156.4 63.6,149.3 70.7,149.3 		"/>
		<polygon class="st2" points="84,156.4 84,149.3 91.2,149.3 		"/>
		<polygon class="st2" points="104.5,156.4 104.5,149.3 111.6,149.3 		"/>
		<polygon class="st2" points="125,156.4 125,149.3 132.1,149.3 		"/>
		<polygon class="st2" points="145.4,156.4 145.4,149.3 152.6,149.3 		"/>
		<polygon class="st2" points="165.9,156.4 165.9,149.3 173,149.3 		"/>
		<polygon class="st2" points="186.4,156.4 186.4,149.3 193.5,149.3 		"/>
		<polygon class="st2" points="206.8,156.4 206.8,149.3 213.9,149.3 		"/>
		<polygon class="st2" points="63.6,179.7 63.6,172.5 70.7,172.5 		"/>
		<polygon class="st2" points="84,179.7 84,172.5 91.2,172.5 		"/>
		<polygon class="st2" points="104.5,179.7 104.5,172.5 111.6,172.5 		"/>
		<polygon class="st2" points="125,179.7 125,172.5 132.1,172.5 		"/>
		<polygon class="st2" points="145.4,179.7 145.4,172.5 152.6,172.5 		"/>
		<polygon class="st2" points="165.9,179.7 165.9,172.5 173,172.5 		"/>
		<polygon class="st2" points="186.4,179.7 186.4,172.5 193.5,172.5 		"/>
		<polygon class="st2" points="206.8,179.7 206.8,172.5 213.9,172.5 		"/>
		<polygon class="st2" points="63.6,202.9 63.6,195.8 70.7,195.8 		"/>
		<polygon class="st2" points="84,202.9 84,195.8 91.2,195.8 		"/>
		<polygon class="st2" points="104.5,202.9 104.5,195.8 111.6,195.8 		"/>
		<polygon class="st2" points="125,202.9 125,195.8 132.1,195.8 		"/>
		<polygon class="st2" points="145.4,202.9 145.4,195.8 152.6,195.8 		"/>
		<polygon class="st2" points="165.9,202.9 165.9,195.8 173,195.8 		"/>
		<polygon class="st2" points="186.4,202.9 186.4,195.8 193.5,195.8 		"/>
		<polygon class="st2" points="206.8,202.9 206.8,195.8 213.9,195.8 		"/>
	</g>
</g>
</svg>
