<?xml version="1.0" encoding="utf-8"?>
<!-- Generator: Adobe Illustrator 21.0.0, SVG Export Plug-In . SVG Version: 6.00 Build 0)  -->
<svg version="1.1" id="Слой_1" xmlns="http://www.w3.org/2000/svg" xmlns:xlink="http://www.w3.org/1999/xlink" x="0px" y="0px"
	 viewBox="0 0 300 300" style="enable-background:new 0 0 300 300;" xml:space="preserve">
<style type="text/css">
	.st0{fill:#4D5B9D;stroke:#000105;stroke-width:4.2706;stroke-miterlimit:10;}
	.st1{fill:#000105;}
</style>
<g>
	<path class="st0" d="M273.5,182.6H26.6c-7,0-12.8-5.8-12.8-12.8v-44.7c0-7,5.8-12.8,12.8-12.8h246.9c7,0,12.8,5.8,12.8,12.8v44.7
		C286.3,176.8,280.5,182.6,273.5,182.6z"/>
	<rect x="207.8" y="131.3" class="st1" width="45.2" height="32.4"/>
	<circle class="st1" cx="51.8" cy="156.9" r="5.2"/>
	<circle class="st1" cx="68.8" cy="156.9" r="5.2"/>
	<path class="st1" d="M267.3,188.6h-18.8c-1.7,0-3-1.4-3-3l0,0c0-1.7,1.4-3,3-3h18.8c1.7,0,3,1.4,3,3l0,0
		C270.3,187.3,268.9,188.6,267.3,188.6z"/>
	<path class="st1" d="M32.8,188.6h18.8c1.7,0,3-1.4,3-3l0,0c0-1.7-1.4-3-3-3H32.8c-1.7,0-3,1.4-3,3l0,0
		C29.8,187.3,31.2,188.6,32.8,188.6z"/>
</g>
</svg>
