<?xml version="1.0" encoding="utf-8"?>
<!-- Generator: Adobe Illustrator 21.0.0, SVG Export Plug-In . SVG Version: 6.00 Build 0)  -->
<svg version="1.1" id="Слой_1" xmlns="http://www.w3.org/2000/svg" xmlns:xlink="http://www.w3.org/1999/xlink" x="0px" y="0px"
	 viewBox="0 0 300 300" style="enable-background:new 0 0 300 300;" xml:space="preserve">
<style type="text/css">
	.st0{fill:#4D5B9D;}
	.st1{fill:#201600;}
	.st2{fill:#FFFFFF;}
	.st3{fill:#E8A754;}
</style>
<path class="st0" d="M281,240.1H19c-6.5,0-11.8-5.3-11.8-11.8V76.6c0-6.5,5.3-11.8,11.8-11.8H281c6.5,0,11.8,5.3,11.8,11.8v151.7
	C292.8,234.8,287.5,240.1,281,240.1z"/>
<path class="st1" d="M281,62.6H19c-7.7,0-14,6.3-14,14v151.7c0,7.7,6.3,14,14,14H281c7.7,0,14-6.3,14-14V76.6
	C295,68.9,288.7,62.6,281,62.6z M290.5,76.6v151.7c0,5.3-4.3,9.6-9.6,9.6H19c-5.3,0-9.6-4.3-9.6-9.6V76.6c0-5.3,4.3-9.6,9.6-9.6H281
	C286.2,67.1,290.5,71.4,290.5,76.6z"/>
<g id="SPLINE_43_">
	<circle class="st1" cx="256" cy="152.8" r="4.1"/>
</g>
<g id="SPLINE_44_">
	<circle class="st1" cx="241.3" cy="152.8" r="4.1"/>
</g>
<g id="SPLINE_45_">
	<path class="st2" d="M265.8,90.9v16.4c0,0.8-0.7,1.5-1.5,1.5H233c-0.8,0-1.5-0.7-1.5-1.5V90.9c0-0.8,0.7-1.5,1.5-1.5h31.3
		C265.1,89.4,265.8,90,265.8,90.9z"/>
</g>
<g>
	<rect x="20.8" y="80.1" class="st3" width="92.6" height="3.5"/>
	<rect x="20.8" y="89.5" class="st3" width="92.6" height="3.5"/>
	<rect x="20.8" y="98.9" class="st3" width="92.6" height="3.5"/>
	<rect x="20.8" y="108.4" class="st3" width="92.6" height="3.5"/>
	<rect x="20.8" y="117.8" class="st3" width="92.6" height="3.5"/>
	<rect x="20.8" y="127.3" class="st3" width="92.6" height="3.5"/>
	<rect x="20.8" y="136.7" class="st3" width="92.6" height="3.5"/>
	<rect x="20.8" y="146.1" class="st3" width="92.6" height="3.5"/>
	<rect x="20.8" y="155.6" class="st3" width="92.6" height="3.5"/>
	<rect x="20.8" y="165" class="st3" width="92.6" height="3.5"/>
	<rect x="20.8" y="174.4" class="st3" width="92.6" height="3.5"/>
	<rect x="20.8" y="183.9" class="st3" width="92.6" height="3.5"/>
	<rect x="20.8" y="193.3" class="st3" width="92.6" height="3.5"/>
	<rect x="20.8" y="202.8" class="st3" width="92.6" height="3.5"/>
	<rect x="20.8" y="212.2" class="st3" width="92.6" height="3.5"/>
	<rect x="20.8" y="221.6" class="st3" width="92.6" height="3.5"/>
	<rect x="118.5" y="80.1" class="st3" width="92.6" height="3.5"/>
	<rect x="118.5" y="89.5" class="st3" width="92.6" height="3.5"/>
	<rect x="118.5" y="98.9" class="st3" width="92.6" height="3.5"/>
	<rect x="118.5" y="108.4" class="st3" width="92.6" height="3.5"/>
	<rect x="118.5" y="117.8" class="st3" width="92.6" height="3.5"/>
	<rect x="118.5" y="127.3" class="st3" width="92.6" height="3.5"/>
	<rect x="118.5" y="136.7" class="st3" width="92.6" height="3.5"/>
	<rect x="118.5" y="146.1" class="st3" width="92.6" height="3.5"/>
	<rect x="118.5" y="155.6" class="st3" width="92.6" height="3.5"/>
	<rect x="118.5" y="165" class="st3" width="92.6" height="3.5"/>
	<rect x="118.5" y="174.4" class="st3" width="92.6" height="3.5"/>
	<rect x="118.5" y="183.9" class="st3" width="92.6" height="3.5"/>
	<rect x="118.5" y="193.3" class="st3" width="92.6" height="3.5"/>
	<rect x="118.5" y="202.8" class="st3" width="92.6" height="3.5"/>
	<rect x="118.5" y="212.2" class="st3" width="92.6" height="3.5"/>
	<rect x="118.5" y="221.6" class="st3" width="92.6" height="3.5"/>
</g>
</svg>
