<?xml version="1.0" encoding="utf-8"?>
<!-- Generator: Adobe Illustrator 21.0.0, SVG Export Plug-In . SVG Version: 6.00 Build 0)  -->
<svg version="1.1" id="Слой_1" xmlns="http://www.w3.org/2000/svg" xmlns:xlink="http://www.w3.org/1999/xlink" x="0px" y="0px"
	 viewBox="0 0 300 300" style="enable-background:new 0 0 300 300;" xml:space="preserve">
<style type="text/css">
	.st0{fill:#725846;stroke:#201600;stroke-width:4.2706;stroke-miterlimit:10;}
	.st1{fill:#E8A754;stroke:#201600;stroke-width:4.2706;stroke-miterlimit:10;}
	.st2{fill:#4D5B9D;stroke:#000105;stroke-width:4.2706;stroke-miterlimit:10;}
	.st3{fill:#000105;}
</style>
<g>
	<rect x="70.9" y="35.5" class="st0" width="175.5" height="199.3"/>
	<rect x="63.3" y="29.4" class="st0" width="175.5" height="199.3"/>
	<rect x="55.6" y="23.2" class="st0" width="175.5" height="199.3"/>
	<rect x="64.3" y="32.7" class="st1" width="14.3" height="16.6"/>
	<rect x="84.8" y="32.7" class="st1" width="14.3" height="16.6"/>
	<rect x="105.2" y="32.7" class="st1" width="14.3" height="16.6"/>
	<rect x="125.7" y="32.7" class="st1" width="14.3" height="16.6"/>
	<rect x="146.1" y="32.7" class="st1" width="14.3" height="16.6"/>
	<rect x="166.6" y="32.7" class="st1" width="14.3" height="16.6"/>
	<rect x="187.1" y="32.7" class="st1" width="14.3" height="16.6"/>
	<rect x="207.5" y="32.7" class="st1" width="14.3" height="16.6"/>
	<rect x="64.3" y="55.9" class="st1" width="14.3" height="16.6"/>
	<rect x="84.8" y="55.9" class="st1" width="14.3" height="16.6"/>
	<rect x="105.2" y="55.9" class="st1" width="14.3" height="16.6"/>
	<rect x="125.7" y="55.9" class="st1" width="14.3" height="16.6"/>
	<rect x="146.1" y="55.9" class="st1" width="14.3" height="16.6"/>
	<rect x="166.6" y="55.9" class="st1" width="14.3" height="16.6"/>
	<rect x="187.1" y="55.9" class="st1" width="14.3" height="16.6"/>
	<rect x="207.5" y="55.9" class="st1" width="14.3" height="16.6"/>
	<rect x="64.3" y="79.1" class="st1" width="14.3" height="16.6"/>
	<rect x="84.8" y="79.1" class="st1" width="14.3" height="16.6"/>
	<rect x="105.2" y="79.1" class="st1" width="14.3" height="16.6"/>
	<rect x="125.7" y="79.1" class="st1" width="14.3" height="16.6"/>
	<rect x="146.1" y="79.1" class="st1" width="14.3" height="16.6"/>
	<rect x="166.6" y="79.1" class="st1" width="14.3" height="16.6"/>
	<rect x="187.1" y="79.1" class="st1" width="14.3" height="16.6"/>
	<rect x="207.5" y="79.1" class="st1" width="14.3" height="16.6"/>
	<rect x="64.3" y="102.4" class="st1" width="14.3" height="16.6"/>
	<rect x="84.8" y="102.4" class="st1" width="14.3" height="16.6"/>
	<rect x="105.2" y="102.4" class="st1" width="14.3" height="16.6"/>
	<rect x="125.7" y="102.4" class="st1" width="14.3" height="16.6"/>
	<rect x="146.1" y="102.4" class="st1" width="14.3" height="16.6"/>
	<rect x="166.6" y="102.4" class="st1" width="14.3" height="16.6"/>
	<rect x="187.1" y="102.4" class="st1" width="14.3" height="16.6"/>
	<rect x="207.5" y="102.4" class="st1" width="14.3" height="16.6"/>
	<path class="st2" d="M242.3,273.6H59.7c-5.2,0-9.5-4.3-9.5-9.5v-33c0-5.2,4.3-9.5,9.5-9.5h182.5c5.2,0,9.5,4.3,9.5,9.5v33
		C251.7,269.3,247.5,273.6,242.3,273.6z"/>
	<rect x="193.7" y="235.6" class="st3" width="33.4" height="24"/>
	<circle class="st3" cx="78.4" cy="254.5" r="3.9"/>
	<circle class="st3" cx="90.9" cy="254.5" r="3.9"/>
	<path class="st3" d="M237.7,278h-13.9c-1.2,0-2.2-1-2.2-2.2v0c0-1.2,1-2.2,2.2-2.2h13.9c1.2,0,2.2,1,2.2,2.2v0
		C239.9,277,238.9,278,237.7,278z"/>
	<path class="st3" d="M64.3,278h13.9c1.2,0,2.2-1,2.2-2.2v0c0-1.2-1-2.2-2.2-2.2H64.3c-1.2,0-2.2,1-2.2,2.2v0
		C62.1,277,63.1,278,64.3,278z"/>
	<g>
		<polygon class="st3" points="64.3,39.8 64.3,32.7 71.4,32.7 		"/>
		<polygon class="st3" points="84.8,39.8 84.8,32.7 91.9,32.7 		"/>
		<polygon class="st3" points="105.2,39.8 105.2,32.7 112.3,32.7 		"/>
		<polygon class="st3" points="125.7,39.8 125.7,32.7 132.8,32.7 		"/>
		<polygon class="st3" points="146.1,39.8 146.1,32.7 153.3,32.7 		"/>
		<polygon class="st3" points="166.6,39.8 166.6,32.7 173.7,32.7 		"/>
		<polygon class="st3" points="187.1,39.8 187.1,32.7 194.2,32.7 		"/>
		<polygon class="st3" points="207.5,39.8 207.5,32.7 214.7,32.7 		"/>
		<polygon class="st3" points="64.8,63 64.8,55.9 71.9,55.9 		"/>
		<polygon class="st3" points="85.2,63 85.2,55.9 92.4,55.9 		"/>
		<polygon class="st3" points="105.7,63 105.7,55.9 112.8,55.9 		"/>
		<polygon class="st3" points="126.1,63 126.1,55.9 133.3,55.9 		"/>
		<polygon class="st3" points="146.6,63 146.6,55.9 153.7,55.9 		"/>
		<polygon class="st3" points="167.1,63 167.1,55.9 174.2,55.9 		"/>
		<polygon class="st3" points="187.5,63 187.5,55.9 194.7,55.9 		"/>
		<polygon class="st3" points="208,63 208,55.9 215.1,55.9 		"/>
		<polygon class="st3" points="64.8,86.3 64.8,79.1 71.9,79.1 		"/>
		<polygon class="st3" points="85.2,86.3 85.2,79.1 92.4,79.1 		"/>
		<polygon class="st3" points="105.7,86.3 105.7,79.1 112.8,79.1 		"/>
		<polygon class="st3" points="126.1,86.3 126.1,79.1 133.3,79.1 		"/>
		<polygon class="st3" points="146.6,86.3 146.6,79.1 153.7,79.1 		"/>
		<polygon class="st3" points="167.1,86.3 167.1,79.1 174.2,79.1 		"/>
		<polygon class="st3" points="187.5,86.3 187.5,79.1 194.7,79.1 		"/>
		<polygon class="st3" points="208,86.3 208,79.1 215.1,79.1 		"/>
		<polygon class="st3" points="64.8,109.5 64.8,102.4 71.9,102.4 		"/>
		<polygon class="st3" points="85.2,109.5 85.2,102.4 92.4,102.4 		"/>
		<polygon class="st3" points="105.7,109.5 105.7,102.4 112.8,102.4 		"/>
		<polygon class="st3" points="126.1,109.5 126.1,102.4 133.3,102.4 		"/>
		<polygon class="st3" points="146.6,109.5 146.6,102.4 153.7,102.4 		"/>
		<polygon class="st3" points="167.1,109.5 167.1,102.4 174.2,102.4 		"/>
		<polygon class="st3" points="187.5,109.5 187.5,102.4 194.7,102.4 		"/>
		<polygon class="st3" points="208,109.5 208,102.4 215.1,102.4 		"/>
	</g>
	<rect x="64.3" y="125.7" class="st1" width="14.3" height="16.6"/>
	<rect x="84.8" y="125.7" class="st1" width="14.3" height="16.6"/>
	<rect x="105.2" y="125.7" class="st1" width="14.3" height="16.6"/>
	<rect x="125.7" y="125.7" class="st1" width="14.3" height="16.6"/>
	<rect x="146.1" y="125.7" class="st1" width="14.3" height="16.6"/>
	<rect x="166.6" y="125.7" class="st1" width="14.3" height="16.6"/>
	<rect x="187.1" y="125.7" class="st1" width="14.3" height="16.6"/>
	<rect x="207.5" y="125.7" class="st1" width="14.3" height="16.6"/>
	<rect x="64.3" y="148.9" class="st1" width="14.3" height="16.6"/>
	<rect x="84.8" y="148.9" class="st1" width="14.3" height="16.6"/>
	<rect x="105.2" y="148.9" class="st1" width="14.3" height="16.6"/>
	<rect x="125.7" y="148.9" class="st1" width="14.3" height="16.6"/>
	<rect x="146.1" y="148.9" class="st1" width="14.3" height="16.6"/>
	<rect x="166.6" y="148.9" class="st1" width="14.3" height="16.6"/>
	<rect x="187.1" y="148.9" class="st1" width="14.3" height="16.6"/>
	<rect x="207.5" y="148.9" class="st1" width="14.3" height="16.6"/>
	<rect x="64.3" y="172.1" class="st1" width="14.3" height="16.6"/>
	<rect x="84.8" y="172.1" class="st1" width="14.3" height="16.6"/>
	<rect x="105.2" y="172.1" class="st1" width="14.3" height="16.6"/>
	<rect x="125.7" y="172.1" class="st1" width="14.3" height="16.6"/>
	<rect x="146.1" y="172.1" class="st1" width="14.3" height="16.6"/>
	<rect x="166.6" y="172.1" class="st1" width="14.3" height="16.6"/>
	<rect x="187.1" y="172.1" class="st1" width="14.3" height="16.6"/>
	<rect x="207.5" y="172.1" class="st1" width="14.3" height="16.6"/>
	<rect x="64.3" y="195.4" class="st1" width="14.3" height="16.6"/>
	<rect x="84.8" y="195.4" class="st1" width="14.3" height="16.6"/>
	<rect x="105.2" y="195.4" class="st1" width="14.3" height="16.6"/>
	<rect x="125.7" y="195.4" class="st1" width="14.3" height="16.6"/>
	<rect x="146.1" y="195.4" class="st1" width="14.3" height="16.6"/>
	<rect x="166.6" y="195.4" class="st1" width="14.3" height="16.6"/>
	<rect x="187.1" y="195.4" class="st1" width="14.3" height="16.6"/>
	<rect x="207.5" y="195.4" class="st1" width="14.3" height="16.6"/>
	<g>
		<polygon class="st3" points="64.3,132.8 64.3,125.7 71.4,125.7 		"/>
		<polygon class="st3" points="84.8,132.8 84.8,125.7 91.9,125.7 		"/>
		<polygon class="st3" points="105.2,132.8 105.2,125.7 112.3,125.7 		"/>
		<polygon class="st3" points="125.7,132.8 125.7,125.7 132.8,125.7 		"/>
		<polygon class="st3" points="146.1,132.8 146.1,125.7 153.3,125.7 		"/>
		<polygon class="st3" points="166.6,132.8 166.6,125.7 173.7,125.7 		"/>
		<polygon class="st3" points="187.1,132.8 187.1,125.7 194.2,125.7 		"/>
		<polygon class="st3" points="207.5,132.8 207.5,125.7 214.7,125.7 		"/>
		<polygon class="st3" points="64.8,156.1 64.8,148.9 71.9,148.9 		"/>
		<polygon class="st3" points="85.2,156.1 85.2,148.9 92.4,148.9 		"/>
		<polygon class="st3" points="105.7,156.1 105.7,148.9 112.8,148.9 		"/>
		<polygon class="st3" points="126.1,156.1 126.1,148.9 133.3,148.9 		"/>
		<polygon class="st3" points="146.6,156.1 146.6,148.9 153.7,148.9 		"/>
		<polygon class="st3" points="167.1,156.1 167.1,148.9 174.2,148.9 		"/>
		<polygon class="st3" points="187.5,156.1 187.5,148.9 194.7,148.9 		"/>
		<polygon class="st3" points="208,156.1 208,148.9 215.1,148.9 		"/>
		<polygon class="st3" points="64.8,179.3 64.8,172.1 71.9,172.1 		"/>
		<polygon class="st3" points="85.2,179.3 85.2,172.1 92.4,172.1 		"/>
		<polygon class="st3" points="105.7,179.3 105.7,172.1 112.8,172.1 		"/>
		<polygon class="st3" points="126.1,179.3 126.1,172.1 133.3,172.1 		"/>
		<polygon class="st3" points="146.6,179.3 146.6,172.1 153.7,172.1 		"/>
		<polygon class="st3" points="167.1,179.3 167.1,172.1 174.2,172.1 		"/>
		<polygon class="st3" points="187.5,179.3 187.5,172.1 194.7,172.1 		"/>
		<polygon class="st3" points="208,179.3 208,172.1 215.1,172.1 		"/>
		<polygon class="st3" points="64.8,202.5 64.8,195.4 71.9,195.4 		"/>
		<polygon class="st3" points="85.2,202.5 85.2,195.4 92.4,195.4 		"/>
		<polygon class="st3" points="105.7,202.5 105.7,195.4 112.8,195.4 		"/>
		<polygon class="st3" points="126.1,202.5 126.1,195.4 133.3,195.4 		"/>
		<polygon class="st3" points="146.6,202.5 146.6,195.4 153.7,195.4 		"/>
		<polygon class="st3" points="167.1,202.5 167.1,195.4 174.2,195.4 		"/>
		<polygon class="st3" points="187.5,202.5 187.5,195.4 194.7,195.4 		"/>
		<polygon class="st3" points="208,202.5 208,195.4 215.1,195.4 		"/>
	</g>
</g>
</svg>
