<?xml version="1.0" encoding="utf-8"?>
<!-- Generator: Adobe Illustrator 21.0.0, SVG Export Plug-In . SVG Version: 6.00 Build 0)  -->
<svg version="1.1" id="Слой_1" xmlns="http://www.w3.org/2000/svg" xmlns:xlink="http://www.w3.org/1999/xlink" x="0px" y="0px"
	 viewBox="0 0 300 300" style="enable-background:new 0 0 300 300;" xml:space="preserve">
<style type="text/css">
	.st0{fill:#AFAEAE;stroke:#000105;stroke-width:4.2706;stroke-miterlimit:10;}
	.st1{fill:#000105;}
</style>
<g>
	<path class="st0" d="M274.3,182.9H27.4c-7,0-12.8-5.8-12.8-12.8v-44.7c0-7,5.8-12.8,12.8-12.8h246.9c7,0,12.8,5.8,12.8,12.8v44.7
		C287.1,177.1,281.3,182.9,274.3,182.9z"/>
	<rect x="208.6" y="131.5" class="st1" width="45.2" height="32.4"/>
	<circle class="st1" cx="52.6" cy="157.2" r="5.2"/>
	<circle class="st1" cx="69.5" cy="157.2" r="5.2"/>
	<path class="st1" d="M268,188.9h-18.8c-1.7,0-3-1.4-3-3l0,0c0-1.7,1.4-3,3-3H268c1.7,0,3,1.4,3,3l0,0
		C271,187.6,269.7,188.9,268,188.9z"/>
	<path class="st1" d="M33.6,188.9h18.8c1.7,0,3-1.4,3-3l0,0c0-1.7-1.4-3-3-3H33.6c-1.7,0-3,1.4-3,3l0,0
		C30.6,187.6,31.9,188.9,33.6,188.9z"/>
</g>
</svg>
