<?xml version="1.0" encoding="utf-8"?>
<!-- Generator: Adobe Illustrator 21.0.0, SVG Export Plug-In . SVG Version: 6.00 Build 0)  -->
<svg version="1.1" id="Слой_1" xmlns="http://www.w3.org/2000/svg" xmlns:xlink="http://www.w3.org/1999/xlink" x="0px" y="0px"
	 viewBox="0 0 300 300" style="enable-background:new 0 0 300 300;" xml:space="preserve">
<style type="text/css">
	.st0{fill:#725846;stroke:#201600;stroke-width:4.2706;stroke-miterlimit:10;}
	.st1{fill:#E8A754;stroke:#201600;stroke-width:4.2706;stroke-miterlimit:10;}
	.st2{fill:#4D5B9D;stroke:#000105;stroke-width:4.2706;stroke-miterlimit:10;}
	.st3{fill:#000105;}
</style>
<g>
	<rect x="62.7" y="22.8" class="st0" width="175.5" height="199.3"/>
	<rect x="71.4" y="32.3" class="st1" width="14.3" height="16.6"/>
	<rect x="91.9" y="32.3" class="st1" width="14.3" height="16.6"/>
	<rect x="112.3" y="32.3" class="st1" width="14.3" height="16.6"/>
	<rect x="132.8" y="32.3" class="st1" width="14.3" height="16.6"/>
	<rect x="153.2" y="32.3" class="st1" width="14.3" height="16.6"/>
	<rect x="173.7" y="32.3" class="st1" width="14.3" height="16.6"/>
	<rect x="194.2" y="32.3" class="st1" width="14.3" height="16.6"/>
	<rect x="214.6" y="32.3" class="st1" width="14.3" height="16.6"/>
	<rect x="71.4" y="55.5" class="st1" width="14.3" height="16.6"/>
	<rect x="91.9" y="55.5" class="st1" width="14.3" height="16.6"/>
	<rect x="112.3" y="55.5" class="st1" width="14.3" height="16.6"/>
	<rect x="132.8" y="55.5" class="st1" width="14.3" height="16.6"/>
	<rect x="153.2" y="55.5" class="st1" width="14.3" height="16.6"/>
	<rect x="173.7" y="55.5" class="st1" width="14.3" height="16.6"/>
	<rect x="194.2" y="55.5" class="st1" width="14.3" height="16.6"/>
	<rect x="214.6" y="55.5" class="st1" width="14.3" height="16.6"/>
	<rect x="71.4" y="78.8" class="st1" width="14.3" height="16.6"/>
	<rect x="91.9" y="78.8" class="st1" width="14.3" height="16.6"/>
	<rect x="112.3" y="78.8" class="st1" width="14.3" height="16.6"/>
	<rect x="132.8" y="78.8" class="st1" width="14.3" height="16.6"/>
	<rect x="153.2" y="78.8" class="st1" width="14.3" height="16.6"/>
	<rect x="173.7" y="78.8" class="st1" width="14.3" height="16.6"/>
	<rect x="194.2" y="78.8" class="st1" width="14.3" height="16.6"/>
	<rect x="214.6" y="78.8" class="st1" width="14.3" height="16.6"/>
	<rect x="71.4" y="102" class="st1" width="14.3" height="16.6"/>
	<rect x="91.9" y="102" class="st1" width="14.3" height="16.6"/>
	<rect x="112.3" y="102" class="st1" width="14.3" height="16.6"/>
	<rect x="132.8" y="102" class="st1" width="14.3" height="16.6"/>
	<rect x="153.2" y="102" class="st1" width="14.3" height="16.6"/>
	<rect x="173.7" y="102" class="st1" width="14.3" height="16.6"/>
	<rect x="194.2" y="102" class="st1" width="14.3" height="16.6"/>
	<rect x="214.6" y="102" class="st1" width="14.3" height="16.6"/>
	<path class="st2" d="M241.7,273.2H59.1c-5.2,0-9.5-4.3-9.5-9.5v-33c0-5.2,4.3-9.5,9.5-9.5h182.5c5.2,0,9.5,4.3,9.5,9.5v33
		C251.1,268.9,246.9,273.2,241.7,273.2z"/>
	<rect x="193.1" y="235.2" class="st3" width="33.4" height="24"/>
	<circle class="st3" cx="77.8" cy="254.2" r="3.9"/>
	<circle class="st3" cx="90.3" cy="254.2" r="3.9"/>
	<path class="st3" d="M237.1,277.6h-13.9c-1.2,0-2.2-1-2.2-2.2l0,0c0-1.2,1-2.2,2.2-2.2h13.9c1.2,0,2.2,1,2.2,2.2l0,0
		C239.3,276.6,238.3,277.6,237.1,277.6z"/>
	<path class="st3" d="M63.7,277.6h13.9c1.2,0,2.2-1,2.2-2.2l0,0c0-1.2-1-2.2-2.2-2.2H63.7c-1.2,0-2.2,1-2.2,2.2l0,0
		C61.5,276.6,62.5,277.6,63.7,277.6z"/>
	<g>
		<polygon class="st3" points="71.4,39.4 71.4,32.3 78.5,32.3 		"/>
		<polygon class="st3" points="91.9,39.4 91.9,32.3 99,32.3 		"/>
		<polygon class="st3" points="112.3,39.4 112.3,32.3 119.4,32.3 		"/>
		<polygon class="st3" points="132.8,39.4 132.8,32.3 139.9,32.3 		"/>
		<polygon class="st3" points="153.2,39.4 153.2,32.3 160.4,32.3 		"/>
		<polygon class="st3" points="173.7,39.4 173.7,32.3 180.8,32.3 		"/>
		<polygon class="st3" points="194.2,39.4 194.2,32.3 201.3,32.3 		"/>
		<polygon class="st3" points="214.6,39.4 214.6,32.3 221.8,32.3 		"/>
		<polygon class="st3" points="71.9,62.7 71.9,55.5 79,55.5 		"/>
		<polygon class="st3" points="92.3,62.7 92.3,55.5 99.4,55.5 		"/>
		<polygon class="st3" points="112.8,62.7 112.8,55.5 119.9,55.5 		"/>
		<polygon class="st3" points="133.2,62.7 133.2,55.5 140.4,55.5 		"/>
		<polygon class="st3" points="153.7,62.7 153.7,55.5 160.8,55.5 		"/>
		<polygon class="st3" points="174.2,62.7 174.2,55.5 181.3,55.5 		"/>
		<polygon class="st3" points="194.6,62.7 194.6,55.5 201.8,55.5 		"/>
		<polygon class="st3" points="215.1,62.7 215.1,55.5 222.2,55.5 		"/>
		<polygon class="st3" points="71.9,85.9 71.9,78.8 79,78.8 		"/>
		<polygon class="st3" points="92.3,85.9 92.3,78.8 99.4,78.8 		"/>
		<polygon class="st3" points="112.8,85.9 112.8,78.8 119.9,78.8 		"/>
		<polygon class="st3" points="133.2,85.9 133.2,78.8 140.4,78.8 		"/>
		<polygon class="st3" points="153.7,85.9 153.7,78.8 160.8,78.8 		"/>
		<polygon class="st3" points="174.2,85.9 174.2,78.8 181.3,78.8 		"/>
		<polygon class="st3" points="194.6,85.9 194.6,78.8 201.8,78.8 		"/>
		<polygon class="st3" points="215.1,85.9 215.1,78.8 222.2,78.8 		"/>
		<polygon class="st3" points="71.9,109.1 71.9,102 79,102 		"/>
		<polygon class="st3" points="92.3,109.1 92.3,102 99.4,102 		"/>
		<polygon class="st3" points="112.8,109.1 112.8,102 119.9,102 		"/>
		<polygon class="st3" points="133.2,109.1 133.2,102 140.4,102 		"/>
		<polygon class="st3" points="153.7,109.1 153.7,102 160.8,102 		"/>
		<polygon class="st3" points="174.2,109.1 174.2,102 181.3,102 		"/>
		<polygon class="st3" points="194.6,109.1 194.6,102 201.8,102 		"/>
		<polygon class="st3" points="215.1,109.1 215.1,102 222.2,102 		"/>
	</g>
	<rect x="71.4" y="125.3" class="st1" width="14.3" height="16.6"/>
	<rect x="91.9" y="125.3" class="st1" width="14.3" height="16.6"/>
	<rect x="112.3" y="125.3" class="st1" width="14.3" height="16.6"/>
	<rect x="132.8" y="125.3" class="st1" width="14.3" height="16.6"/>
	<rect x="153.2" y="125.3" class="st1" width="14.3" height="16.6"/>
	<rect x="173.7" y="125.3" class="st1" width="14.3" height="16.6"/>
	<rect x="194.2" y="125.3" class="st1" width="14.3" height="16.6"/>
	<rect x="214.6" y="125.3" class="st1" width="14.3" height="16.6"/>
	<rect x="71.4" y="148.5" class="st1" width="14.3" height="16.6"/>
	<rect x="91.9" y="148.5" class="st1" width="14.3" height="16.6"/>
	<rect x="112.3" y="148.5" class="st1" width="14.3" height="16.6"/>
	<rect x="132.8" y="148.5" class="st1" width="14.3" height="16.6"/>
	<rect x="153.2" y="148.5" class="st1" width="14.3" height="16.6"/>
	<rect x="173.7" y="148.5" class="st1" width="14.3" height="16.6"/>
	<rect x="194.2" y="148.5" class="st1" width="14.3" height="16.6"/>
	<rect x="214.6" y="148.5" class="st1" width="14.3" height="16.6"/>
	<rect x="71.4" y="171.8" class="st1" width="14.3" height="16.6"/>
	<rect x="91.9" y="171.8" class="st1" width="14.3" height="16.6"/>
	<rect x="112.3" y="171.8" class="st1" width="14.3" height="16.6"/>
	<rect x="132.8" y="171.8" class="st1" width="14.3" height="16.6"/>
	<rect x="153.2" y="171.8" class="st1" width="14.3" height="16.6"/>
	<rect x="173.7" y="171.8" class="st1" width="14.3" height="16.6"/>
	<rect x="194.2" y="171.8" class="st1" width="14.3" height="16.6"/>
	<rect x="214.6" y="171.8" class="st1" width="14.3" height="16.6"/>
	<rect x="71.4" y="195" class="st1" width="14.3" height="16.6"/>
	<rect x="91.9" y="195" class="st1" width="14.3" height="16.6"/>
	<rect x="112.3" y="195" class="st1" width="14.3" height="16.6"/>
	<rect x="132.8" y="195" class="st1" width="14.3" height="16.6"/>
	<rect x="153.2" y="195" class="st1" width="14.3" height="16.6"/>
	<rect x="173.7" y="195" class="st1" width="14.3" height="16.6"/>
	<rect x="194.2" y="195" class="st1" width="14.3" height="16.6"/>
	<rect x="214.6" y="195" class="st1" width="14.3" height="16.6"/>
	<g>
		<polygon class="st3" points="71.4,132.5 71.4,125.3 78.5,125.3 		"/>
		<polygon class="st3" points="91.9,132.5 91.9,125.3 99,125.3 		"/>
		<polygon class="st3" points="112.3,132.5 112.3,125.3 119.4,125.3 		"/>
		<polygon class="st3" points="132.8,132.5 132.8,125.3 139.9,125.3 		"/>
		<polygon class="st3" points="153.2,132.5 153.2,125.3 160.4,125.3 		"/>
		<polygon class="st3" points="173.7,132.5 173.7,125.3 180.8,125.3 		"/>
		<polygon class="st3" points="194.2,132.5 194.2,125.3 201.3,125.3 		"/>
		<polygon class="st3" points="214.6,132.5 214.6,125.3 221.8,125.3 		"/>
		<polygon class="st3" points="71.9,155.7 71.9,148.5 79,148.5 		"/>
		<polygon class="st3" points="92.3,155.7 92.3,148.5 99.4,148.5 		"/>
		<polygon class="st3" points="112.8,155.7 112.8,148.5 119.9,148.5 		"/>
		<polygon class="st3" points="133.2,155.7 133.2,148.5 140.4,148.5 		"/>
		<polygon class="st3" points="153.7,155.7 153.7,148.5 160.8,148.5 		"/>
		<polygon class="st3" points="174.2,155.7 174.2,148.5 181.3,148.5 		"/>
		<polygon class="st3" points="194.6,155.7 194.6,148.5 201.8,148.5 		"/>
		<polygon class="st3" points="215.1,155.7 215.1,148.5 222.2,148.5 		"/>
		<polygon class="st3" points="71.9,178.9 71.9,171.8 79,171.8 		"/>
		<polygon class="st3" points="92.3,178.9 92.3,171.8 99.4,171.8 		"/>
		<polygon class="st3" points="112.8,178.9 112.8,171.8 119.9,171.8 		"/>
		<polygon class="st3" points="133.2,178.9 133.2,171.8 140.4,171.8 		"/>
		<polygon class="st3" points="153.7,178.9 153.7,171.8 160.8,171.8 		"/>
		<polygon class="st3" points="174.2,178.9 174.2,171.8 181.3,171.8 		"/>
		<polygon class="st3" points="194.6,178.9 194.6,171.8 201.8,171.8 		"/>
		<polygon class="st3" points="215.1,178.9 215.1,171.8 222.2,171.8 		"/>
		<polygon class="st3" points="71.9,202.1 71.9,195 79,195 		"/>
		<polygon class="st3" points="92.3,202.1 92.3,195 99.4,195 		"/>
		<polygon class="st3" points="112.8,202.1 112.8,195 119.9,195 		"/>
		<polygon class="st3" points="133.2,202.1 133.2,195 140.4,195 		"/>
		<polygon class="st3" points="153.7,202.1 153.7,195 160.8,195 		"/>
		<polygon class="st3" points="174.2,202.1 174.2,195 181.3,195 		"/>
		<polygon class="st3" points="194.6,202.1 194.6,195 201.8,195 		"/>
		<polygon class="st3" points="215.1,202.1 215.1,195 222.2,195 		"/>
	</g>
</g>
</svg>
