<?xml version="1.0" encoding="utf-8"?>
<!-- Generator: Adobe Illustrator 21.0.0, SVG Export Plug-In . SVG Version: 6.00 Build 0)  -->
<svg version="1.1" id="Слой_1" xmlns="http://www.w3.org/2000/svg" xmlns:xlink="http://www.w3.org/1999/xlink" x="0px" y="0px"
	 viewBox="0 0 300 300" style="enable-background:new 0 0 300 300;" xml:space="preserve">
<style type="text/css">
	.st0{fill:#E2E2E2;stroke:#201600;stroke-width:4.2706;stroke-miterlimit:10;}
	.st1{fill:#725846;stroke:#201600;stroke-width:4.2706;stroke-miterlimit:10;}
	.st2{fill:#969594;}
	.st3{fill:#201600;}
	.st4{fill:#585551;stroke:#201600;stroke-width:4.103;stroke-miterlimit:10;}
	.st5{fill:#585551;stroke:#201600;stroke-width:4.2706;stroke-miterlimit:10;}
</style>
<g>
	<path class="st0" d="M259.2,111l-8.2-3.1c-0.3-2.2-0.7-4.4-1.1-6.5l6.6-5.7c-0.3-1.1-0.6-2.2-0.9-3.4l-8.6-1.6
		c-0.7-2.1-1.5-4.2-2.3-6.2l5.5-6.8c-0.5-1.1-0.9-2.1-1.5-3.2l-8.8-0.1c-1-2-2.2-3.9-3.3-5.7l4.3-7.7c-0.7-1-1.3-1.9-2-2.8l-8.6,1.4
		c-1.4-1.7-2.8-3.4-4.2-5.1l2.9-8.3c-0.8-0.8-1.6-1.7-2.5-2.5l-8.3,2.9c-1.6-1.5-3.3-2.9-5.1-4.2l1.4-8.6c-0.9-0.7-1.9-1.4-2.8-2
		l-7.7,4.3c-1.9-1.2-3.8-2.3-5.7-3.3l-0.1-8.8c-1-0.5-2.1-1-3.2-1.5l-6.8,5.5c-2-0.8-4.1-1.6-6.2-2.3l-1.6-8.6
		c-1.1-0.3-2.2-0.6-3.4-0.9l-5.7,6.6c-2.2-0.5-4.3-0.8-6.5-1.1l-3.1-8.2c-1.2-0.1-2.3-0.2-3.5-0.3l-4.5,7.5c-1.1,0-2.2-0.1-3.3-0.1
		c-1.1,0-2.2,0-3.3,0.1l-4.5-7.5c-1.2,0.1-2.3,0.2-3.5,0.3l-3.1,8.2c-2.2,0.3-4.4,0.7-6.5,1.1l-5.7-6.6c-1.1,0.3-2.2,0.6-3.4,0.9
		l-1.6,8.6c-2.1,0.7-4.2,1.5-6.2,2.3l-6.8-5.5c-1.1,0.5-2.1,0.9-3.2,1.5l-0.1,8.8c-2,1-3.9,2.2-5.7,3.3l-7.7-4.3
		c-1,0.7-1.9,1.3-2.8,2l1.4,8.6c-1.7,1.4-3.4,2.8-5.1,4.2L74,43.6c-0.8,0.8-1.7,1.6-2.5,2.5l2.9,8.3c-1.5,1.6-2.9,3.3-4.2,5.1
		L61.5,58c-0.7,0.9-1.4,1.9-2,2.8l4.3,7.7c-1.2,1.9-2.3,3.8-3.3,5.7l-8.8,0.1c-0.5,1-1,2.1-1.5,3.2l5.5,6.8c-0.8,2-1.6,4.1-2.3,6.2
		l-8.6,1.6c-0.3,1.1-0.6,2.2-0.9,3.4l6.6,5.7c-0.5,2.2-0.8,4.3-1.1,6.5l-8.2,3.1c-0.1,1.2-0.2,2.3-0.3,3.5l7.5,4.5
		c0,1.1-0.1,2.2-0.1,3.3s0,2.2,0.1,3.3l-7.5,4.5c0.1,1.2,0.2,2.3,0.3,3.5l8.2,3.1c0.3,2.2,0.7,4.4,1.1,6.5l-6.6,5.7
		c0.3,1.1,0.6,2.2,0.9,3.4l8.6,1.6c0.7,2.1,1.5,4.2,2.3,6.2l-5.5,6.8c0.5,1.1,0.9,2.1,1.5,3.2l8.8,0.1c1,2,2.2,3.9,3.3,5.7l-4.3,7.7
		c0.7,1,1.3,1.9,2,2.8l8.6-1.4c1.4,1.7,2.8,3.4,4.2,5.1l-2.9,8.3c0.8,0.8,1.6,1.7,2.5,2.5l8.3-2.9c1.6,1.5,3.3,2.9,5.1,4.2L86,211
		c0.9,0.7,1.9,1.4,2.8,2l7.7-4.3c1.9,1.2,3.8,2.3,5.7,3.3l0.1,8.8c1,0.5,2.1,1,3.2,1.5l6.8-5.5c2,0.8,4.1,1.6,6.2,2.3l1.6,8.6
		c1.1,0.3,2.2,0.6,3.4,0.9l5.7-6.6c2.2,0.5,4.3,0.8,6.5,1.1l3.1,8.2c1.2,0.1,2.3,0.2,3.5,0.3l4.5-7.5c1.1,0,2.2,0.1,3.3,0.1
		c1.1,0,2.2,0,3.3-0.1l4.5,7.5c1.2-0.1,2.3-0.2,3.5-0.3l3.1-8.2c2.2-0.3,4.4-0.7,6.5-1.1l5.7,6.6c1.1-0.3,2.2-0.6,3.4-0.9l1.6-8.6
		c2.1-0.7,4.2-1.5,6.2-2.3l6.8,5.5c1.1-0.5,2.1-0.9,3.2-1.5l0.1-8.8c2-1,3.9-2.2,5.7-3.3l7.7,4.3c1-0.7,1.9-1.3,2.8-2l-1.4-8.6
		c1.7-1.4,3.4-2.8,5.1-4.2l8.3,2.9c0.8-0.8,1.7-1.6,2.5-2.5l-2.9-8.3c1.5-1.6,2.9-3.3,4.2-5.1l8.6,1.4c0.7-0.9,1.4-1.9,2-2.8
		l-4.3-7.7c1.2-1.9,2.3-3.8,3.3-5.7l8.8-0.1c0.5-1,1-2.1,1.5-3.2l-5.5-6.8c0.8-2,1.6-4.1,2.3-6.2l8.6-1.6c0.3-1.1,0.6-2.2,0.9-3.4
		l-6.6-5.7c0.5-2.2,0.8-4.3,1.1-6.5l8.2-3.1c0.1-1.2,0.2-2.3,0.3-3.5l-7.5-4.5c0-1.1,0.1-2.2,0.1-3.3s0-2.2-0.1-3.3l7.5-4.5
		C259.4,113.3,259.3,112.1,259.2,111z"/>
	<path class="st1" d="M216.4,281.1l-18.5-69.7l-1.4-5.3l-1.4-5.1l2-3.4l-3.4-1.9l-1.4-5.1l2-3.4l-3.4-1.9l-1.3-5.1l2-3.4l-3.4-2
		l-1.3-5l2-3.4l-3.4-2l-1.3-5l2-3.5l-3.4-2l-1.3-5l2-3.5l-3.5-2l-1.3-5l2-3.5l-3.5-2l-3.4-13l0,0c-4.1-14.3-11.2-19.8-22.9-19.8
		c0,0,0,0,0,0c0,0,0,0,0,0c0,0,0,0,0,0c0,0,0,0,0,0c-11.6,0-18.7,5.5-22.8,19.8l0,0L97.7,233.7L88,270.3l-2.8,10.7
		c-0.1,0.3-0.1,0.6-0.1,1c0,2,1.6,3.6,3.6,3.6h7.7h109h3.4h4.3c2,0,3.6-1.6,3.6-3.6C216.5,281.7,216.5,281.4,216.4,281.1z
		 M134.6,128.7c0-0.9,0.7-1.6,1.6-1.6h29c0.9,0,1.6,0.7,1.6,1.6v116.5c0,0.9-0.7,1.6-1.6,1.6h-29c-0.9,0-1.6-0.7-1.6-1.6V128.7z"/>
	<path class="st2" d="M216.4,281.1l-18.5-69.7l-1.4-5.3l-1.4-5.1l2-3.4l-3.4-1.9l-1.4-5.1l2-3.4l-3.4-1.9l-1.3-5.1l2-3.4l-3.4-2
		l-1.3-5l2-3.4l-3.4-2l-1.3-5l2-3.5l-3.4-2l-1.3-5l2-3.5l-3.5-2l-1.3-5l2-3.5l-3.5-2l-3.4-13l0,0c-4.1-14.3-11.2-19.8-22.9-19.8
		c0,0,0,0,0,0c0,0,0,0,0,0c0,0,0,0,0,0c0,0,0,0,0,0c-11.6,0-18.7,5.5-22.8,19.8l0,0L97.7,233.7L88,270.3l-2.8,10.7
		c-0.1,0.3-0.1,0.6-0.1,1c0,2,1.6,3.6,3.6,3.6h7.7h109h3.4h4.3c2,0,3.6-1.6,3.6-3.6C216.5,281.7,216.5,281.4,216.4,281.1z
		 M134.6,128.7c0-0.9,0.7-1.6,1.6-1.6h29c0.9,0,1.6,0.7,1.6,1.6v116.5c0,0.9-0.7,1.6-1.6,1.6h-29c-0.9,0-1.6-0.7-1.6-1.6V128.7z"/>
	<path class="st3" d="M213,287.7H88.6c-3.1,0-5.7-2.6-5.7-5.7c0-0.5,0.1-1,0.2-1.5l42.7-161.2c4.2-14.7,11.9-21.3,24.9-21.3
		c13.1,0,20.7,6.6,25,21.3l0.1,0.3l3.2,11.9l4.6,2.6l-2.6,4.6l0.9,3.3l4.5,2.6l-2.6,4.6l0.9,3.3l4.5,2.6l-2.6,4.5l0.9,3.3l4.5,2.6
		l-2.6,4.5l0.9,3.3l4.5,2.6l-2.6,4.5l0.9,3.4l4.5,2.6l-2.6,4.5l0.9,3.4l4.5,2.6l-2.6,4.5l21,79.3c0.1,0.5,0.2,1,0.2,1.5
		C218.6,285.2,216.1,287.7,213,287.7z M130,120.4L130,120.4L87.2,281.6c0,0.2-0.1,0.3-0.1,0.4c0,0.8,0.6,1.4,1.4,1.4H213
		c0.8,0,1.4-0.6,1.4-1.4c0-0.1,0-0.3-0.1-0.4l0,0l-42.8-161.3c-3.7-12.8-9.8-18.1-20.8-18.1C139.7,102.2,133.7,107.5,130,120.4z
		 M165.2,249h-29c-2.1,0-3.7-1.7-3.7-3.7V128.7c0-2.1,1.7-3.7,3.7-3.7h29c2.1,0,3.7,1.7,3.7,3.7v116.5
		C169,247.3,167.3,249,165.2,249z M136.7,244.7h28V129.3h-28V244.7z"/>
	<path class="st4" d="M167.4,194.2h-33.3c-1.5,0-2.7,1.2-2.7,2.7v26.3v13.4v1.4c0,1.5,1.5,2.7,3,2.7h33c1.5,0,2.7-1.2,2.7-2.7v-41.2
		C170.1,195.4,168.9,194.2,167.4,194.2z"/>
	<g>
		<path class="st2" d="M104.3,109.2c0.2-0.8,0.5-1.6,0.8-2.4c0,0,0,0,0-0.1c0.8-2.4,1.9-4.7,3.1-7l0,0c0.1-0.2,0.2-0.5,0.4-0.7
			l-3.5-2.4c-1.6,2.8-2.9,5.7-3.9,8.8c0,0.1-0.1,0.3-0.1,0.4c-0.2,0.6-0.4,1.1-0.6,1.7l0,0c-0.1,0.3-0.2,0.5-0.3,0.8L104.3,109.2z"
			/>
		<path class="st2" d="M98.6,116.8L98.6,116.8c-0.1,0.5-0.1,1-0.1,1.6c0,0.3,0,0.5-0.1,0.8c0,0.6-0.1,1.2-0.1,1.8c0,0.4,0,0.9,0,1.3
			c0,0.4,0,0.8,0,1.3c0,0.6,0,1.2,0.1,1.8c0,0.3,0,0.5,0.1,0.8c0,0.5,0.1,1.1,0.1,1.6l0,0c0,0.3,0,0.6,0.1,0.9l4.1-0.9
			c-0.1-0.8-0.2-1.5-0.2-2.3c0-0.1,0-0.3,0-0.4c0-0.6,0-1.2-0.1-1.7c0-0.3,0-0.7,0-1c0-0.4,0-0.7,0-1c0-0.6,0-1.1,0.1-1.7
			c0-0.2,0-0.3,0-0.5c0.1-0.8,0.1-1.5,0.2-2.3l-4.1-0.9C98.6,116.2,98.6,116.5,98.6,116.8z"/>
		<path class="st2" d="M190.7,89.6c-0.3-0.4-0.7-0.8-1-1.2c-0.2-0.2-0.3-0.4-0.5-0.6c-0.4-0.5-0.8-0.9-1.2-1.3
			c-0.3-0.3-0.6-0.6-0.9-1c-0.3-0.3-0.6-0.6-0.9-0.9c-0.5-0.4-0.9-0.9-1.4-1.3c-0.2-0.2-0.4-0.3-0.5-0.5c-0.4-0.4-0.8-0.7-1.2-1.1
			l0,0c-0.2-0.2-0.4-0.4-0.7-0.5l-2.3,3.5c0.5,0.4,1,0.9,1.6,1.3c0.2,0.2,0.4,0.4,0.6,0.5c0.4,0.3,0.7,0.7,1.1,1
			c0.3,0.3,0.6,0.5,0.8,0.8c0.3,0.3,0.5,0.6,0.8,0.8c0.3,0.4,0.7,0.7,1,1.1c0.2,0.2,0.3,0.4,0.5,0.6c0.4,0.5,0.9,1,1.3,1.6l3.5-2.3
			C191,90,190.8,89.8,190.7,89.6L190.7,89.6z"/>
		<path class="st2" d="M166.7,73c-0.6-0.2-1.2-0.4-1.8-0.6l0,0c-0.3-0.1-0.5-0.2-0.8-0.3l-0.8,4.1c0.8,0.2,1.6,0.5,2.4,0.8
			c0,0,0.1,0,0.1,0c2.4,0.8,4.7,1.9,7,3.1l0,0c0.2,0.1,0.5,0.2,0.7,0.4l2.4-3.5c-2.8-1.6-5.7-2.9-8.8-3.9
			C166.9,73,166.8,73,166.7,73z"/>
		<path class="st2" d="M155.7,70.6c-0.5-0.1-1-0.1-1.6-0.1c-0.3,0-0.6,0-0.8-0.1c-0.6,0-1.2-0.1-1.8-0.1c-0.4,0-0.9,0-1.3,0
			c-0.4,0-0.9,0-1.3,0c-0.6,0-1.2,0-1.8,0.1c-0.3,0-0.6,0-0.8,0.1c-0.5,0-1,0.1-1.6,0.1l0,0c-0.3,0-0.6,0-0.9,0.1l0.9,4.1
			c0.8-0.1,1.5-0.2,2.3-0.2c0.2,0,0.3,0,0.5,0c0.6,0,1.2,0,1.7-0.1c0.3,0,0.7,0,1,0c0.3,0,0.7,0,1,0c0.6,0,1.1,0,1.7,0.1
			c0.2,0,0.3,0,0.5,0c0.8,0.1,1.5,0.1,2.3,0.2l0.9-4.1C156.3,70.6,156,70.6,155.7,70.6L155.7,70.6z"/>
		<path class="st2" d="M100.9,138.7c0,0.1,0.1,0.3,0.1,0.4c1.1,3.1,2.4,6,3.9,8.8l3.5-2.4c-0.1-0.2-0.2-0.5-0.4-0.7l0,0
			c-1.2-2.2-2.2-4.6-3.1-7c0,0,0-0.1,0-0.1c-0.3-0.8-0.5-1.6-0.8-2.4l-4.1,0.8c0.1,0.3,0.2,0.5,0.3,0.8l0,0
			C100.5,137.5,100.7,138.1,100.9,138.7z"/>
		<path class="st2" d="M196.2,135.4c-0.2,0.8-0.5,1.6-0.8,2.4c0,0,0,0.1,0,0.1c-0.8,2.4-1.9,4.7-3.1,7l0,0c-0.1,0.2-0.2,0.5-0.4,0.7
			l3.5,2.4c1.6-2.8,2.9-5.7,3.9-8.8c0-0.1,0.1-0.3,0.1-0.4c0.2-0.6,0.4-1.1,0.6-1.7l0,0c0.1-0.3,0.2-0.5,0.3-0.8L196.2,135.4z"/>
		<path class="st2" d="M201.9,127.8L201.9,127.8c0.1-0.5,0.1-1,0.1-1.6c0-0.3,0-0.5,0.1-0.8c0-0.6,0.1-1.2,0.1-1.8
			c0-0.4,0-0.8,0-1.3c0-0.4,0-0.9,0-1.3c0-0.6,0-1.2-0.1-1.8c0-0.3,0-0.5-0.1-0.8c0-0.5-0.1-1-0.1-1.6l0,0c0-0.3,0-0.6-0.1-0.9
			l-4.1,0.9c0.1,0.8,0.2,1.5,0.2,2.3c0,0.2,0,0.3,0,0.5c0,0.6,0,1.1,0.1,1.7c0,0.3,0,0.7,0,1c0,0.3,0,0.7,0,1c0,0.6,0,1.2-0.1,1.7
			c0,0.1,0,0.3,0,0.4c-0.1,0.8-0.1,1.5-0.2,2.3l4.1,0.9C201.9,128.3,201.9,128,201.9,127.8z"/>
		<path class="st2" d="M199.5,105.8c0-0.1-0.1-0.3-0.1-0.4c-1.1-3.1-2.4-6-3.9-8.8L192,99c0.1,0.2,0.2,0.5,0.4,0.7l0,0
			c1.2,2.2,2.2,4.6,3.1,7c0,0,0,0,0,0.1c0.3,0.8,0.5,1.6,0.8,2.4l4.1-0.8c-0.1-0.3-0.2-0.5-0.3-0.8l0,0
			C199.9,107,199.7,106.4,199.5,105.8z"/>
		<path class="st2" d="M81.1,113.4L81.1,113.4c-0.1,0.6-0.1,1.2-0.2,1.8c-0.1,0.8-0.2,1.6-0.2,2.4c-0.1,0.8-0.1,1.5-0.1,2.3
			c0,0.8-0.1,1.6-0.1,2.4c0,0.8,0,1.6,0.1,2.4c0,0.8,0,1.5,0.1,2.3c0.1,0.8,0.1,1.6,0.2,2.4c0.1,0.6,0.1,1.2,0.2,1.8l0,0
			c0,0.4,0.1,0.8,0.1,1.1l4.1-0.8c-0.1-0.9-0.2-1.9-0.3-2.8c-0.1-0.7-0.1-1.3-0.2-2c0-0.7-0.1-1.5-0.1-2.2c0-0.7-0.1-1.4-0.1-2.1
			c0-0.7,0-1.4,0.1-2.1c0-0.7,0-1.5,0.1-2.2c0-0.7,0.1-1.3,0.2-2c0.1-0.9,0.2-1.9,0.3-2.8l-4.1-0.8
			C81.1,112.7,81.1,113.1,81.1,113.4z"/>
		<path class="st2" d="M83.6,142.8c0.2,0.5,0.3,1,0.5,1.5c0.4,1.3,0.9,2.5,1.4,3.7c0.1,0.2,0.1,0.3,0.2,0.5c1.3,3.2,2.9,6.4,4.6,9.3
			l3.5-2.3c-0.2-0.3-0.3-0.6-0.5-0.9l0,0c-1.4-2.5-2.6-5-3.7-7.6c0-0.1-0.1-0.2-0.1-0.3c-0.5-1.2-0.9-2.3-1.3-3.5
			c-0.1-0.4-0.3-0.8-0.4-1.2c-0.3-1.1-0.7-2.1-0.9-3.2l-4.1,0.8c0.1,0.4,0.2,0.7,0.3,1.1l0,0C83.1,141.3,83.4,142.1,83.6,142.8z"/>
		<path class="st2" d="M86.8,105.8c0.3-1.1,0.6-2.1,0.9-3.2c0.1-0.4,0.2-0.8,0.4-1.2c0.4-1.2,0.8-2.4,1.3-3.5c0-0.1,0.1-0.2,0.1-0.3
			c1.1-2.6,2.3-5.2,3.7-7.6l0,0c0.2-0.3,0.3-0.6,0.5-0.9l-3.5-2.3c-1.8,3-3.3,6.1-4.6,9.3c-0.1,0.2-0.1,0.4-0.2,0.6
			c-0.5,1.2-0.9,2.4-1.4,3.7c-0.2,0.5-0.3,1-0.5,1.5c-0.2,0.7-0.5,1.5-0.7,2.2l0,0c-0.1,0.4-0.2,0.7-0.3,1.1L86.8,105.8z"/>
		<path class="st2" d="M128.2,56.1c-1.3,0.4-2.5,0.9-3.7,1.4c-0.2,0.1-0.3,0.1-0.5,0.2c-3.3,1.3-6.4,2.9-9.3,4.6l2.3,3.5
			c0.3-0.2,0.6-0.3,0.9-0.5l0,0c2.5-1.4,5-2.6,7.6-3.7c0.1,0,0.2-0.1,0.3-0.1c1.2-0.5,2.3-0.9,3.5-1.3c0.4-0.1,0.8-0.3,1.2-0.4
			c1-0.3,2.1-0.7,3.2-0.9l-0.8-4.1c-0.4,0.1-0.7,0.2-1.1,0.3l0,0c-0.8,0.2-1.5,0.5-2.3,0.7C129.2,55.8,128.7,56,128.2,56.1z"/>
		<path class="st2" d="M195.3,69.1c-0.8-0.7-1.6-1.4-2.4-2l0,0.1c-0.3-0.2-0.6-0.5-0.9-0.7l-2.3,3.5c1,0.8,2,1.6,3,2.4
			c0.2,0.1,0.4,0.3,0.5,0.4c0.7,0.6,1.4,1.3,2.1,1.9c0.4,0.4,0.9,0.8,1.3,1.2c0.4,0.4,0.8,0.8,1.2,1.3c0.7,0.7,1.3,1.4,2,2.1
			c0.1,0.2,0.3,0.3,0.4,0.5c0.8,1,1.6,2,2.4,3l3.5-2.3c-0.2-0.3-0.5-0.6-0.7-0.9l0,0c-0.6-0.8-1.3-1.6-2-2.4
			c-0.2-0.2-0.3-0.4-0.4-0.5c-0.7-0.8-1.4-1.6-2.1-2.3c-0.4-0.5-0.9-1-1.4-1.4c-0.4-0.4-0.9-0.9-1.3-1.3c-0.8-0.7-1.6-1.5-2.4-2.2
			C195.6,69.4,195.5,69.2,195.3,69.1z"/>
		<path class="st2" d="M159.1,53.1c-0.6-0.1-1.2-0.1-1.8-0.2c-0.8-0.1-1.6-0.2-2.4-0.2c-0.8-0.1-1.5-0.1-2.3-0.1
			c-0.8,0-1.6-0.1-2.4-0.1c-0.8,0-1.6,0-2.4,0.1c-0.8,0-1.5,0-2.3,0.1c-0.8,0.1-1.6,0.1-2.4,0.2c-0.6,0.1-1.2,0.1-1.8,0.2l0,0
			c-0.4,0-0.8,0.1-1.1,0.1l0.8,4.1c0.9-0.1,1.9-0.2,2.8-0.3c0.7-0.1,1.3-0.1,2-0.2c0.7,0,1.5-0.1,2.2-0.1c0.7,0,1.4-0.1,2.1-0.1
			c0.7,0,1.4,0,2.1,0.1c0.7,0,1.5,0,2.2,0.1c0.7,0,1.3,0.1,2,0.2c0.9,0.1,1.9,0.2,2.8,0.3l0.8-4.1C159.8,53.2,159.4,53.2,159.1,53.1
			L159.1,53.1z"/>
		<path class="st2" d="M215.7,126.6c0,0.7-0.1,1.3-0.2,2c-0.1,0.9-0.2,1.9-0.3,2.8l4.1,0.8c0.1-0.4,0.1-0.8,0.1-1.1l0,0
			c0.1-0.6,0.1-1.2,0.2-1.8c0.1-0.8,0.2-1.6,0.2-2.4c0.1-0.8,0.1-1.5,0.1-2.3c0-0.8,0.1-1.6,0.1-2.4c0-0.8,0-1.6-0.1-2.4
			c0-0.8,0-1.5-0.1-2.3c-0.1-0.8-0.1-1.6-0.2-2.4c-0.1-0.6-0.1-1.2-0.2-1.8l0,0c0-0.4-0.1-0.8-0.1-1.1l-4.1,0.8
			c0.1,0.9,0.2,1.9,0.3,2.8c0.1,0.7,0.1,1.3,0.2,2c0,0.7,0.1,1.5,0.1,2.2c0,0.7,0.1,1.4,0.1,2.1c0,0.7,0,1.4-0.1,2.1
			C215.7,125.1,215.7,125.8,215.7,126.6z"/>
		<path class="st2" d="M216.9,101.7c-0.2-0.5-0.3-1-0.5-1.5c-0.4-1.2-0.9-2.5-1.4-3.7c-0.1-0.2-0.1-0.4-0.2-0.6
			c-1.3-3.2-2.8-6.4-4.6-9.3l-3.5,2.3c0.2,0.3,0.3,0.6,0.5,0.9l0,0c1.4,2.5,2.6,5,3.7,7.6c0,0.1,0.1,0.2,0.1,0.3
			c0.5,1.2,0.9,2.3,1.3,3.5c0.1,0.4,0.3,0.8,0.4,1.2c0.3,1.1,0.7,2.1,0.9,3.2l4.1-0.8c-0.1-0.4-0.2-0.7-0.3-1.1l0,0
			C217.3,103.2,217.1,102.5,216.9,101.7z"/>
		<path class="st2" d="M67.5,133.5c-0.1-0.9-0.2-1.7-0.3-2.6c0-0.2,0-0.3,0-0.5c-0.1-0.8-0.1-1.6-0.2-2.4c0-0.3,0-0.5,0-0.8
			c0-0.7-0.1-1.4-0.1-2.1c0-0.4,0-0.8,0-1.2c0-0.5,0-1.1,0-1.6c0-0.6,0-1.1,0-1.7c0-0.4,0-0.8,0-1.2c0-0.7,0.1-1.4,0.1-2.1
			c0-0.3,0-0.5,0-0.8c0.1-0.8,0.1-1.6,0.2-2.4c0-0.2,0-0.3,0-0.5c0.1-0.9,0.2-1.8,0.3-2.6c0.1-0.5,0.1-1,0.2-1.5l-4.2-0.9
			c-0.1,0.5-0.1,1-0.2,1.4l0,0c0,0.3-0.1,0.5-0.1,0.8c-0.1,0.6-0.2,1.2-0.2,1.8c-0.1,0.5-0.1,1-0.1,1.4c-0.1,0.6-0.1,1.2-0.2,1.8
			c0,0.5-0.1,1-0.1,1.5c0,0.6-0.1,1.1-0.1,1.7c0,0.5,0,1,0,1.6c0,0.5,0,1.1,0,1.6c0,0.5,0,1.1,0,1.6c0,0.5,0,1.1,0,1.6
			c0,0.6,0.1,1.1,0.1,1.7c0,0.5,0.1,1,0.1,1.5c0,0.6,0.1,1.2,0.1,1.7c0,0.5,0.1,1,0.1,1.4c0.1,0.6,0.1,1.2,0.2,1.8
			c0,0.3,0.1,0.5,0.1,0.8l0,0c0.1,0.5,0.1,0.9,0.2,1.4l4.2-0.9C67.7,134.5,67.6,134,67.5,133.5z"/>
		<path class="st2" d="M69.2,102.5c1.9-7.9,5-15.4,9.1-22.4l0,0c0.2-0.4,0.5-0.8,0.7-1.2l-3.5-2.4c-4.4,7.2-7.9,15.2-10.1,23.8l0,0
			c-0.1,0.5-0.3,0.9-0.4,1.4L69.2,102.5z"/>
		<path class="st2" d="M108.1,50.3L108.1,50.3c7-4,14.5-7.1,22.4-9.1l-0.8-4.2c-0.5,0.1-0.9,0.2-1.4,0.4l0,0
			c-8.6,2.2-16.5,5.7-23.8,10.1l2.4,3.5C107.3,50.7,107.7,50.5,108.1,50.3z"/>
		<path class="st2" d="M82.9,73c1.8-2.4,3.6-4.7,5.6-6.9c0.1-0.1,0.1-0.2,0.2-0.2c0.5-0.6,1-1.1,1.6-1.7c0.3-0.3,0.6-0.6,0.9-0.9
			c0.3-0.3,0.6-0.6,0.9-0.9c0.5-0.5,1.1-1,1.6-1.5c0.1-0.1,0.2-0.2,0.3-0.2c2.2-2,4.5-3.9,6.9-5.6l-2.3-3.6
			c-0.4,0.3-0.8,0.6-1.1,0.9l0,0c-1.3,1-2.6,2-3.8,3.1c0,0-0.1,0.1-0.1,0.1c-0.7,0.6-1.4,1.2-2.1,1.8c-0.2,0.2-0.4,0.4-0.6,0.5
			c-0.5,0.5-1,1-1.5,1.5c-0.3,0.3-0.7,0.7-1,1c-0.3,0.3-0.7,0.7-1,1.1c-0.5,0.5-1,1-1.4,1.5c-0.2,0.2-0.4,0.4-0.6,0.6
			c-0.6,0.7-1.2,1.4-1.8,2c0,0-0.1,0.1-0.1,0.1c-1.1,1.3-2.1,2.5-3.1,3.8l0,0c-0.3,0.4-0.6,0.8-0.9,1.1L82.9,73z"/>
		<path class="st2" d="M220.3,69.5c-1-1.3-2-2.6-3.1-3.8c0,0-0.1-0.1-0.1-0.1c-0.6-0.7-1.2-1.4-1.8-2c-0.2-0.2-0.4-0.4-0.6-0.6
			c-0.5-0.5-0.9-1-1.4-1.5c-0.3-0.4-0.7-0.7-1-1.1c-0.3-0.3-0.7-0.7-1-1c-0.5-0.5-1-1-1.5-1.5c-0.2-0.2-0.4-0.4-0.6-0.5
			c-0.7-0.6-1.4-1.2-2.1-1.8c0,0-0.1-0.1-0.1-0.1c-1.3-1.1-2.5-2.1-3.8-3.1l0,0c-0.4-0.3-0.8-0.6-1.1-0.9l-2.3,3.6
			c2.4,1.7,4.7,3.6,6.9,5.6c0.1,0.1,0.2,0.2,0.3,0.2c0.5,0.5,1.1,1,1.6,1.5c0.3,0.3,0.6,0.6,0.9,0.9c0.3,0.3,0.6,0.6,0.9,0.9
			c0.5,0.5,1.1,1.1,1.6,1.7c0.1,0.1,0.1,0.2,0.2,0.2c2,2.2,3.9,4.5,5.6,6.9l3.6-2.3C220.8,70.2,220.5,69.9,220.3,69.5L220.3,69.5z"
			/>
		<path class="st2" d="M192.4,50.3c0.4,0.2,0.8,0.5,1.2,0.7l2.4-3.5c-7.2-4.4-15.2-7.9-23.8-10.1l0,0c-0.5-0.1-0.9-0.3-1.4-0.4
			l-0.8,4.2C177.9,43.1,185.4,46.2,192.4,50.3L192.4,50.3z"/>
		<path class="st2" d="M231.3,142c-1.9,7.9-5,15.4-9.1,22.4l0,0c-0.2,0.4-0.5,0.8-0.7,1.2l3.5,2.4c4.4-7.2,7.9-15.2,10.1-23.8l0,0
			c0.1-0.5,0.3-0.9,0.4-1.4L231.3,142z"/>
		<path class="st2" d="M237.9,120.6c0-0.5,0-1,0-1.6c0-0.6-0.1-1.1-0.1-1.7c0-0.5-0.1-1-0.1-1.5c0-0.6-0.1-1.2-0.2-1.8
			c0-0.5-0.1-1-0.1-1.4c-0.1-0.6-0.1-1.2-0.2-1.8c0-0.3-0.1-0.5-0.1-0.8l0,0c-0.1-0.5-0.1-0.9-0.2-1.4l-4.2,0.9
			c0.1,0.5,0.1,1,0.2,1.5c0.1,0.9,0.2,1.7,0.3,2.6c0,0.2,0,0.3,0,0.5c0.1,0.8,0.1,1.6,0.2,2.4c0,0.3,0,0.5,0,0.8
			c0,0.7,0.1,1.4,0.1,2.1c0,0.4,0,0.8,0,1.2c0,0.6,0,1.1,0,1.7c0,0.6,0,1.1,0,1.7c0,0.4,0,0.8,0,1.2c0,0.7-0.1,1.4-0.1,2.1
			c0,0.3,0,0.5,0,0.8c-0.1,0.8-0.1,1.6-0.2,2.4c0,0.2,0,0.3,0,0.5c-0.1,0.9-0.2,1.7-0.3,2.6c-0.1,0.5-0.1,1-0.2,1.5l4.2,0.9
			c0.1-0.5,0.1-1,0.2-1.4l0,0c0-0.3,0.1-0.5,0.1-0.8c0.1-0.6,0.2-1.2,0.2-1.8c0.1-0.5,0.1-1,0.1-1.4c0.1-0.6,0.1-1.2,0.1-1.7
			c0-0.5,0.1-1,0.1-1.5c0-0.6,0.1-1.1,0.1-1.7c0-0.5,0-1,0-1.6c0-0.5,0-1.1,0-1.6C238,121.7,238,121.2,237.9,120.6z"/>
		<path class="st2" d="M117.6,81.9L117.6,81.9c-0.4,0.3-0.8,0.7-1.3,1c-0.2,0.2-0.4,0.3-0.5,0.5c-0.5,0.4-0.9,0.8-1.4,1.3
			c-0.3,0.3-0.6,0.6-0.9,0.9c-0.3,0.3-0.6,0.6-0.9,1c-0.4,0.4-0.8,0.9-1.2,1.3c-0.2,0.2-0.3,0.4-0.5,0.6c-0.3,0.4-0.7,0.8-1,1.2l0,0
			c-0.2,0.2-0.4,0.4-0.5,0.7l3.5,2.3c0.4-0.5,0.9-1,1.3-1.6c0.2-0.2,0.3-0.4,0.5-0.6c0.3-0.4,0.7-0.7,1-1.1c0.3-0.3,0.5-0.6,0.8-0.8
			c0.3-0.3,0.6-0.5,0.8-0.8c0.4-0.3,0.7-0.7,1.1-1c0.2-0.2,0.4-0.4,0.6-0.5c0.5-0.4,1-0.9,1.6-1.3l-2.3-3.5
			C118,81.5,117.8,81.7,117.6,81.9z"/>
		<path class="st2" d="M135.5,72.4L135.5,72.4c-0.6,0.1-1.2,0.4-1.8,0.5c-0.1,0-0.2,0.1-0.3,0.1c-3.1,1.1-6,2.4-8.8,3.9l2.4,3.5
			c0.2-0.1,0.5-0.2,0.7-0.4l0,0c2.2-1.2,4.6-2.2,7-3.1c0,0,0.1,0,0.1,0c0.8-0.3,1.6-0.5,2.4-0.8l-0.8-4.1
			C136.1,72.2,135.8,72.3,135.5,72.4z"/>
		<path class="st2" d="M210.2,157.9c1.8-3,3.3-6.1,4.6-9.3c0.1-0.2,0.1-0.3,0.2-0.5c0.5-1.2,0.9-2.4,1.4-3.7c0.2-0.5,0.3-1,0.5-1.5
			c0.2-0.7,0.5-1.5,0.7-2.2l0,0c0.1-0.4,0.2-0.7,0.3-1.1l-4.1-0.8c-0.3,1.1-0.6,2.1-0.9,3.2c-0.1,0.4-0.2,0.8-0.4,1.2
			c-0.4,1.2-0.8,2.4-1.3,3.5c0,0.1-0.1,0.2-0.1,0.3c-1.1,2.6-2.3,5.2-3.7,7.6l0,0c-0.2,0.3-0.3,0.6-0.5,0.9L210.2,157.9z"/>
		<path class="st2" d="M171.1,60.1c1.2,0.4,2.3,0.8,3.5,1.3c0.1,0,0.2,0.1,0.3,0.1c2.6,1.1,5.2,2.3,7.6,3.7l0,0
			c0.3,0.2,0.6,0.3,0.9,0.5l2.3-3.5c-3-1.8-6.1-3.3-9.3-4.6c-0.2-0.1-0.3-0.1-0.5-0.2c-1.2-0.5-2.5-1-3.7-1.4
			c-0.5-0.2-1-0.3-1.5-0.5c-0.8-0.2-1.5-0.5-2.3-0.7l0,0c-0.4-0.1-0.7-0.2-1.1-0.3l-0.8,4.1c1.1,0.3,2.1,0.6,3.2,0.9
			C170.2,59.8,170.7,60,171.1,60.1z"/>
		<path class="st2" d="M97.5,76.7c-0.2,0.2-0.3,0.4-0.4,0.5c-0.7,0.8-1.3,1.5-2,2.3l0,0c-0.2,0.3-0.5,0.6-0.7,0.9l3.5,2.3
			c0.8-1,1.6-2,2.4-3c0.1-0.2,0.3-0.3,0.4-0.5c0.6-0.7,1.3-1.4,2-2.1c0.4-0.4,0.8-0.9,1.2-1.3c0.4-0.4,0.9-0.8,1.3-1.2
			c0.7-0.7,1.4-1.3,2.1-1.9c0.2-0.1,0.3-0.3,0.5-0.4c1-0.8,2-1.6,3-2.4l-2.3-3.5c-0.3,0.2-0.6,0.5-0.9,0.7l0-0.1
			c-0.8,0.6-1.6,1.3-2.4,2c-0.2,0.1-0.3,0.3-0.5,0.4c-0.8,0.7-1.6,1.4-2.4,2.2c-0.4,0.4-0.9,0.8-1.3,1.3c-0.5,0.5-0.9,0.9-1.4,1.4
			C98.9,75.1,98.2,75.9,97.5,76.7z"/>
		<path class="st2" d="M222.2,80.1c4.1,6.9,7.1,14.5,9.1,22.4l4.2-0.8c-0.1-0.5-0.2-0.9-0.4-1.4l0,0c-2.2-8.6-5.7-16.5-10.1-23.8
			l-3.5,2.4C221.8,79.3,222,79.7,222.2,80.1L222.2,80.1z"/>
		<path class="st2" d="M78.2,164.4c-4.1-6.9-7.1-14.5-9.1-22.4l-4.2,0.8c0.1,0.5,0.2,0.9,0.4,1.4l0,0c2.2,8.6,5.7,16.5,10.1,23.8
			l3.5-2.4C78.7,165.2,78.5,164.8,78.2,164.4L78.2,164.4z"/>
		<path class="st2" d="M162.4,35.4L162.4,35.4c-0.3,0-0.5-0.1-0.8-0.1c-0.6-0.1-1.2-0.2-1.8-0.2c-0.5-0.1-1-0.1-1.4-0.1
			c-0.6-0.1-1.2-0.1-1.7-0.1c-0.5,0-1-0.1-1.5-0.1c-0.6,0-1.1-0.1-1.7-0.1c-0.5,0-1.1,0-1.6,0c-0.5,0-1.1,0-1.6,0
			c-0.5,0-1.1,0-1.6,0c-0.5,0-1.1,0-1.6,0c-0.6,0-1.1,0.1-1.7,0.1c-0.5,0-1,0.1-1.5,0.1c-0.6,0-1.2,0.1-1.7,0.1
			c-0.5,0-1,0.1-1.4,0.1c-0.6,0.1-1.2,0.1-1.8,0.2c-0.3,0-0.5,0.1-0.8,0.1l0,0c-0.5,0.1-0.9,0.1-1.4,0.2l0.9,4.2
			c0.5-0.1,1-0.1,1.5-0.2c0.9-0.1,1.7-0.2,2.6-0.3c0.2,0,0.3,0,0.5,0c0.8-0.1,1.6-0.1,2.4-0.2c0.3,0,0.5,0,0.8,0
			c0.7,0,1.4-0.1,2.1-0.1c0.4,0,0.8,0,1.2,0c0.6,0,1.1,0,1.7,0c0.6,0,1.1,0,1.7,0c0.4,0,0.8,0,1.2,0c0.7,0,1.4,0.1,2.1,0.1
			c0.3,0,0.5,0,0.8,0c0.8,0.1,1.6,0.1,2.4,0.2c0.2,0,0.3,0,0.5,0c0.9,0.1,1.7,0.2,2.6,0.3c0.5,0.1,1,0.1,1.5,0.2l0.9-4.2
			C163.4,35.5,162.9,35.5,162.4,35.4z"/>
		<path class="st2" d="M89.3,185.3c0.5,0.5,1,1,1.5,1.5c0.2,0.2,0.4,0.4,0.6,0.5c0.7,0.6,1.4,1.2,2.1,1.8c0,0,0.1,0.1,0.1,0.1
			c1.3,1.1,2.5,2.1,3.8,3.1l0,0c0.3,0.2,0.6,0.5,0.9,0.7l1.2-4.5c-1.9-1.4-3.7-2.9-5.5-4.5c-0.1-0.1-0.2-0.2-0.3-0.3
			c-0.5-0.5-1.1-1-1.6-1.5c-0.3-0.3-0.7-0.6-1-1c-0.3-0.3-0.6-0.6-0.8-0.9c-0.5-0.6-1.1-1.1-1.6-1.7c-0.1-0.1-0.1-0.1-0.2-0.2
			c-2-2.2-3.9-4.5-5.7-6.9l-3.6,2.3c0.3,0.4,0.6,0.8,0.9,1.1l0,0c1,1.3,2,2.6,3.1,3.8c0,0,0.1,0.1,0.1,0.1c0.6,0.7,1.2,1.4,1.8,2.1
			c0.2,0.2,0.4,0.4,0.6,0.6c0.5,0.5,1,1,1.4,1.5c0.3,0.4,0.7,0.7,1,1C88.6,184.6,88.9,185,89.3,185.3z"/>
		<path class="st2" d="M103.4,173.9l1.2-4.6c-2.2-2.1-4.2-4.3-6.1-6.7l-3.5,2.3C97.6,168.2,100.4,171.2,103.4,173.9z"/>
		<path class="st2" d="M198,173c0.4-0.4,0.8-0.8,1.2-1.2c0.2-0.2,0.3-0.4,0.5-0.5c0.7-0.7,1.4-1.4,2.1-2.2c0.6-0.6,1.1-1.3,1.7-1.9
			c0.2-0.3,0.4-0.5,0.7-0.8c0.4-0.5,0.8-1,1.2-1.5l0,0c0.2-0.3,0.5-0.6,0.7-0.9l-3.5-2.3c-0.7,0.9-1.4,1.9-2.2,2.7
			c0,0-0.1,0.1-0.1,0.1c-0.6,0.8-1.3,1.5-2,2.2c-0.2,0.2-0.5,0.5-0.7,0.7c-0.3,0.3-0.5,0.5-0.8,0.8L198,173z"/>
		<path class="st2" d="M221.1,173.9l-3.6-2.3c-1.8,2.4-3.6,4.7-5.7,6.9c-0.1,0.1-0.1,0.1-0.2,0.2c-0.5,0.6-1.1,1.1-1.6,1.7
			c-0.3,0.3-0.6,0.6-0.8,0.9c-0.3,0.3-0.7,0.7-1,1c-0.5,0.5-1,1-1.6,1.5c-0.1,0.1-0.2,0.2-0.3,0.3c-1.5,1.3-3,2.6-4.5,3.8l1.2,4.5
			c1.3-1,2.6-2,3.8-3.1c0,0,0.1-0.1,0.1-0.1c0.7-0.6,1.4-1.2,2.1-1.8c0.2-0.2,0.4-0.4,0.6-0.5c0.5-0.5,1-1,1.5-1.5
			c0.3-0.3,0.7-0.7,1-1c0.3-0.3,0.7-0.7,1-1c0.5-0.5,1-1,1.4-1.5c0.2-0.2,0.4-0.4,0.6-0.6c0.6-0.7,1.2-1.4,1.8-2.1
			c0,0,0.1-0.1,0.1-0.1c1.1-1.3,2.1-2.5,3.1-3.8l0,0C220.5,174.7,220.8,174.3,221.1,173.9z"/>
	</g>
	<path class="st5" d="M216.4,281.1l-14.9-56l-25.7-25.7v49c0,2.8-2.3,5.1-5.1,5.1h-39.5c-2.9,0-5.5-2.4-5.5-5.1v-49.1L100,225
		l-6.6,24.8l-1,3.9l-7.2,27.3c-0.1,0.3-0.1,0.6-0.1,1c0,2,1.6,3.6,3.6,3.6h10.1h104.2H213c2,0,3.6-1.6,3.6-3.6
		C216.5,281.7,216.5,281.4,216.4,281.1z"/>
</g>
</svg>
