<?xml version="1.0" encoding="utf-8"?>
<!-- Generator: Adobe Illustrator 21.0.0, SVG Export Plug-In . SVG Version: 6.00 Build 0)  -->
<svg version="1.1" id="Слой_1" xmlns="http://www.w3.org/2000/svg" xmlns:xlink="http://www.w3.org/1999/xlink" x="0px" y="0px"
	 viewBox="0 0 300 300" style="enable-background:new 0 0 300 300;" xml:space="preserve">
<style type="text/css">
	.st0{fill:#48443E;}
	.st1{fill:#AFAEAE;stroke:#201600;stroke-width:4.2706;stroke-miterlimit:10;}
	.st2{fill:#201600;}
	.st3{fill:#E2E2E2;}
	.st4{fill:#000105;}
</style>
<g>
	<rect x="63.7" y="62.9" class="st0" width="173.8" height="167.4"/>
	<path class="st1" d="M238.9,55.8H62.3c-3.2,0-5.8,2.6-5.8,5.8v176.5c0,3.2,2.6,5.8,5.8,5.8h176.5c3.2,0,5.8-2.6,5.8-5.8V61.6
		C244.6,58.4,242,55.8,238.9,55.8z M112.4,67.1h30.3v8.8h-30.3V67.1z M71.2,144.7H230V220H71.2V144.7z"/>
	<rect x="116.5" y="99.2" class="st2" width="22.5" height="32.7"/>
	<polygon class="st3" points="135.4,102.3 122.1,102.3 121.3,102.8 124,104.8 133,104.8 136.5,103.1 	"/>
	<polygon class="st3" points="119.5,128.9 132.2,128.9 132.9,128.4 130.4,126.5 121.8,126.5 118.5,128.1 	"/>
	<polygon class="st3" points="132.2,117.7 131.2,125.9 133.4,127.3 133.5,127.3 134.7,116.5 	"/>
	<polygon class="st3" points="134.8,115.4 136.1,104.3 133.6,105.6 132.6,113.8 	"/>
	<polygon class="st3" points="133.8,115.8 132.1,114.6 123.1,114.6 120.9,115.7 121.9,116.4 122.8,117 131.4,117 	"/>
	<circle class="st2" cx="168.6" cy="131.5" r="3.9"/>
	<circle class="st2" cx="150.1" cy="131.5" r="3.9"/>
	<g>
		<rect x="78.2" y="153.8" class="st1" width="13.1" height="15.2"/>
		<rect x="97" y="153.8" class="st1" width="13.1" height="15.2"/>
		<rect x="115.8" y="153.8" class="st1" width="13.1" height="15.2"/>
		<rect x="134.6" y="153.8" class="st1" width="13.1" height="15.2"/>
		<rect x="153.4" y="153.8" class="st1" width="13.1" height="15.2"/>
		<rect x="172.2" y="153.8" class="st1" width="13.1" height="15.2"/>
		<rect x="190.9" y="153.8" class="st1" width="13.1" height="15.2"/>
		<rect x="209.7" y="153.8" class="st1" width="13.1" height="15.2"/>
		<rect x="78.2" y="175.1" class="st1" width="13.1" height="15.2"/>
		<rect x="97" y="175.1" class="st1" width="13.1" height="15.2"/>
		<rect x="115.8" y="175.1" class="st1" width="13.1" height="15.2"/>
		<rect x="134.6" y="175.1" class="st1" width="13.1" height="15.2"/>
		<rect x="153.4" y="175.1" class="st1" width="13.1" height="15.2"/>
		<rect x="172.2" y="175.1" class="st1" width="13.1" height="15.2"/>
		<rect x="190.9" y="175.1" class="st1" width="13.1" height="15.2"/>
		<rect x="209.7" y="175.1" class="st1" width="13.1" height="15.2"/>
		<rect x="78.2" y="196.4" class="st1" width="13.1" height="15.2"/>
		<rect x="97" y="196.4" class="st1" width="13.1" height="15.2"/>
		<rect x="115.8" y="196.4" class="st1" width="13.1" height="15.2"/>
		<rect x="134.6" y="196.4" class="st1" width="13.1" height="15.2"/>
		<rect x="153.4" y="196.4" class="st1" width="13.1" height="15.2"/>
		<rect x="172.2" y="196.4" class="st1" width="13.1" height="15.2"/>
		<rect x="190.9" y="196.4" class="st1" width="13.1" height="15.2"/>
		<rect x="209.7" y="196.4" class="st1" width="13.1" height="15.2"/>
	</g>
	<polygon class="st4" points="78.2,160.3 78.2,153.8 84.7,153.8 	"/>
	<polygon class="st4" points="97,160.3 97,153.8 103.5,153.8 	"/>
	<polygon class="st4" points="115.8,160.3 115.8,153.8 122.3,153.8 	"/>
	<polygon class="st4" points="134.6,160.3 134.6,153.8 141.1,153.8 	"/>
	<polygon class="st4" points="153.4,160.3 153.4,153.8 159.9,153.8 	"/>
	<polygon class="st4" points="172.2,160.3 172.2,153.8 178.7,153.8 	"/>
	<polygon class="st4" points="190.9,160.3 190.9,153.8 197.5,153.8 	"/>
	<polygon class="st4" points="209.7,160.3 209.7,153.8 216.3,153.8 	"/>
	<polygon class="st4" points="78.6,181.6 78.6,175.1 85.1,175.1 	"/>
	<polygon class="st4" points="97.4,181.6 97.4,175.1 103.9,175.1 	"/>
	<polygon class="st4" points="116.2,181.6 116.2,175.1 122.7,175.1 	"/>
	<polygon class="st4" points="135,181.6 135,175.1 141.5,175.1 	"/>
	<polygon class="st4" points="153.8,181.6 153.8,175.1 160.3,175.1 	"/>
	<polygon class="st4" points="172.6,181.6 172.6,175.1 179.1,175.1 	"/>
	<polygon class="st4" points="191.4,181.6 191.4,175.1 197.9,175.1 	"/>
	<polygon class="st4" points="210.2,181.6 210.2,175.1 216.7,175.1 	"/>
	<polygon class="st4" points="78.6,202.9 78.6,196.4 85.1,196.4 	"/>
	<polygon class="st4" points="97.4,202.9 97.4,196.4 103.9,196.4 	"/>
	<polygon class="st4" points="116.2,202.9 116.2,196.4 122.7,196.4 	"/>
	<polygon class="st4" points="135,202.9 135,196.4 141.5,196.4 	"/>
	<polygon class="st4" points="153.8,202.9 153.8,196.4 160.3,196.4 	"/>
	<polygon class="st4" points="172.6,202.9 172.6,196.4 179.1,196.4 	"/>
	<polygon class="st4" points="191.4,202.9 191.4,196.4 197.9,196.4 	"/>
	<polygon class="st4" points="210.2,202.9 210.2,196.4 216.7,196.4 	"/>
</g>
</svg>
