<?xml version="1.0" encoding="utf-8"?>
<!-- Generator: Adobe Illustrator 21.0.0, SVG Export Plug-In . SVG Version: 6.00 Build 0)  -->
<svg version="1.1" id="Слой_1" xmlns="http://www.w3.org/2000/svg" xmlns:xlink="http://www.w3.org/1999/xlink" x="0px" y="0px"
	 viewBox="0 0 300 300" style="enable-background:new 0 0 300 300;" xml:space="preserve">
<style type="text/css">
	.st0{fill:#725846;}
	.st1{fill:#4D5B9D;stroke:#000105;stroke-width:4.2706;stroke-miterlimit:10;}
	.st2{fill:#E8A754;stroke:#201600;stroke-width:4.2706;stroke-miterlimit:10;}
	.st3{fill:#000105;}
</style>
<g>
	<rect x="45.4" y="119.5" class="st0" width="206.3" height="86"/>
	<path class="st1" d="M34,92v25.4v90.3c0,0.2,0,0.5,0,0.7c0.4,3.6,3.5,6.4,7.2,6.4h0h217.1c3.8,0,6.9-2.8,7.2-6.4c0-0.2,0-0.5,0-0.7
		v-90.3V92c0-4-3.3-7.2-7.3-7.2l-88.5,0v0c-1.9,0-3.5,0.9-4.5,2.4h0l-3.7,5.5h0c-1,1.5-2.7,2.6-4.6,2.6c0,0-0.1,0-0.1,0H97.3
		c-1.9,0-3.6-1-4.5-2.5h0l-3.7-5.4c-1-1.5-2.7-2.5-4.6-2.5v0l-43.2,0C37.3,84.8,34,88,34,92z M53.3,196.9c-1.1,0-1.9-0.9-1.9-1.9
		v-56c0-1,0.9-1.9,1.9-1.9h193c1.1,0,1.9,0.9,1.9,1.9v56c0,1-0.9,1.9-1.9,1.9H53.3z"/>
	<g>
		<rect x="64.1" y="145.4" class="st2" width="15.5" height="18"/>
		<rect x="86.3" y="145.4" class="st2" width="15.5" height="18"/>
		<rect x="108.6" y="145.4" class="st2" width="15.5" height="18"/>
		<rect x="130.8" y="145.4" class="st2" width="15.5" height="18"/>
		<rect x="153" y="145.4" class="st2" width="15.5" height="18"/>
		<rect x="175.2" y="145.4" class="st2" width="15.5" height="18"/>
		<rect x="197.5" y="145.4" class="st2" width="15.5" height="18"/>
		<rect x="219.7" y="145.4" class="st2" width="15.5" height="18"/>
		<rect x="64.1" y="170.6" class="st2" width="15.5" height="18"/>
		<rect x="86.3" y="170.6" class="st2" width="15.5" height="18"/>
		<rect x="108.6" y="170.6" class="st2" width="15.5" height="18"/>
		<rect x="130.8" y="170.6" class="st2" width="15.5" height="18"/>
		<rect x="153" y="170.6" class="st2" width="15.5" height="18"/>
		<rect x="175.2" y="170.6" class="st2" width="15.5" height="18"/>
		<rect x="197.5" y="170.6" class="st2" width="15.5" height="18"/>
		<rect x="219.7" y="170.6" class="st2" width="15.5" height="18"/>
	</g>
	<polygon class="st3" points="64.1,153.1 64.1,145.4 71.9,145.4 	"/>
	<polygon class="st3" points="86.3,153.1 86.3,145.4 94.1,145.4 	"/>
	<polygon class="st3" points="108.6,153.1 108.6,145.4 116.3,145.4 	"/>
	<polygon class="st3" points="130.8,153.1 130.8,145.4 138.5,145.4 	"/>
	<polygon class="st3" points="153,153.1 153,145.4 160.8,145.4 	"/>
	<polygon class="st3" points="175.2,153.1 175.2,145.4 183,145.4 	"/>
	<polygon class="st3" points="197.5,153.1 197.5,145.4 205.2,145.4 	"/>
	<polygon class="st3" points="219.7,153.1 219.7,145.4 227.4,145.4 	"/>
	<polygon class="st3" points="64.6,178.3 64.6,170.6 72.4,170.6 	"/>
	<polygon class="st3" points="86.9,178.3 86.9,170.6 94.6,170.6 	"/>
	<polygon class="st3" points="109.1,178.3 109.1,170.6 116.8,170.6 	"/>
	<polygon class="st3" points="131.3,178.3 131.3,170.6 139,170.6 	"/>
	<polygon class="st3" points="153.5,178.3 153.5,170.6 161.3,170.6 	"/>
	<polygon class="st3" points="175.7,178.3 175.7,170.6 183.5,170.6 	"/>
	<polygon class="st3" points="198,178.3 198,170.6 205.7,170.6 	"/>
	<polygon class="st3" points="220.2,178.3 220.2,170.6 227.9,170.6 	"/>
</g>
</svg>
