<?xml version="1.0" encoding="utf-8"?>
<!-- Generator: Adobe Illustrator 21.0.0, SVG Export Plug-In . SVG Version: 6.00 Build 0)  -->
<svg version="1.1" id="Слой_1" xmlns="http://www.w3.org/2000/svg" xmlns:xlink="http://www.w3.org/1999/xlink" x="0px" y="0px"
	 viewBox="0 0 300 300" style="enable-background:new 0 0 300 300;" xml:space="preserve">
<style type="text/css">
	.st0{fill:#48443E;}
	.st1{fill:#AFAEAE;stroke:#201600;stroke-width:4.2706;stroke-miterlimit:10;}
	.st2{fill:#000105;}
	.st3{fill:#725846;}
	.st4{fill:#4D5B9D;stroke:#201600;stroke-width:4.2706;stroke-miterlimit:10;}
	.st5{fill:#201600;}
	.st6{fill:#D14A43;}
	.st7{fill:#E8A754;stroke:#201600;stroke-width:4.2706;stroke-miterlimit:10;}
	.st8{fill:#E2E2E2;}
	.st9{fill:#AFAEAE;stroke:#000000;stroke-width:4.2706;stroke-miterlimit:10;}
</style>
<g>
	<rect x="63.7" y="62.3" class="st0" width="173.8" height="167.4"/>
	<path class="st1" d="M238.9,55.2H62.3c-3.2,0-5.8,2.6-5.8,5.8v176.5c0,3.2,2.6,5.8,5.8,5.8h176.5c3.2,0,5.8-2.6,5.8-5.8V61
		C244.6,57.8,242,55.2,238.9,55.2z M112.4,66.5h30.3v8.8h-30.3V66.5z M71.2,111.8H230v75.3H71.2V111.8z"/>
	<g>
		<rect x="78.2" y="120.6" class="st1" width="13.1" height="15.2"/>
		<rect x="97" y="120.6" class="st1" width="13.1" height="15.2"/>
		<rect x="115.8" y="120.6" class="st1" width="13.1" height="15.2"/>
		<rect x="134.6" y="120.6" class="st1" width="13.1" height="15.2"/>
		<rect x="153.4" y="120.6" class="st1" width="13.1" height="15.2"/>
		<rect x="172.2" y="120.6" class="st1" width="13.1" height="15.2"/>
		<rect x="190.9" y="120.6" class="st1" width="13.1" height="15.2"/>
		<rect x="209.7" y="120.6" class="st1" width="13.1" height="15.2"/>
		<rect x="78.2" y="141.9" class="st1" width="13.1" height="15.2"/>
		<rect x="97" y="141.9" class="st1" width="13.1" height="15.2"/>
		<rect x="115.8" y="141.9" class="st1" width="13.1" height="15.2"/>
		<rect x="134.6" y="141.9" class="st1" width="13.1" height="15.2"/>
		<rect x="153.4" y="141.9" class="st1" width="13.1" height="15.2"/>
		<rect x="172.2" y="141.9" class="st1" width="13.1" height="15.2"/>
		<rect x="190.9" y="141.9" class="st1" width="13.1" height="15.2"/>
		<rect x="209.7" y="141.9" class="st1" width="13.1" height="15.2"/>
		<rect x="78.2" y="163.2" class="st1" width="13.1" height="15.2"/>
		<rect x="97" y="163.2" class="st1" width="13.1" height="15.2"/>
		<rect x="115.8" y="163.2" class="st1" width="13.1" height="15.2"/>
		<rect x="134.6" y="163.2" class="st1" width="13.1" height="15.2"/>
		<rect x="153.4" y="163.2" class="st1" width="13.1" height="15.2"/>
		<rect x="172.2" y="163.2" class="st1" width="13.1" height="15.2"/>
		<rect x="190.9" y="163.2" class="st1" width="13.1" height="15.2"/>
		<rect x="209.7" y="163.2" class="st1" width="13.1" height="15.2"/>
	</g>
	<polygon class="st2" points="78.2,127.1 78.2,120.6 84.7,120.6 	"/>
	<polygon class="st2" points="97,127.1 97,120.6 103.5,120.6 	"/>
	<polygon class="st2" points="115.8,127.1 115.8,120.6 122.3,120.6 	"/>
	<polygon class="st2" points="134.6,127.1 134.6,120.6 141.1,120.6 	"/>
	<polygon class="st2" points="153.4,127.1 153.4,120.6 159.9,120.6 	"/>
	<polygon class="st2" points="172.2,127.1 172.2,120.6 178.7,120.6 	"/>
	<polygon class="st2" points="190.9,127.1 190.9,120.6 197.5,120.6 	"/>
	<polygon class="st2" points="209.7,127.1 209.7,120.6 216.3,120.6 	"/>
	<polygon class="st2" points="78.6,148.4 78.6,141.9 85.1,141.9 	"/>
	<polygon class="st2" points="97.4,148.4 97.4,141.9 103.9,141.9 	"/>
	<polygon class="st2" points="116.2,148.4 116.2,141.9 122.7,141.9 	"/>
	<polygon class="st2" points="135,148.4 135,141.9 141.5,141.9 	"/>
	<polygon class="st2" points="153.8,148.4 153.8,141.9 160.3,141.9 	"/>
	<polygon class="st2" points="172.6,148.4 172.6,141.9 179.1,141.9 	"/>
	<polygon class="st2" points="191.4,148.4 191.4,141.9 197.9,141.9 	"/>
	<polygon class="st2" points="210.2,148.4 210.2,141.9 216.7,141.9 	"/>
	<polygon class="st2" points="78.6,169.7 78.6,163.2 85.1,163.2 	"/>
	<polygon class="st2" points="97.4,169.7 97.4,163.2 103.9,163.2 	"/>
	<polygon class="st2" points="116.2,169.7 116.2,163.2 122.7,163.2 	"/>
	<polygon class="st2" points="135,169.7 135,163.2 141.5,163.2 	"/>
	<polygon class="st2" points="153.8,169.7 153.8,163.2 160.3,163.2 	"/>
	<polygon class="st2" points="172.6,169.7 172.6,163.2 179.1,163.2 	"/>
	<polygon class="st2" points="191.4,169.7 191.4,163.2 197.9,163.2 	"/>
	<polygon class="st2" points="210.2,169.7 210.2,163.2 216.7,163.2 	"/>
</g>
<g>
	<rect x="63.1" y="63" class="st3" width="173.8" height="167.4"/>
	<path class="st4" d="M238.3,55.9H61.8c-3.2,0-5.8,2.6-5.8,5.8v176.5c0,3.2,2.6,5.8,5.8,5.8h176.5c3.2,0,5.8-2.6,5.8-5.8V61.7
		C244.1,58.5,241.5,55.9,238.3,55.9z M111.8,67.2h30.3V76h-30.3V67.2z M70.6,144.8h158.9v75.3H70.6V144.8z"/>
	<rect x="116" y="99.3" class="st5" width="22.5" height="32.7"/>
	<polygon class="st6" points="134.8,102.4 121.5,102.4 120.8,102.9 123.5,104.9 132.4,104.9 135.9,103.2 	"/>
	<polygon class="st6" points="119,129 131.7,129 132.4,128.5 129.9,126.6 121.3,126.6 118,128.2 	"/>
	<polygon class="st6" points="131.6,117.8 130.7,126 132.9,127.4 132.9,127.4 134.2,116.6 	"/>
	<polygon class="st6" points="134.3,115.5 135.6,104.4 133,105.7 132.1,113.9 	"/>
	<polygon class="st6" points="133.3,115.9 131.5,114.7 122.6,114.7 120.4,115.8 121.4,116.5 122.3,117.1 130.8,117.1 	"/>
	<circle class="st5" cx="168.1" cy="131.6" r="3.9"/>
	<circle class="st5" cx="149.6" cy="131.6" r="3.9"/>
	<g>
		<rect x="77.6" y="153.8" class="st7" width="13.1" height="15.2"/>
		<rect x="96.4" y="153.8" class="st7" width="13.1" height="15.2"/>
		<rect x="115.2" y="153.8" class="st7" width="13.1" height="15.2"/>
		<rect x="134" y="153.8" class="st7" width="13.1" height="15.2"/>
		<rect x="152.8" y="153.8" class="st7" width="13.1" height="15.2"/>
		<rect x="171.6" y="153.8" class="st7" width="13.1" height="15.2"/>
		<rect x="190.4" y="153.8" class="st7" width="13.1" height="15.2"/>
		<rect x="209.2" y="153.8" class="st7" width="13.1" height="15.2"/>
		<rect x="77.6" y="175.2" class="st7" width="13.1" height="15.2"/>
		<rect x="96.4" y="175.2" class="st7" width="13.1" height="15.2"/>
		<rect x="115.2" y="175.2" class="st7" width="13.1" height="15.2"/>
		<rect x="134" y="175.2" class="st7" width="13.1" height="15.2"/>
		<rect x="152.8" y="175.2" class="st7" width="13.1" height="15.2"/>
		<rect x="171.6" y="175.2" class="st7" width="13.1" height="15.2"/>
		<rect x="190.4" y="175.2" class="st7" width="13.1" height="15.2"/>
		<rect x="209.2" y="175.2" class="st7" width="13.1" height="15.2"/>
		<rect x="77.6" y="196.4" class="st7" width="13.1" height="15.2"/>
		<rect x="96.4" y="196.4" class="st7" width="13.1" height="15.2"/>
		<rect x="115.2" y="196.4" class="st7" width="13.1" height="15.2"/>
		<rect x="134" y="196.4" class="st7" width="13.1" height="15.2"/>
		<rect x="152.8" y="196.4" class="st7" width="13.1" height="15.2"/>
		<rect x="171.6" y="196.4" class="st7" width="13.1" height="15.2"/>
		<rect x="190.4" y="196.4" class="st7" width="13.1" height="15.2"/>
		<rect x="209.2" y="196.4" class="st7" width="13.1" height="15.2"/>
	</g>
	<polygon class="st2" points="77.6,160.4 77.6,153.8 84.2,153.8 	"/>
	<polygon class="st2" points="96.4,160.4 96.4,153.8 103,153.8 	"/>
	<polygon class="st2" points="115.2,160.4 115.2,153.8 121.8,153.8 	"/>
	<polygon class="st2" points="134,160.4 134,153.8 140.6,153.8 	"/>
	<polygon class="st2" points="152.8,160.4 152.8,153.8 159.4,153.8 	"/>
	<polygon class="st2" points="171.6,160.4 171.6,153.8 178.2,153.8 	"/>
	<polygon class="st2" points="190.4,160.4 190.4,153.8 197,153.8 	"/>
	<polygon class="st2" points="209.2,160.4 209.2,153.8 215.8,153.8 	"/>
	<polygon class="st2" points="78.1,181.7 78.1,175.2 84.6,175.2 	"/>
	<polygon class="st2" points="96.9,181.7 96.9,175.2 103.4,175.2 	"/>
	<polygon class="st2" points="115.7,181.7 115.7,175.2 122.2,175.2 	"/>
	<polygon class="st2" points="134.4,181.7 134.4,175.2 141,175.2 	"/>
	<polygon class="st2" points="153.2,181.7 153.2,175.2 159.8,175.2 	"/>
	<polygon class="st2" points="172,181.7 172,175.2 178.6,175.2 	"/>
	<polygon class="st2" points="190.8,181.7 190.8,175.2 197.4,175.2 	"/>
	<polygon class="st2" points="209.6,181.7 209.6,175.2 216.2,175.2 	"/>
	<polygon class="st2" points="78.1,203 78.1,196.4 84.6,196.4 	"/>
	<polygon class="st2" points="96.9,203 96.9,196.4 103.4,196.4 	"/>
	<polygon class="st2" points="115.7,203 115.7,196.4 122.2,196.4 	"/>
	<polygon class="st2" points="134.4,203 134.4,196.4 141,196.4 	"/>
	<polygon class="st2" points="153.2,203 153.2,196.4 159.8,196.4 	"/>
	<polygon class="st2" points="172,203 172,196.4 178.6,196.4 	"/>
	<polygon class="st2" points="190.8,203 190.8,196.4 197.4,196.4 	"/>
	<polygon class="st2" points="209.6,203 209.6,196.4 216.2,196.4 	"/>
</g>
<g>
	<rect x="63.7" y="62.9" class="st0" width="173.8" height="167.4"/>
	<path class="st1" d="M238.9,55.8H62.3c-3.2,0-5.8,2.6-5.8,5.8v176.5c0,3.2,2.6,5.8,5.8,5.8h176.5c3.2,0,5.8-2.6,5.8-5.8V61.6
		C244.6,58.4,242,55.8,238.9,55.8z M112.4,67.1h30.3v8.8h-30.3V67.1z M71.2,144.7H230V220H71.2V144.7z"/>
	<rect x="116.5" y="99.2" class="st5" width="22.5" height="32.7"/>
	<polygon class="st8" points="135.4,102.3 122.1,102.3 121.3,102.8 124,104.8 133,104.8 136.5,103.1 	"/>
	<polygon class="st8" points="119.5,128.9 132.2,128.9 132.9,128.4 130.4,126.5 121.8,126.5 118.5,128.1 	"/>
	<polygon class="st8" points="132.2,117.7 131.2,125.9 133.4,127.3 133.5,127.3 134.7,116.5 	"/>
	<polygon class="st8" points="134.8,115.4 136.1,104.3 133.6,105.6 132.6,113.8 	"/>
	<polygon class="st8" points="133.8,115.8 132.1,114.6 123.1,114.6 120.9,115.7 121.9,116.4 122.8,117 131.4,117 	"/>
	<circle class="st5" cx="168.6" cy="131.5" r="3.9"/>
	<circle class="st5" cx="150.1" cy="131.5" r="3.9"/>
	<g>
		<rect x="78.2" y="153.8" class="st1" width="13.1" height="15.2"/>
		<rect x="97" y="153.8" class="st1" width="13.1" height="15.2"/>
		<rect x="115.8" y="153.8" class="st1" width="13.1" height="15.2"/>
		<rect x="134.6" y="153.8" class="st1" width="13.1" height="15.2"/>
		<rect x="153.4" y="153.8" class="st1" width="13.1" height="15.2"/>
		<rect x="172.2" y="153.8" class="st1" width="13.1" height="15.2"/>
		<rect x="190.9" y="153.8" class="st1" width="13.1" height="15.2"/>
		<rect x="209.7" y="153.8" class="st1" width="13.1" height="15.2"/>
		<rect x="78.2" y="175.1" class="st1" width="13.1" height="15.2"/>
		<rect x="97" y="175.1" class="st1" width="13.1" height="15.2"/>
		<rect x="115.8" y="175.1" class="st1" width="13.1" height="15.2"/>
		<rect x="134.6" y="175.1" class="st1" width="13.1" height="15.2"/>
		<rect x="153.4" y="175.1" class="st1" width="13.1" height="15.2"/>
		<rect x="172.2" y="175.1" class="st1" width="13.1" height="15.2"/>
		<rect x="190.9" y="175.1" class="st1" width="13.1" height="15.2"/>
		<rect x="209.7" y="175.1" class="st1" width="13.1" height="15.2"/>
		<rect x="78.2" y="196.4" class="st1" width="13.1" height="15.2"/>
		<rect x="97" y="196.4" class="st1" width="13.1" height="15.2"/>
		<rect x="115.8" y="196.4" class="st1" width="13.1" height="15.2"/>
		<rect x="134.6" y="196.4" class="st1" width="13.1" height="15.2"/>
		<rect x="153.4" y="196.4" class="st1" width="13.1" height="15.2"/>
		<rect x="172.2" y="196.4" class="st1" width="13.1" height="15.2"/>
		<rect x="190.9" y="196.4" class="st1" width="13.1" height="15.2"/>
		<rect x="209.7" y="196.4" class="st1" width="13.1" height="15.2"/>
	</g>
	<polygon class="st2" points="78.2,160.3 78.2,153.8 84.7,153.8 	"/>
	<polygon class="st2" points="97,160.3 97,153.8 103.5,153.8 	"/>
	<polygon class="st2" points="115.8,160.3 115.8,153.8 122.3,153.8 	"/>
	<polygon class="st2" points="134.6,160.3 134.6,153.8 141.1,153.8 	"/>
	<polygon class="st2" points="153.4,160.3 153.4,153.8 159.9,153.8 	"/>
	<polygon class="st2" points="172.2,160.3 172.2,153.8 178.7,153.8 	"/>
	<polygon class="st2" points="190.9,160.3 190.9,153.8 197.5,153.8 	"/>
	<polygon class="st2" points="209.7,160.3 209.7,153.8 216.3,153.8 	"/>
	<polygon class="st2" points="78.6,181.6 78.6,175.1 85.1,175.1 	"/>
	<polygon class="st2" points="97.4,181.6 97.4,175.1 103.9,175.1 	"/>
	<polygon class="st2" points="116.2,181.6 116.2,175.1 122.7,175.1 	"/>
	<polygon class="st2" points="135,181.6 135,175.1 141.5,175.1 	"/>
	<polygon class="st2" points="153.8,181.6 153.8,175.1 160.3,175.1 	"/>
	<polygon class="st2" points="172.6,181.6 172.6,175.1 179.1,175.1 	"/>
	<polygon class="st2" points="191.4,181.6 191.4,175.1 197.9,175.1 	"/>
	<polygon class="st2" points="210.2,181.6 210.2,175.1 216.7,175.1 	"/>
	<polygon class="st2" points="78.6,202.9 78.6,196.4 85.1,196.4 	"/>
	<polygon class="st2" points="97.4,202.9 97.4,196.4 103.9,196.4 	"/>
	<polygon class="st2" points="116.2,202.9 116.2,196.4 122.7,196.4 	"/>
	<polygon class="st2" points="135,202.9 135,196.4 141.5,196.4 	"/>
	<polygon class="st2" points="153.8,202.9 153.8,196.4 160.3,196.4 	"/>
	<polygon class="st2" points="172.6,202.9 172.6,196.4 179.1,196.4 	"/>
	<polygon class="st2" points="191.4,202.9 191.4,196.4 197.9,196.4 	"/>
	<polygon class="st2" points="210.2,202.9 210.2,196.4 216.7,196.4 	"/>
</g>
<g>
	<rect x="63.1" y="62.5" class="st3" width="173.8" height="167.4"/>
	<path class="st4" d="M238.3,55.4H61.8c-3.2,0-5.8,2.6-5.8,5.8v176.5c0,3.2,2.6,5.8,5.8,5.8h176.5c3.2,0,5.8-2.6,5.8-5.8V61.2
		C244.1,58,241.5,55.4,238.3,55.4z M111.8,66.7h30.3v8.8h-30.3V66.7z M70.6,112h158.9v75.3H70.6V112z"/>
	<rect x="91.8" y="197.9" class="st5" width="22.5" height="32.7"/>
	<polygon class="st6" points="110.6,200.9 97.3,200.9 96.6,201.5 99.3,203.4 108.2,203.4 111.7,201.8 	"/>
	<polygon class="st6" points="94.8,227.6 107.5,227.6 108.2,227 105.7,225.2 97.1,225.2 93.8,226.8 	"/>
	<polygon class="st6" points="95,214.6 93.7,225.7 96.3,224.4 97.2,216.2 	"/>
	<polygon class="st6" points="110.1,214 111.4,203 108.8,204.2 107.9,212.5 	"/>
	<polygon class="st6" points="109.1,214.5 107.3,213.3 98.4,213.3 96.2,214.3 97.2,215 98.1,215.7 106.6,215.7 	"/>
	<circle class="st5" cx="211.9" cy="89.1" r="3.9"/>
	<circle class="st5" cx="193.4" cy="89.1" r="3.9"/>
	<g>
		<rect x="77.6" y="120.8" class="st7" width="13.1" height="15.2"/>
		<rect x="96.4" y="120.8" class="st7" width="13.1" height="15.2"/>
		<rect x="115.2" y="120.8" class="st7" width="13.1" height="15.2"/>
		<rect x="134" y="120.8" class="st7" width="13.1" height="15.2"/>
		<rect x="152.8" y="120.8" class="st7" width="13.1" height="15.2"/>
		<rect x="171.6" y="120.8" class="st7" width="13.1" height="15.2"/>
		<rect x="190.4" y="120.8" class="st7" width="13.1" height="15.2"/>
		<rect x="209.2" y="120.8" class="st7" width="13.1" height="15.2"/>
		<rect x="77.6" y="142.1" class="st7" width="13.1" height="15.2"/>
		<rect x="96.4" y="142.1" class="st7" width="13.1" height="15.2"/>
		<rect x="115.2" y="142.1" class="st7" width="13.1" height="15.2"/>
		<rect x="134" y="142.1" class="st7" width="13.1" height="15.2"/>
		<rect x="152.8" y="142.1" class="st7" width="13.1" height="15.2"/>
		<rect x="171.6" y="142.1" class="st7" width="13.1" height="15.2"/>
		<rect x="190.4" y="142.1" class="st7" width="13.1" height="15.2"/>
		<rect x="209.2" y="142.1" class="st7" width="13.1" height="15.2"/>
		<rect x="77.6" y="163.4" class="st7" width="13.1" height="15.2"/>
		<rect x="96.4" y="163.4" class="st7" width="13.1" height="15.2"/>
		<rect x="115.2" y="163.4" class="st7" width="13.1" height="15.2"/>
		<rect x="134" y="163.4" class="st7" width="13.1" height="15.2"/>
		<rect x="152.8" y="163.4" class="st7" width="13.1" height="15.2"/>
		<rect x="171.6" y="163.4" class="st7" width="13.1" height="15.2"/>
		<rect x="190.4" y="163.4" class="st7" width="13.1" height="15.2"/>
		<rect x="209.2" y="163.4" class="st7" width="13.1" height="15.2"/>
	</g>
	<polygon class="st2" points="77.6,127.3 77.6,120.8 84.2,120.8 	"/>
	<polygon class="st2" points="96.4,127.3 96.4,120.8 103,120.8 	"/>
	<polygon class="st2" points="115.2,127.3 115.2,120.8 121.8,120.8 	"/>
	<polygon class="st2" points="134,127.3 134,120.8 140.6,120.8 	"/>
	<polygon class="st2" points="152.8,127.3 152.8,120.8 159.4,120.8 	"/>
	<polygon class="st2" points="171.6,127.3 171.6,120.8 178.2,120.8 	"/>
	<polygon class="st2" points="190.4,127.3 190.4,120.8 197,120.8 	"/>
	<polygon class="st2" points="209.2,127.3 209.2,120.8 215.8,120.8 	"/>
	<polygon class="st2" points="78.1,148.6 78.1,142.1 84.6,142.1 	"/>
	<polygon class="st2" points="96.9,148.6 96.9,142.1 103.4,142.1 	"/>
	<polygon class="st2" points="115.7,148.6 115.7,142.1 122.2,142.1 	"/>
	<polygon class="st2" points="134.4,148.6 134.4,142.1 141,142.1 	"/>
	<polygon class="st2" points="153.2,148.6 153.2,142.1 159.8,142.1 	"/>
	<polygon class="st2" points="172,148.6 172,142.1 178.6,142.1 	"/>
	<polygon class="st2" points="190.8,148.6 190.8,142.1 197.4,142.1 	"/>
	<polygon class="st2" points="209.6,148.6 209.6,142.1 216.2,142.1 	"/>
	<polygon class="st2" points="78.1,169.9 78.1,163.4 84.6,163.4 	"/>
	<polygon class="st2" points="96.9,169.9 96.9,163.4 103.4,163.4 	"/>
	<polygon class="st2" points="115.7,169.9 115.7,163.4 122.2,163.4 	"/>
	<polygon class="st2" points="134.4,169.9 134.4,163.4 141,163.4 	"/>
	<polygon class="st2" points="153.2,169.9 153.2,163.4 159.8,163.4 	"/>
	<polygon class="st2" points="172,169.9 172,163.4 178.6,163.4 	"/>
	<polygon class="st2" points="190.8,169.9 190.8,163.4 197.4,163.4 	"/>
	<polygon class="st2" points="209.6,169.9 209.6,163.4 216.2,163.4 	"/>
</g>
<rect x="63.7" y="62.4" class="st0" width="173.8" height="167.4"/>
<path class="st9" d="M238.9,55.3H62.3c-3.2,0-5.8,2.6-5.8,5.8v176.5c0,3.2,2.6,5.8,5.8,5.8h176.5c3.2,0,5.8-2.6,5.8-5.8V61.1
	C244.6,57.9,242,55.3,238.9,55.3z M112.4,66.6h30.3v8.8h-30.3V66.6z M71.2,111.9H230v75.3H71.2V111.9z"/>
<rect x="92.3" y="197.8" width="22.5" height="32.7"/>
<polygon class="st8" points="111.2,200.8 97.9,200.8 97.1,201.4 99.8,203.3 108.8,203.3 112.3,201.7 "/>
<polygon class="st8" points="95.3,227.5 108,227.5 108.7,227 106.2,225.1 97.6,225.1 94.3,226.7 "/>
<polygon class="st8" points="95.6,214.6 94.3,225.6 96.8,224.4 97.8,216.1 "/>
<polygon class="st8" points="110.6,213.9 111.9,202.9 109.4,204.1 108.4,212.4 "/>
<polygon class="st8" points="109.6,214.4 107.9,213.2 98.9,213.2 96.7,214.2 97.7,214.9 98.6,215.6 107.2,215.6 "/>
<circle class="st5" cx="212.4" cy="89" r="3.9"/>
<circle class="st5" cx="193.9" cy="89" r="3.9"/>
<g>
	<rect x="78.2" y="120.7" class="st9" width="13.1" height="15.2"/>
	<rect x="97" y="120.7" class="st9" width="13.1" height="15.2"/>
	<rect x="115.8" y="120.7" class="st9" width="13.1" height="15.2"/>
	<rect x="134.6" y="120.7" class="st9" width="13.1" height="15.2"/>
	<rect x="153.4" y="120.7" class="st9" width="13.1" height="15.2"/>
	<rect x="172.2" y="120.7" class="st9" width="13.1" height="15.2"/>
	<rect x="190.9" y="120.7" class="st9" width="13.1" height="15.2"/>
	<rect x="209.7" y="120.7" class="st9" width="13.1" height="15.2"/>
	<rect x="78.2" y="142" class="st9" width="13.1" height="15.2"/>
	<rect x="97" y="142" class="st9" width="13.1" height="15.2"/>
	<rect x="115.8" y="142" class="st9" width="13.1" height="15.2"/>
	<rect x="134.6" y="142" class="st9" width="13.1" height="15.2"/>
	<rect x="153.4" y="142" class="st9" width="13.1" height="15.2"/>
	<rect x="172.2" y="142" class="st9" width="13.1" height="15.2"/>
	<rect x="190.9" y="142" class="st9" width="13.1" height="15.2"/>
	<rect x="209.7" y="142" class="st9" width="13.1" height="15.2"/>
	<rect x="78.2" y="163.3" class="st9" width="13.1" height="15.2"/>
	<rect x="97" y="163.3" class="st9" width="13.1" height="15.2"/>
	<rect x="115.8" y="163.3" class="st9" width="13.1" height="15.2"/>
	<rect x="134.6" y="163.3" class="st9" width="13.1" height="15.2"/>
	<rect x="153.4" y="163.3" class="st9" width="13.1" height="15.2"/>
	<rect x="172.2" y="163.3" class="st9" width="13.1" height="15.2"/>
	<rect x="190.9" y="163.3" class="st9" width="13.1" height="15.2"/>
	<rect x="209.7" y="163.3" class="st9" width="13.1" height="15.2"/>
</g>
<polygon class="st2" points="78.2,127.2 78.2,120.7 84.7,120.7 "/>
<polygon class="st2" points="97,127.2 97,120.7 103.5,120.7 "/>
<polygon class="st2" points="115.8,127.2 115.8,120.7 122.3,120.7 "/>
<polygon class="st2" points="134.6,127.2 134.6,120.7 141.1,120.7 "/>
<polygon class="st2" points="153.4,127.2 153.4,120.7 159.9,120.7 "/>
<polygon class="st2" points="172.2,127.2 172.2,120.7 178.7,120.7 "/>
<polygon class="st2" points="190.9,127.2 190.9,120.7 197.5,120.7 "/>
<polygon class="st2" points="209.7,127.2 209.7,120.7 216.3,120.7 "/>
<polygon class="st2" points="78.6,148.5 78.6,142 85.1,142 "/>
<polygon class="st2" points="97.4,148.5 97.4,142 103.9,142 "/>
<polygon class="st2" points="116.2,148.5 116.2,142 122.7,142 "/>
<polygon class="st2" points="135,148.5 135,142 141.5,142 "/>
<polygon class="st2" points="153.8,148.5 153.8,142 160.3,142 "/>
<polygon class="st2" points="172.6,148.5 172.6,142 179.1,142 "/>
<polygon class="st2" points="191.4,148.5 191.4,142 197.9,142 "/>
<polygon class="st2" points="210.2,148.5 210.2,142 216.7,142 "/>
<polygon class="st2" points="78.6,169.8 78.6,163.3 85.1,163.3 "/>
<polygon class="st2" points="97.4,169.8 97.4,163.3 103.9,163.3 "/>
<polygon class="st2" points="116.2,169.8 116.2,163.3 122.7,163.3 "/>
<polygon class="st2" points="135,169.8 135,163.3 141.5,163.3 "/>
<polygon class="st2" points="153.8,169.8 153.8,163.3 160.3,163.3 "/>
<polygon class="st2" points="172.6,169.8 172.6,163.3 179.1,163.3 "/>
<polygon class="st2" points="191.4,169.8 191.4,163.3 197.9,163.3 "/>
<polygon class="st2" points="210.2,169.8 210.2,163.3 216.7,163.3 "/>
</svg>
