<?xml version="1.0" encoding="utf-8"?>
<!-- Generator: Adobe Illustrator 21.0.0, SVG Export Plug-In . SVG Version: 6.00 Build 0)  -->
<svg version="1.1" id="Слой_1" xmlns="http://www.w3.org/2000/svg" xmlns:xlink="http://www.w3.org/1999/xlink" x="0px" y="0px"
	 viewBox="0 0 300 300" style="enable-background:new 0 0 300 300;" xml:space="preserve">
<style type="text/css">
	.st0{fill:#725846;}
	.st1{fill:#4D5B9D;stroke:#201600;stroke-width:4.2706;stroke-miterlimit:10;}
	.st2{fill:#201600;}
	.st3{fill:#D14A43;}
	.st4{fill:#E8A754;stroke:#201600;stroke-width:4.2706;stroke-miterlimit:10;}
	.st5{fill:#000105;}
</style>
<g>
	<rect x="63.1" y="63" class="st0" width="173.8" height="167.4"/>
	<path class="st1" d="M238.3,55.9H61.8c-3.2,0-5.8,2.6-5.8,5.8v176.5c0,3.2,2.6,5.8,5.8,5.8h176.5c3.2,0,5.8-2.6,5.8-5.8V61.7
		C244.1,58.5,241.5,55.9,238.3,55.9z M111.8,67.2h30.3V76h-30.3V67.2z M70.6,144.8h158.9v75.3H70.6V144.8z"/>
	<rect x="116" y="99.3" class="st2" width="22.5" height="32.7"/>
	<polygon class="st3" points="134.8,102.4 121.5,102.4 120.8,102.9 123.5,104.9 132.4,104.9 135.9,103.2 	"/>
	<polygon class="st3" points="119,129 131.7,129 132.4,128.5 129.9,126.6 121.3,126.6 118,128.2 	"/>
	<polygon class="st3" points="131.6,117.8 130.7,126 132.9,127.4 132.9,127.4 134.2,116.6 	"/>
	<polygon class="st3" points="134.3,115.5 135.6,104.4 133,105.7 132.1,113.9 	"/>
	<polygon class="st3" points="133.3,115.9 131.5,114.7 122.6,114.7 120.4,115.8 121.4,116.5 122.3,117.1 130.8,117.1 	"/>
	<circle class="st2" cx="168.1" cy="131.6" r="3.9"/>
	<circle class="st2" cx="149.6" cy="131.6" r="3.9"/>
	<g>
		<rect x="77.6" y="153.8" class="st4" width="13.1" height="15.2"/>
		<rect x="96.4" y="153.8" class="st4" width="13.1" height="15.2"/>
		<rect x="115.2" y="153.8" class="st4" width="13.1" height="15.2"/>
		<rect x="134" y="153.8" class="st4" width="13.1" height="15.2"/>
		<rect x="152.8" y="153.8" class="st4" width="13.1" height="15.2"/>
		<rect x="171.6" y="153.8" class="st4" width="13.1" height="15.2"/>
		<rect x="190.4" y="153.8" class="st4" width="13.1" height="15.2"/>
		<rect x="209.2" y="153.8" class="st4" width="13.1" height="15.2"/>
		<rect x="77.6" y="175.2" class="st4" width="13.1" height="15.2"/>
		<rect x="96.4" y="175.2" class="st4" width="13.1" height="15.2"/>
		<rect x="115.2" y="175.2" class="st4" width="13.1" height="15.2"/>
		<rect x="134" y="175.2" class="st4" width="13.1" height="15.2"/>
		<rect x="152.8" y="175.2" class="st4" width="13.1" height="15.2"/>
		<rect x="171.6" y="175.2" class="st4" width="13.1" height="15.2"/>
		<rect x="190.4" y="175.2" class="st4" width="13.1" height="15.2"/>
		<rect x="209.2" y="175.2" class="st4" width="13.1" height="15.2"/>
		<rect x="77.6" y="196.4" class="st4" width="13.1" height="15.2"/>
		<rect x="96.4" y="196.4" class="st4" width="13.1" height="15.2"/>
		<rect x="115.2" y="196.4" class="st4" width="13.1" height="15.2"/>
		<rect x="134" y="196.4" class="st4" width="13.1" height="15.2"/>
		<rect x="152.8" y="196.4" class="st4" width="13.1" height="15.2"/>
		<rect x="171.6" y="196.4" class="st4" width="13.1" height="15.2"/>
		<rect x="190.4" y="196.4" class="st4" width="13.1" height="15.2"/>
		<rect x="209.2" y="196.4" class="st4" width="13.1" height="15.2"/>
	</g>
	<polygon class="st5" points="77.6,160.4 77.6,153.8 84.2,153.8 	"/>
	<polygon class="st5" points="96.4,160.4 96.4,153.8 103,153.8 	"/>
	<polygon class="st5" points="115.2,160.4 115.2,153.8 121.8,153.8 	"/>
	<polygon class="st5" points="134,160.4 134,153.8 140.6,153.8 	"/>
	<polygon class="st5" points="152.8,160.4 152.8,153.8 159.4,153.8 	"/>
	<polygon class="st5" points="171.6,160.4 171.6,153.8 178.2,153.8 	"/>
	<polygon class="st5" points="190.4,160.4 190.4,153.8 197,153.8 	"/>
	<polygon class="st5" points="209.2,160.4 209.2,153.8 215.8,153.8 	"/>
	<polygon class="st5" points="78.1,181.7 78.1,175.2 84.6,175.2 	"/>
	<polygon class="st5" points="96.9,181.7 96.9,175.2 103.4,175.2 	"/>
	<polygon class="st5" points="115.7,181.7 115.7,175.2 122.2,175.2 	"/>
	<polygon class="st5" points="134.4,181.7 134.4,175.2 141,175.2 	"/>
	<polygon class="st5" points="153.2,181.7 153.2,175.2 159.8,175.2 	"/>
	<polygon class="st5" points="172,181.7 172,175.2 178.6,175.2 	"/>
	<polygon class="st5" points="190.8,181.7 190.8,175.2 197.4,175.2 	"/>
	<polygon class="st5" points="209.6,181.7 209.6,175.2 216.2,175.2 	"/>
	<polygon class="st5" points="78.1,203 78.1,196.4 84.6,196.4 	"/>
	<polygon class="st5" points="96.9,203 96.9,196.4 103.4,196.4 	"/>
	<polygon class="st5" points="115.7,203 115.7,196.4 122.2,196.4 	"/>
	<polygon class="st5" points="134.4,203 134.4,196.4 141,196.4 	"/>
	<polygon class="st5" points="153.2,203 153.2,196.4 159.8,196.4 	"/>
	<polygon class="st5" points="172,203 172,196.4 178.6,196.4 	"/>
	<polygon class="st5" points="190.8,203 190.8,196.4 197.4,196.4 	"/>
	<polygon class="st5" points="209.6,203 209.6,196.4 216.2,196.4 	"/>
</g>
</svg>
