<?xml version="1.0" encoding="utf-8"?>
<!-- Generator: Adobe Illustrator 21.0.0, SVG Export Plug-In . SVG Version: 6.00 Build 0)  -->
<svg version="1.1" id="Слой_1" xmlns="http://www.w3.org/2000/svg" xmlns:xlink="http://www.w3.org/1999/xlink" x="0px" y="0px"
	 viewBox="0 0 300 300" style="enable-background:new 0 0 300 300;" xml:space="preserve">
<style type="text/css">
	.st0{fill:#6B6966;stroke:#201600;stroke-width:4.2706;stroke-miterlimit:10;}
	.st1{fill:#AFAEAE;stroke:#000105;stroke-width:4.2706;stroke-miterlimit:10;}
	.st2{fill:#000105;}
	.st3{fill:#AFAEAE;stroke:#201600;stroke-width:4.2706;stroke-miterlimit:10;}
</style>
<g>
	<rect x="63" y="23.2" class="st0" width="175.5" height="199.3"/>
	<path class="st1" d="M242,273.6H59.5c-5.2,0-9.5-4.3-9.5-9.5v-33c0-5.2,4.3-9.5,9.5-9.5H242c5.2,0,9.5,4.3,9.5,9.5v33
		C251.5,269.3,247.2,273.6,242,273.6z"/>
	<rect x="193.4" y="235.6" class="st2" width="33.4" height="24"/>
	<circle class="st2" cx="78.1" cy="254.6" r="3.9"/>
	<circle class="st2" cx="90.6" cy="254.6" r="3.9"/>
	<path class="st2" d="M237.4,278h-13.9c-1.2,0-2.2-1-2.2-2.2l0,0c0-1.2,1-2.2,2.2-2.2h13.9c1.2,0,2.2,1,2.2,2.2l0,0
		C239.6,277,238.6,278,237.4,278z"/>
	<path class="st2" d="M64.1,278H78c1.2,0,2.2-1,2.2-2.2l0,0c0-1.2-1-2.2-2.2-2.2H64.1c-1.2,0-2.2,1-2.2,2.2l0,0
		C61.8,277,62.8,278,64.1,278z"/>
	<g>
		<rect x="71.7" y="32.7" class="st3" width="14.3" height="16.6"/>
		<rect x="92.2" y="32.7" class="st3" width="14.3" height="16.6"/>
		<rect x="112.6" y="32.7" class="st3" width="14.3" height="16.6"/>
		<rect x="133.1" y="32.7" class="st3" width="14.3" height="16.6"/>
		<rect x="153.6" y="32.7" class="st3" width="14.3" height="16.6"/>
		<rect x="174" y="32.7" class="st3" width="14.3" height="16.6"/>
		<rect x="194.5" y="32.7" class="st3" width="14.3" height="16.6"/>
		<rect x="215" y="32.7" class="st3" width="14.3" height="16.6"/>
		<rect x="71.7" y="55.9" class="st3" width="14.3" height="16.6"/>
		<rect x="92.2" y="55.9" class="st3" width="14.3" height="16.6"/>
		<rect x="112.6" y="55.9" class="st3" width="14.3" height="16.6"/>
		<rect x="133.1" y="55.9" class="st3" width="14.3" height="16.6"/>
		<rect x="153.6" y="55.9" class="st3" width="14.3" height="16.6"/>
		<rect x="174" y="55.9" class="st3" width="14.3" height="16.6"/>
		<rect x="194.5" y="55.9" class="st3" width="14.3" height="16.6"/>
		<rect x="215" y="55.9" class="st3" width="14.3" height="16.6"/>
		<rect x="71.7" y="79.1" class="st3" width="14.3" height="16.6"/>
		<rect x="92.2" y="79.1" class="st3" width="14.3" height="16.6"/>
		<rect x="112.6" y="79.1" class="st3" width="14.3" height="16.6"/>
		<rect x="133.1" y="79.1" class="st3" width="14.3" height="16.6"/>
		<rect x="153.6" y="79.1" class="st3" width="14.3" height="16.6"/>
		<rect x="174" y="79.1" class="st3" width="14.3" height="16.6"/>
		<rect x="194.5" y="79.1" class="st3" width="14.3" height="16.6"/>
		<rect x="215" y="79.1" class="st3" width="14.3" height="16.6"/>
		<rect x="71.7" y="102.4" class="st3" width="14.3" height="16.6"/>
		<rect x="92.2" y="102.4" class="st3" width="14.3" height="16.6"/>
		<rect x="112.6" y="102.4" class="st3" width="14.3" height="16.6"/>
		<rect x="133.1" y="102.4" class="st3" width="14.3" height="16.6"/>
		<rect x="153.6" y="102.4" class="st3" width="14.3" height="16.6"/>
		<rect x="174" y="102.4" class="st3" width="14.3" height="16.6"/>
		<rect x="194.5" y="102.4" class="st3" width="14.3" height="16.6"/>
		<rect x="215" y="102.4" class="st3" width="14.3" height="16.6"/>
		<rect x="71.7" y="125.7" class="st3" width="14.3" height="16.6"/>
		<rect x="92.2" y="125.7" class="st3" width="14.3" height="16.6"/>
		<rect x="112.6" y="125.7" class="st3" width="14.3" height="16.6"/>
		<rect x="133.1" y="125.7" class="st3" width="14.3" height="16.6"/>
		<rect x="153.6" y="125.7" class="st3" width="14.3" height="16.6"/>
		<rect x="174" y="125.7" class="st3" width="14.3" height="16.6"/>
		<rect x="194.5" y="125.7" class="st3" width="14.3" height="16.6"/>
		<rect x="215" y="125.7" class="st3" width="14.3" height="16.6"/>
		<rect x="71.7" y="148.9" class="st3" width="14.3" height="16.6"/>
		<rect x="92.2" y="148.9" class="st3" width="14.3" height="16.6"/>
		<rect x="112.6" y="148.9" class="st3" width="14.3" height="16.6"/>
		<rect x="133.1" y="148.9" class="st3" width="14.3" height="16.6"/>
		<rect x="153.6" y="148.9" class="st3" width="14.3" height="16.6"/>
		<rect x="174" y="148.9" class="st3" width="14.3" height="16.6"/>
		<rect x="194.5" y="148.9" class="st3" width="14.3" height="16.6"/>
		<rect x="215" y="148.9" class="st3" width="14.3" height="16.6"/>
		<rect x="71.7" y="172.2" class="st3" width="14.3" height="16.6"/>
		<rect x="92.2" y="172.2" class="st3" width="14.3" height="16.6"/>
		<rect x="112.6" y="172.2" class="st3" width="14.3" height="16.6"/>
		<rect x="133.1" y="172.2" class="st3" width="14.3" height="16.6"/>
		<rect x="153.6" y="172.2" class="st3" width="14.3" height="16.6"/>
		<rect x="174" y="172.2" class="st3" width="14.3" height="16.6"/>
		<rect x="194.5" y="172.2" class="st3" width="14.3" height="16.6"/>
		<rect x="215" y="172.2" class="st3" width="14.3" height="16.6"/>
		<rect x="71.7" y="195.4" class="st3" width="14.3" height="16.6"/>
		<rect x="92.2" y="195.4" class="st3" width="14.3" height="16.6"/>
		<rect x="112.6" y="195.4" class="st3" width="14.3" height="16.6"/>
		<rect x="133.1" y="195.4" class="st3" width="14.3" height="16.6"/>
		<rect x="153.6" y="195.4" class="st3" width="14.3" height="16.6"/>
		<rect x="174" y="195.4" class="st3" width="14.3" height="16.6"/>
		<rect x="194.5" y="195.4" class="st3" width="14.3" height="16.6"/>
		<rect x="215" y="195.4" class="st3" width="14.3" height="16.6"/>
	</g>
	<g>
		<polygon class="st2" points="71.7,39.8 71.7,32.7 78.8,32.7 		"/>
		<polygon class="st2" points="92.2,39.8 92.2,32.7 99.3,32.7 		"/>
		<polygon class="st2" points="112.6,39.8 112.6,32.7 119.8,32.7 		"/>
		<polygon class="st2" points="133.1,39.8 133.1,32.7 140.2,32.7 		"/>
		<polygon class="st2" points="153.6,39.8 153.6,32.7 160.7,32.7 		"/>
		<polygon class="st2" points="174,39.8 174,32.7 181.2,32.7 		"/>
		<polygon class="st2" points="194.5,39.8 194.5,32.7 201.6,32.7 		"/>
		<polygon class="st2" points="215,39.8 215,32.7 222.1,32.7 		"/>
		<polygon class="st2" points="72.2,63.1 72.2,55.9 79.3,55.9 		"/>
		<polygon class="st2" points="92.6,63.1 92.6,55.9 99.8,55.9 		"/>
		<polygon class="st2" points="113.1,63.1 113.1,55.9 120.2,55.9 		"/>
		<polygon class="st2" points="133.6,63.1 133.6,55.9 140.7,55.9 		"/>
		<polygon class="st2" points="154,63.1 154,55.9 161.2,55.9 		"/>
		<polygon class="st2" points="174.5,63.1 174.5,55.9 181.6,55.9 		"/>
		<polygon class="st2" points="195,63.1 195,55.9 202.1,55.9 		"/>
		<polygon class="st2" points="215.4,63.1 215.4,55.9 222.6,55.9 		"/>
		<polygon class="st2" points="72.2,86.3 72.2,79.1 79.3,79.1 		"/>
		<polygon class="st2" points="92.6,86.3 92.6,79.1 99.8,79.1 		"/>
		<polygon class="st2" points="113.1,86.3 113.1,79.1 120.2,79.1 		"/>
		<polygon class="st2" points="133.6,86.3 133.6,79.1 140.7,79.1 		"/>
		<polygon class="st2" points="154,86.3 154,79.1 161.2,79.1 		"/>
		<polygon class="st2" points="174.5,86.3 174.5,79.1 181.6,79.1 		"/>
		<polygon class="st2" points="195,86.3 195,79.1 202.1,79.1 		"/>
		<polygon class="st2" points="215.4,86.3 215.4,79.1 222.6,79.1 		"/>
		<polygon class="st2" points="72.2,109.5 72.2,102.4 79.3,102.4 		"/>
		<polygon class="st2" points="92.6,109.5 92.6,102.4 99.8,102.4 		"/>
		<polygon class="st2" points="113.1,109.5 113.1,102.4 120.2,102.4 		"/>
		<polygon class="st2" points="133.6,109.5 133.6,102.4 140.7,102.4 		"/>
		<polygon class="st2" points="154,109.5 154,102.4 161.2,102.4 		"/>
		<polygon class="st2" points="174.5,109.5 174.5,102.4 181.6,102.4 		"/>
		<polygon class="st2" points="195,109.5 195,102.4 202.1,102.4 		"/>
		<polygon class="st2" points="215.4,109.5 215.4,102.4 222.6,102.4 		"/>
	</g>
	<g>
		<polygon class="st2" points="71.7,132.8 71.7,125.7 78.8,125.7 		"/>
		<polygon class="st2" points="92.2,132.8 92.2,125.7 99.3,125.7 		"/>
		<polygon class="st2" points="112.6,132.8 112.6,125.7 119.8,125.7 		"/>
		<polygon class="st2" points="133.1,132.8 133.1,125.7 140.2,125.7 		"/>
		<polygon class="st2" points="153.6,132.8 153.6,125.7 160.7,125.7 		"/>
		<polygon class="st2" points="174,132.8 174,125.7 181.2,125.7 		"/>
		<polygon class="st2" points="194.5,132.8 194.5,125.7 201.6,125.7 		"/>
		<polygon class="st2" points="215,132.8 215,125.7 222.1,125.7 		"/>
		<polygon class="st2" points="72.2,156.1 72.2,148.9 79.3,148.9 		"/>
		<polygon class="st2" points="92.6,156.1 92.6,148.9 99.8,148.9 		"/>
		<polygon class="st2" points="113.1,156.1 113.1,148.9 120.2,148.9 		"/>
		<polygon class="st2" points="133.6,156.1 133.6,148.9 140.7,148.9 		"/>
		<polygon class="st2" points="154,156.1 154,148.9 161.2,148.9 		"/>
		<polygon class="st2" points="174.5,156.1 174.5,148.9 181.6,148.9 		"/>
		<polygon class="st2" points="195,156.1 195,148.9 202.1,148.9 		"/>
		<polygon class="st2" points="215.4,156.1 215.4,148.9 222.6,148.9 		"/>
		<polygon class="st2" points="72.2,179.3 72.2,172.2 79.3,172.2 		"/>
		<polygon class="st2" points="92.6,179.3 92.6,172.2 99.8,172.2 		"/>
		<polygon class="st2" points="113.1,179.3 113.1,172.2 120.2,172.2 		"/>
		<polygon class="st2" points="133.6,179.3 133.6,172.2 140.7,172.2 		"/>
		<polygon class="st2" points="154,179.3 154,172.2 161.2,172.2 		"/>
		<polygon class="st2" points="174.5,179.3 174.5,172.2 181.6,172.2 		"/>
		<polygon class="st2" points="195,179.3 195,172.2 202.1,172.2 		"/>
		<polygon class="st2" points="215.4,179.3 215.4,172.2 222.6,172.2 		"/>
		<polygon class="st2" points="72.2,202.5 72.2,195.4 79.3,195.4 		"/>
		<polygon class="st2" points="92.6,202.5 92.6,195.4 99.8,195.4 		"/>
		<polygon class="st2" points="113.1,202.5 113.1,195.4 120.2,195.4 		"/>
		<polygon class="st2" points="133.6,202.5 133.6,195.4 140.7,195.4 		"/>
		<polygon class="st2" points="154,202.5 154,195.4 161.2,195.4 		"/>
		<polygon class="st2" points="174.5,202.5 174.5,195.4 181.6,195.4 		"/>
		<polygon class="st2" points="195,202.5 195,195.4 202.1,195.4 		"/>
		<polygon class="st2" points="215.4,202.5 215.4,195.4 222.6,195.4 		"/>
	</g>
</g>
</svg>
