<?xml version="1.0" encoding="utf-8"?>
<!-- Generator: Adobe Illustrator 21.0.0, SVG Export Plug-In . SVG Version: 6.00 Build 0)  -->
<svg version="1.1" id="Слой_1" xmlns="http://www.w3.org/2000/svg" xmlns:xlink="http://www.w3.org/1999/xlink" x="0px" y="0px"
	 viewBox="0 0 300 300" style="enable-background:new 0 0 300 300;" xml:space="preserve">
<style type="text/css">
	.st0{fill:#E8A754;stroke:#201600;stroke-width:4.2706;stroke-miterlimit:10;}
	.st1{fill:#725846;stroke:#201600;stroke-width:4.2706;stroke-miterlimit:10;}
	.st2{fill:#725846;}
	.st3{fill:#201600;}
	.st4{fill:#4D5B9D;stroke:#201600;stroke-width:4.103;stroke-miterlimit:10;}
	.st5{fill:#947659;}
	.st6{fill:#4D5B9D;stroke:#201600;stroke-width:4.2706;stroke-miterlimit:10;}
</style>
<g>
	<path class="st0" d="M259.1,110.4l-8.2-3.1c-0.3-2.2-0.7-4.4-1.1-6.5l6.6-5.7c-0.3-1.1-0.6-2.2-0.9-3.4l-8.6-1.6
		c-0.7-2.1-1.5-4.2-2.3-6.2l5.5-6.8c-0.5-1.1-0.9-2.1-1.5-3.2l-8.8-0.1c-1-2-2.2-3.9-3.3-5.7l4.3-7.7c-0.7-1-1.3-1.9-2-2.8l-8.6,1.4
		c-1.4-1.7-2.8-3.4-4.2-5.1l2.9-8.3c-0.8-0.8-1.6-1.7-2.5-2.5l-8.3,2.9c-1.6-1.5-3.3-2.9-5.1-4.2l1.4-8.6c-0.9-0.7-1.9-1.4-2.8-2
		l-7.7,4.3c-1.9-1.2-3.8-2.3-5.7-3.3l-0.1-8.8c-1-0.5-2.1-1-3.2-1.5l-6.8,5.5c-2-0.8-4.1-1.6-6.2-2.3l-1.6-8.6
		c-1.1-0.3-2.2-0.6-3.4-0.9L171,22c-2.2-0.5-4.3-0.8-6.5-1.1l-3.1-8.2c-1.2-0.1-2.3-0.2-3.5-0.3l-4.5,7.5c-1.1,0-2.2-0.1-3.3-0.1
		c-1.1,0-2.2,0-3.3,0.1l-4.5-7.5c-1.2,0.1-2.3,0.2-3.5,0.3l-3.1,8.2c-2.2,0.3-4.4,0.7-6.5,1.1l-5.7-6.6c-1.1,0.3-2.2,0.6-3.4,0.9
		l-1.6,8.6c-2.1,0.7-4.2,1.5-6.2,2.3l-6.8-5.5c-1.1,0.5-2.1,0.9-3.2,1.5l-0.1,8.8c-2,1-3.9,2.2-5.7,3.3L88.7,31
		c-1,0.7-1.9,1.3-2.8,2l1.4,8.6c-1.7,1.4-3.4,2.8-5.1,4.2L73.9,43c-0.8,0.8-1.7,1.6-2.5,2.5l2.9,8.3c-1.5,1.6-2.9,3.3-4.2,5.1
		l-8.6-1.4c-0.7,0.9-1.4,1.9-2,2.8l4.3,7.7c-1.2,1.9-2.3,3.8-3.3,5.7l-8.8,0.1c-0.5,1-1,2.1-1.5,3.2l5.5,6.8c-0.8,2-1.6,4.1-2.3,6.2
		l-8.6,1.6c-0.3,1.1-0.6,2.2-0.9,3.4l6.6,5.7c-0.5,2.2-0.8,4.3-1.1,6.5l-8.2,3.1c-0.1,1.2-0.2,2.3-0.3,3.5l7.5,4.5
		c0,1.1-0.1,2.2-0.1,3.3c0,1.1,0,2.2,0.1,3.3l-7.5,4.5c0.1,1.2,0.2,2.3,0.3,3.5l8.2,3.1c0.3,2.2,0.7,4.4,1.1,6.5l-6.6,5.7
		c0.3,1.1,0.6,2.2,0.9,3.4l8.6,1.6c0.7,2.1,1.5,4.2,2.3,6.2l-5.5,6.8c0.5,1.1,0.9,2.1,1.5,3.2l8.8,0.1c1,2,2.2,3.9,3.3,5.7l-4.3,7.7
		c0.7,1,1.3,1.9,2,2.8l8.6-1.4c1.4,1.7,2.8,3.4,4.2,5.1l-2.9,8.3c0.8,0.8,1.6,1.7,2.5,2.5l8.3-2.9c1.6,1.5,3.3,2.9,5.1,4.2l-1.4,8.6
		c0.9,0.7,1.9,1.4,2.8,2l7.7-4.3c1.9,1.2,3.8,2.3,5.7,3.3l0.1,8.8c1,0.5,2.1,1,3.2,1.5l6.8-5.5c2,0.8,4.1,1.6,6.2,2.3l1.6,8.6
		c1.1,0.3,2.2,0.6,3.4,0.9l5.7-6.6c2.2,0.5,4.3,0.8,6.5,1.1l3.1,8.2c1.2,0.1,2.3,0.2,3.5,0.3l4.5-7.5c1.1,0,2.2,0.1,3.3,0.1
		c1.1,0,2.2,0,3.3-0.1l4.5,7.5c1.2-0.1,2.3-0.2,3.5-0.3l3.1-8.2c2.2-0.3,4.4-0.7,6.5-1.1l5.7,6.6c1.1-0.3,2.2-0.6,3.4-0.9l1.6-8.6
		c2.1-0.7,4.2-1.5,6.2-2.3l6.8,5.5c1.1-0.5,2.1-0.9,3.2-1.5l0.1-8.8c2-1,3.9-2.2,5.7-3.3l7.7,4.3c1-0.7,1.9-1.3,2.8-2l-1.4-8.6
		c1.7-1.4,3.4-2.8,5.1-4.2l8.3,2.9c0.8-0.8,1.7-1.6,2.5-2.5l-2.9-8.3c1.5-1.6,2.9-3.3,4.2-5.1l8.6,1.4c0.7-0.9,1.4-1.9,2-2.8
		l-4.3-7.7c1.2-1.9,2.3-3.8,3.3-5.7l8.8-0.1c0.5-1,1-2.1,1.5-3.2l-5.5-6.8c0.8-2,1.6-4.1,2.3-6.2l8.6-1.6c0.3-1.1,0.6-2.2,0.9-3.4
		l-6.6-5.7c0.5-2.2,0.8-4.3,1.1-6.5l8.2-3.1c0.1-1.2,0.2-2.3,0.3-3.5l-7.5-4.5c0-1.1,0.1-2.2,0.1-3.3c0-1.1,0-2.2-0.1-3.3l7.5-4.5
		C259.3,112.7,259.2,111.6,259.1,110.4z"/>
	<path class="st1" d="M216.2,280.5l-18.5-69.7l-1.4-5.3l-1.4-5.1l2-3.4l-3.4-1.9l-1.4-5.1l2-3.4l-3.4-1.9l-1.3-5.1l2-3.4l-3.4-2
		l-1.3-5l2-3.4l-3.4-2l-1.3-5l2-3.5l-3.4-2l-1.3-5l2-3.5l-3.5-2l-1.3-5l2-3.5l-3.5-2l-3.4-13l0,0c-4.1-14.3-11.2-19.8-22.9-19.8
		c0,0,0,0,0,0c0,0,0,0,0,0c0,0,0,0,0,0c0,0,0,0,0,0c-11.6,0-18.7,5.5-22.8,19.8l0,0L97.5,233.1l-9.7,36.6L85,280.5
		c-0.1,0.3-0.1,0.6-0.1,1c0,2,1.6,3.6,3.6,3.6h7.7h109h3.4h4.3c2,0,3.6-1.6,3.6-3.6C216.4,281.1,216.3,280.8,216.2,280.5z
		 M134.4,128.2c0-0.9,0.7-1.6,1.6-1.6h29c0.9,0,1.6,0.7,1.6,1.6v116.5c0,0.9-0.7,1.6-1.6,1.6h-29c-0.9,0-1.6-0.7-1.6-1.6V128.2z"/>
	<path class="st2" d="M216.2,280.5l-18.5-69.7l-1.4-5.3l-1.4-5.1l2-3.4l-3.4-1.9l-1.4-5.1l2-3.4l-3.4-1.9l-1.3-5.1l2-3.4l-3.4-2
		l-1.3-5l2-3.4l-3.4-2l-1.3-5l2-3.5l-3.4-2l-1.3-5l2-3.5l-3.5-2l-1.3-5l2-3.5l-3.5-2l-3.4-13l0,0c-4.1-14.3-11.2-19.8-22.9-19.8
		c0,0,0,0,0,0c0,0,0,0,0,0c0,0,0,0,0,0c0,0,0,0,0,0c-11.6,0-18.7,5.5-22.8,19.8l0,0L97.5,233.1l-9.7,36.6L85,280.5
		c-0.1,0.3-0.1,0.6-0.1,1c0,2,1.6,3.6,3.6,3.6h7.7h109h3.4h4.3c2,0,3.6-1.6,3.6-3.6C216.4,281.1,216.3,280.8,216.2,280.5z
		 M134.4,128.2c0-0.9,0.7-1.6,1.6-1.6h29c0.9,0,1.6,0.7,1.6,1.6v116.5c0,0.9-0.7,1.6-1.6,1.6h-29c-0.9,0-1.6-0.7-1.6-1.6V128.2z"/>
	<path class="st3" d="M212.8,287.1H88.4c-3.1,0-5.7-2.6-5.7-5.7c0-0.5,0.1-1,0.2-1.5l42.7-161.2c4.2-14.7,11.9-21.3,24.9-21.3
		c13.1,0,20.7,6.6,25,21.3l0.1,0.3l3.2,11.9l4.6,2.6l-2.6,4.6l0.9,3.3l4.5,2.6l-2.6,4.6l0.9,3.3l4.5,2.6l-2.6,4.5l0.9,3.3l4.5,2.6
		l-2.6,4.5l0.9,3.3l4.5,2.6l-2.6,4.5l0.9,3.4l4.5,2.6l-2.6,4.5l0.9,3.4l4.5,2.6l-2.6,4.5l21,79.3c0.1,0.5,0.2,1,0.2,1.5
		C218.5,284.6,215.9,287.1,212.8,287.1z M129.8,119.8L129.8,119.8L87.1,281.1c0,0.2-0.1,0.3-0.1,0.4c0,0.8,0.6,1.4,1.4,1.4h124.4
		c0.8,0,1.4-0.6,1.4-1.4c0-0.1,0-0.3-0.1-0.4l0,0l-42.8-161.3c-3.7-12.8-9.8-18.1-20.8-18.1C139.6,101.7,133.5,106.9,129.8,119.8z
		 M165.1,248.4h-29c-2.1,0-3.7-1.7-3.7-3.7V128.2c0-2.1,1.7-3.7,3.7-3.7h29c2.1,0,3.7,1.7,3.7,3.7v116.5
		C168.8,246.7,167.1,248.4,165.1,248.4z M136.6,244.1h28V128.7h-28V244.1z"/>
	<path class="st4" d="M167.2,193.6h-33.3c-1.5,0-2.7,1.2-2.7,2.7v26.3V236v1.4c0,1.5,1.5,2.7,3,2.7h33c1.5,0,2.7-1.2,2.7-2.7v-41.2
		C169.9,194.8,168.7,193.6,167.2,193.6z"/>
	<g>
		<path class="st5" d="M104.1,108.6c0.2-0.8,0.5-1.6,0.8-2.4c0,0,0,0,0-0.1c0.8-2.4,1.9-4.7,3.1-7l0,0c0.1-0.2,0.2-0.5,0.4-0.7
			l-3.5-2.4c-1.6,2.8-2.9,5.7-3.9,8.8c0,0.1-0.1,0.3-0.1,0.4c-0.2,0.6-0.4,1.1-0.6,1.7l0,0c-0.1,0.3-0.2,0.5-0.3,0.8L104.1,108.6z"
			/>
		<path class="st5" d="M98.4,116.2L98.4,116.2c-0.1,0.5-0.1,1-0.1,1.6c0,0.3,0,0.5-0.1,0.8c0,0.6-0.1,1.2-0.1,1.8c0,0.4,0,0.9,0,1.3
			c0,0.4,0,0.8,0,1.3c0,0.6,0,1.2,0.1,1.8c0,0.3,0,0.5,0.1,0.8c0,0.5,0.1,1.1,0.1,1.6l0,0c0,0.3,0,0.6,0.1,0.9l4.1-0.9
			c-0.1-0.8-0.2-1.5-0.2-2.3c0-0.1,0-0.3,0-0.4c0-0.6,0-1.2-0.1-1.7c0-0.3,0-0.7,0-1c0-0.4,0-0.7,0-1c0-0.6,0-1.1,0.1-1.7
			c0-0.2,0-0.3,0-0.5c0.1-0.8,0.1-1.5,0.2-2.3l-4.1-0.9C98.4,115.6,98.4,115.9,98.4,116.2z"/>
		<path class="st5" d="M190.5,89c-0.3-0.4-0.7-0.8-1-1.2c-0.2-0.2-0.3-0.4-0.5-0.6c-0.4-0.5-0.8-0.9-1.2-1.3c-0.3-0.3-0.6-0.6-0.9-1
			c-0.3-0.3-0.6-0.6-0.9-0.9c-0.5-0.4-0.9-0.9-1.4-1.3c-0.2-0.2-0.4-0.3-0.5-0.5c-0.4-0.4-0.8-0.7-1.2-1.1l0,0
			c-0.2-0.2-0.4-0.4-0.7-0.5l-2.3,3.5c0.5,0.4,1,0.9,1.6,1.3c0.2,0.2,0.4,0.4,0.6,0.5c0.4,0.3,0.7,0.7,1.1,1
			c0.3,0.3,0.6,0.5,0.8,0.8c0.3,0.3,0.5,0.6,0.8,0.8c0.3,0.4,0.7,0.7,1,1.1c0.2,0.2,0.3,0.4,0.5,0.6c0.4,0.5,0.9,1,1.3,1.6l3.5-2.3
			C190.9,89.5,190.7,89.3,190.5,89L190.5,89z"/>
		<path class="st5" d="M166.5,72.4c-0.6-0.2-1.2-0.4-1.8-0.6l0,0c-0.3-0.1-0.5-0.2-0.8-0.3l-0.8,4.1c0.8,0.2,1.6,0.5,2.4,0.8
			c0,0,0.1,0,0.1,0c2.4,0.8,4.7,1.9,7,3.1l0,0c0.2,0.1,0.5,0.2,0.7,0.4l2.4-3.5c-2.8-1.6-5.7-2.9-8.8-3.9
			C166.8,72.5,166.7,72.4,166.5,72.4z"/>
		<path class="st5" d="M155.6,70c-0.5-0.1-1-0.1-1.6-0.1c-0.3,0-0.6,0-0.8-0.1c-0.6,0-1.2-0.1-1.8-0.1c-0.4,0-0.9,0-1.3,0
			c-0.4,0-0.9,0-1.3,0c-0.6,0-1.2,0-1.8,0.1c-0.3,0-0.6,0-0.8,0.1c-0.5,0-1,0.1-1.6,0.1l0,0c-0.3,0-0.6,0-0.9,0.1l0.9,4.1
			c0.8-0.1,1.5-0.2,2.3-0.2c0.2,0,0.3,0,0.5,0c0.6,0,1.2,0,1.7-0.1c0.3,0,0.7,0,1,0c0.3,0,0.7,0,1,0c0.6,0,1.1,0,1.7,0.1
			c0.2,0,0.3,0,0.5,0c0.8,0.1,1.5,0.1,2.3,0.2l0.9-4.1C156.1,70.1,155.9,70,155.6,70L155.6,70z"/>
		<path class="st5" d="M100.8,138.1c0,0.1,0.1,0.3,0.1,0.4c1.1,3.1,2.4,6,3.9,8.8l3.5-2.4c-0.1-0.2-0.2-0.5-0.4-0.7l0,0
			c-1.2-2.2-2.2-4.6-3.1-7c0,0,0-0.1,0-0.1c-0.3-0.8-0.5-1.6-0.8-2.4l-4.1,0.8c0.1,0.3,0.2,0.5,0.3,0.8l0,0
			C100.4,137,100.6,137.5,100.8,138.1z"/>
		<path class="st5" d="M196.1,134.8c-0.2,0.8-0.5,1.6-0.8,2.4c0,0,0,0.1,0,0.1c-0.8,2.4-1.9,4.7-3.1,7l0,0c-0.1,0.2-0.2,0.5-0.4,0.7
			l3.5,2.4c1.6-2.8,2.9-5.7,3.9-8.8c0-0.1,0.1-0.3,0.1-0.4c0.2-0.6,0.4-1.1,0.6-1.7l0,0c0.1-0.3,0.2-0.5,0.3-0.8L196.1,134.8z"/>
		<path class="st5" d="M201.8,127.2L201.8,127.2c0.1-0.5,0.1-1,0.1-1.6c0-0.3,0-0.5,0.1-0.8c0-0.6,0.1-1.2,0.1-1.8
			c0-0.4,0-0.8,0-1.3c0-0.4,0-0.9,0-1.3c0-0.6,0-1.2-0.1-1.8c0-0.3,0-0.5-0.1-0.8c0-0.5-0.1-1-0.1-1.6l0,0c0-0.3,0-0.6-0.1-0.9
			l-4.1,0.9c0.1,0.8,0.2,1.5,0.2,2.3c0,0.2,0,0.3,0,0.5c0,0.6,0,1.1,0.1,1.7c0,0.3,0,0.7,0,1c0,0.3,0,0.7,0,1c0,0.6,0,1.2-0.1,1.7
			c0,0.1,0,0.3,0,0.4c-0.1,0.8-0.1,1.5-0.2,2.3l4.1,0.9C201.7,127.8,201.7,127.5,201.8,127.2z"/>
		<path class="st5" d="M199.4,105.3c0-0.1-0.1-0.3-0.1-0.4c-1.1-3.1-2.4-6-3.9-8.8l-3.5,2.4c0.1,0.2,0.2,0.5,0.4,0.7l0,0
			c1.2,2.2,2.2,4.6,3.1,7c0,0,0,0,0,0.1c0.3,0.8,0.5,1.6,0.8,2.4l4.1-0.8c-0.1-0.3-0.2-0.5-0.3-0.8l0,0
			C199.8,106.4,199.6,105.8,199.4,105.3z"/>
		<path class="st5" d="M80.9,112.9L80.9,112.9c-0.1,0.6-0.1,1.2-0.2,1.8c-0.1,0.8-0.2,1.6-0.2,2.4c-0.1,0.8-0.1,1.5-0.1,2.3
			c0,0.8-0.1,1.6-0.1,2.4c0,0.8,0,1.6,0.1,2.4c0,0.8,0,1.5,0.1,2.3c0.1,0.8,0.1,1.6,0.2,2.4c0.1,0.6,0.1,1.2,0.2,1.8l0,0
			c0,0.4,0.1,0.8,0.1,1.1l4.1-0.8c-0.1-0.9-0.2-1.9-0.3-2.8c-0.1-0.7-0.1-1.3-0.2-2c0-0.7-0.1-1.5-0.1-2.2c0-0.7-0.1-1.4-0.1-2.1
			c0-0.7,0-1.4,0.1-2.1c0-0.7,0-1.5,0.1-2.2c0-0.7,0.1-1.3,0.2-2c0.1-0.9,0.2-1.9,0.3-2.8l-4.1-0.8C81,112.1,81,112.5,80.9,112.9z"
			/>
		<path class="st5" d="M83.5,142.3c0.2,0.5,0.3,1,0.5,1.5c0.4,1.3,0.9,2.5,1.4,3.7c0.1,0.2,0.1,0.3,0.2,0.5c1.3,3.2,2.9,6.4,4.6,9.3
			l3.5-2.3c-0.2-0.3-0.3-0.6-0.5-0.9l0,0c-1.4-2.5-2.6-5-3.7-7.6c0-0.1-0.1-0.2-0.1-0.3c-0.5-1.2-0.9-2.3-1.3-3.5
			c-0.1-0.4-0.3-0.8-0.4-1.2c-0.3-1.1-0.7-2.1-0.9-3.2l-4.1,0.8c0.1,0.4,0.2,0.7,0.3,1.1l0,0C83,140.8,83.2,141.5,83.5,142.3z"/>
		<path class="st5" d="M86.6,105.3c0.3-1.1,0.6-2.1,0.9-3.2c0.1-0.4,0.2-0.8,0.4-1.2c0.4-1.2,0.8-2.4,1.3-3.5c0-0.1,0.1-0.2,0.1-0.3
			c1.1-2.6,2.3-5.2,3.7-7.6l0,0c0.2-0.3,0.3-0.6,0.5-0.9l-3.5-2.3c-1.8,3-3.3,6.1-4.6,9.3c-0.1,0.2-0.1,0.4-0.2,0.6
			c-0.5,1.2-0.9,2.4-1.4,3.7c-0.2,0.5-0.3,1-0.5,1.5c-0.2,0.7-0.5,1.5-0.7,2.2l0,0c-0.1,0.4-0.2,0.7-0.3,1.1L86.6,105.3z"/>
		<path class="st5" d="M128,55.6c-1.3,0.4-2.5,0.9-3.7,1.4c-0.2,0.1-0.3,0.1-0.5,0.2c-3.3,1.3-6.4,2.9-9.3,4.6l2.3,3.5
			c0.3-0.2,0.6-0.3,0.9-0.5l0,0c2.5-1.4,5-2.6,7.6-3.7c0.1,0,0.2-0.1,0.3-0.1c1.2-0.5,2.3-0.9,3.5-1.3c0.4-0.1,0.8-0.3,1.2-0.4
			c1-0.3,2.1-0.7,3.2-0.9l-0.8-4.1c-0.4,0.1-0.7,0.2-1.1,0.3l0,0c-0.8,0.2-1.5,0.5-2.3,0.7C129,55.3,128.5,55.4,128,55.6z"/>
		<path class="st5" d="M195.2,68.5c-0.8-0.7-1.6-1.4-2.4-2l0,0.1c-0.3-0.2-0.6-0.5-0.9-0.7l-2.3,3.5c1,0.8,2,1.6,3,2.4
			c0.2,0.1,0.4,0.3,0.5,0.4c0.7,0.6,1.4,1.3,2.1,1.9c0.4,0.4,0.9,0.8,1.3,1.2c0.4,0.4,0.8,0.8,1.2,1.3c0.7,0.7,1.3,1.4,2,2.1
			c0.1,0.2,0.3,0.3,0.4,0.5c0.8,1,1.6,2,2.4,3l3.5-2.3c-0.2-0.3-0.5-0.6-0.7-0.9l0,0c-0.6-0.8-1.3-1.6-2-2.4
			c-0.2-0.2-0.3-0.4-0.4-0.5c-0.7-0.8-1.4-1.6-2.1-2.3c-0.4-0.5-0.9-1-1.4-1.4c-0.4-0.4-0.9-0.9-1.3-1.3c-0.8-0.7-1.6-1.5-2.4-2.2
			C195.5,68.8,195.3,68.7,195.2,68.5z"/>
		<path class="st5" d="M158.9,52.5c-0.6-0.1-1.2-0.1-1.8-0.2c-0.8-0.1-1.6-0.2-2.4-0.2c-0.8-0.1-1.5-0.1-2.3-0.1
			c-0.8,0-1.6-0.1-2.4-0.1c-0.8,0-1.6,0-2.4,0.1c-0.8,0-1.5,0-2.3,0.1c-0.8,0.1-1.6,0.1-2.4,0.2c-0.6,0.1-1.2,0.1-1.8,0.2l0,0
			c-0.4,0-0.8,0.1-1.1,0.1l0.8,4.1c0.9-0.1,1.9-0.2,2.8-0.3c0.7-0.1,1.3-0.1,2-0.2c0.7,0,1.5-0.1,2.2-0.1c0.7,0,1.4-0.1,2.1-0.1
			s1.4,0,2.1,0.1c0.7,0,1.5,0,2.2,0.1c0.7,0,1.3,0.1,2,0.2c0.9,0.1,1.9,0.2,2.8,0.3l0.8-4.1C159.7,52.6,159.3,52.6,158.9,52.5
			L158.9,52.5z"/>
		<path class="st5" d="M215.5,126c0,0.7-0.1,1.3-0.2,2c-0.1,0.9-0.2,1.9-0.3,2.8l4.1,0.8c0.1-0.4,0.1-0.8,0.1-1.1l0,0
			c0.1-0.6,0.1-1.2,0.2-1.8c0.1-0.8,0.2-1.6,0.2-2.4c0.1-0.8,0.1-1.5,0.1-2.3c0-0.8,0.1-1.6,0.1-2.4c0-0.8,0-1.6-0.1-2.4
			c0-0.8,0-1.5-0.1-2.3c-0.1-0.8-0.1-1.6-0.2-2.4c-0.1-0.6-0.1-1.2-0.2-1.8l0,0c0-0.4-0.1-0.8-0.1-1.1l-4.1,0.8
			c0.1,0.9,0.2,1.9,0.3,2.8c0.1,0.7,0.1,1.3,0.2,2c0,0.7,0.1,1.5,0.1,2.2c0,0.7,0.1,1.4,0.1,2.1c0,0.7,0,1.4-0.1,2.1
			C215.6,124.5,215.6,125.3,215.5,126z"/>
		<path class="st5" d="M216.7,101.2c-0.2-0.5-0.3-1-0.5-1.5c-0.4-1.2-0.9-2.5-1.4-3.7c-0.1-0.2-0.1-0.4-0.2-0.6
			c-1.3-3.2-2.8-6.4-4.6-9.3l-3.5,2.3c0.2,0.3,0.3,0.6,0.5,0.9l0,0c1.4,2.5,2.6,5,3.7,7.6c0,0.1,0.1,0.2,0.1,0.3
			c0.5,1.2,0.9,2.3,1.3,3.5c0.1,0.4,0.3,0.8,0.4,1.2c0.3,1.1,0.7,2.1,0.9,3.2l4.1-0.8c-0.1-0.4-0.2-0.7-0.3-1.1l0,0
			C217.2,102.6,216.9,101.9,216.7,101.2z"/>
		<path class="st5" d="M67.4,132.9c-0.1-0.9-0.2-1.7-0.3-2.6c0-0.2,0-0.3,0-0.5c-0.1-0.8-0.1-1.6-0.2-2.4c0-0.3,0-0.5,0-0.8
			c0-0.7-0.1-1.4-0.1-2.1c0-0.4,0-0.8,0-1.2c0-0.5,0-1.1,0-1.6c0-0.6,0-1.1,0-1.7c0-0.4,0-0.8,0-1.2c0-0.7,0.1-1.4,0.1-2.1
			c0-0.3,0-0.5,0-0.8c0.1-0.8,0.1-1.6,0.2-2.4c0-0.2,0-0.3,0-0.5c0.1-0.9,0.2-1.8,0.3-2.6c0.1-0.5,0.1-1,0.2-1.5l-4.2-0.9
			c-0.1,0.5-0.1,1-0.2,1.4l0,0c0,0.3-0.1,0.5-0.1,0.8c-0.1,0.6-0.2,1.2-0.2,1.8c-0.1,0.5-0.1,1-0.1,1.4c-0.1,0.6-0.1,1.2-0.2,1.8
			c0,0.5-0.1,1-0.1,1.5c0,0.6-0.1,1.1-0.1,1.7c0,0.5,0,1,0,1.6c0,0.5,0,1.1,0,1.6c0,0.5,0,1.1,0,1.6c0,0.5,0,1.1,0,1.6
			c0,0.6,0.1,1.1,0.1,1.7c0,0.5,0.1,1,0.1,1.5c0,0.6,0.1,1.2,0.1,1.7c0,0.5,0.1,1,0.1,1.4c0.1,0.6,0.1,1.2,0.2,1.8
			c0,0.3,0.1,0.5,0.1,0.8l0,0c0.1,0.5,0.1,0.9,0.2,1.4l4.2-0.9C67.5,133.9,67.5,133.4,67.4,132.9z"/>
		<path class="st5" d="M69,101.9c1.9-7.9,5-15.4,9.1-22.4l0,0c0.2-0.4,0.5-0.8,0.7-1.2L75.2,76c-4.4,7.2-7.9,15.2-10.1,23.8l0,0
			c-0.1,0.5-0.3,0.9-0.4,1.4L69,101.9z"/>
		<path class="st5" d="M107.9,49.7L107.9,49.7c7-4,14.5-7.1,22.4-9.1l-0.8-4.2c-0.5,0.1-0.9,0.2-1.4,0.4l0,0
			c-8.6,2.2-16.5,5.7-23.8,10.1l2.4,3.5C107.1,50.1,107.5,49.9,107.9,49.7z"/>
		<path class="st5" d="M82.8,72.4c1.8-2.4,3.6-4.7,5.6-6.9c0.1-0.1,0.1-0.2,0.2-0.2c0.5-0.6,1-1.1,1.6-1.7c0.3-0.3,0.6-0.6,0.9-0.9
			c0.3-0.3,0.6-0.6,0.9-0.9c0.5-0.5,1.1-1,1.6-1.5c0.1-0.1,0.2-0.2,0.3-0.2c2.2-2,4.5-3.9,6.9-5.6l-2.3-3.6
			c-0.4,0.3-0.8,0.6-1.1,0.9l0,0c-1.3,1-2.6,2-3.8,3.1c0,0-0.1,0.1-0.1,0.1c-0.7,0.6-1.4,1.2-2.1,1.8c-0.2,0.2-0.4,0.4-0.6,0.5
			c-0.5,0.5-1,1-1.5,1.5c-0.3,0.3-0.7,0.7-1,1c-0.3,0.3-0.7,0.7-1,1.1c-0.5,0.5-1,1-1.4,1.5c-0.2,0.2-0.4,0.4-0.6,0.6
			c-0.6,0.7-1.2,1.4-1.8,2c0,0-0.1,0.1-0.1,0.1c-1.1,1.3-2.1,2.5-3.1,3.8l0,0c-0.3,0.4-0.6,0.8-0.9,1.1L82.8,72.4z"/>
		<path class="st5" d="M220.1,68.9c-1-1.3-2-2.6-3.1-3.8c0,0-0.1-0.1-0.1-0.1c-0.6-0.7-1.2-1.4-1.8-2c-0.2-0.2-0.4-0.4-0.6-0.6
			c-0.5-0.5-0.9-1-1.4-1.5c-0.3-0.4-0.7-0.7-1-1.1c-0.3-0.3-0.7-0.7-1-1c-0.5-0.5-1-1-1.5-1.5c-0.2-0.2-0.4-0.4-0.6-0.5
			c-0.7-0.6-1.4-1.2-2.1-1.8c0,0-0.1-0.1-0.1-0.1c-1.3-1.1-2.5-2.1-3.8-3.1l0,0c-0.4-0.3-0.8-0.6-1.1-0.9l-2.3,3.6
			c2.4,1.7,4.7,3.6,6.9,5.6c0.1,0.1,0.2,0.2,0.3,0.2c0.5,0.5,1.1,1,1.6,1.5c0.3,0.3,0.6,0.6,0.9,0.9c0.3,0.3,0.6,0.6,0.9,0.9
			c0.5,0.5,1.1,1.1,1.6,1.7c0.1,0.1,0.1,0.2,0.2,0.2c2,2.2,3.9,4.5,5.6,6.9l3.6-2.3C220.7,69.7,220.4,69.3,220.1,68.9L220.1,68.9z"
			/>
		<path class="st5" d="M192.2,49.7c0.4,0.2,0.8,0.5,1.2,0.7l2.4-3.5c-7.2-4.4-15.2-7.9-23.8-10.1l0,0c-0.5-0.1-0.9-0.3-1.4-0.4
			l-0.8,4.2C177.8,42.6,185.3,45.6,192.2,49.7L192.2,49.7z"/>
		<path class="st5" d="M231.2,141.5c-1.9,7.9-5,15.4-9.1,22.4l0,0c-0.2,0.4-0.5,0.8-0.7,1.2l3.5,2.4c4.4-7.2,7.9-15.2,10.1-23.8l0,0
			c0.1-0.5,0.3-0.9,0.4-1.4L231.2,141.5z"/>
		<path class="st5" d="M237.8,120.1c0-0.5,0-1,0-1.6c0-0.6-0.1-1.1-0.1-1.7c0-0.5-0.1-1-0.1-1.5c0-0.6-0.1-1.2-0.2-1.8
			c0-0.5-0.1-1-0.1-1.4c-0.1-0.6-0.1-1.2-0.2-1.8c0-0.3-0.1-0.5-0.1-0.8l0,0c-0.1-0.5-0.1-0.9-0.2-1.4l-4.2,0.9
			c0.1,0.5,0.1,1,0.2,1.5c0.1,0.9,0.2,1.7,0.3,2.6c0,0.2,0,0.3,0,0.5c0.1,0.8,0.1,1.6,0.2,2.4c0,0.3,0,0.5,0,0.8
			c0,0.7,0.1,1.4,0.1,2.1c0,0.4,0,0.8,0,1.2c0,0.6,0,1.1,0,1.7c0,0.6,0,1.1,0,1.7c0,0.4,0,0.8,0,1.2c0,0.7-0.1,1.4-0.1,2.1
			c0,0.3,0,0.5,0,0.8c-0.1,0.8-0.1,1.6-0.2,2.4c0,0.2,0,0.3,0,0.5c-0.1,0.9-0.2,1.7-0.3,2.6c-0.1,0.5-0.1,1-0.2,1.5l4.2,0.9
			c0.1-0.5,0.1-1,0.2-1.4l0,0c0-0.3,0.1-0.5,0.1-0.8c0.1-0.6,0.2-1.2,0.2-1.8c0.1-0.5,0.1-1,0.1-1.4c0.1-0.6,0.1-1.2,0.1-1.7
			c0-0.5,0.1-1,0.1-1.5c0-0.6,0.1-1.1,0.1-1.7c0-0.5,0-1,0-1.6c0-0.5,0-1.1,0-1.6C237.8,121.2,237.8,120.6,237.8,120.1z"/>
		<path class="st5" d="M117.4,81.3L117.4,81.3c-0.4,0.3-0.8,0.7-1.3,1c-0.2,0.2-0.4,0.3-0.5,0.5c-0.5,0.4-0.9,0.8-1.4,1.3
			c-0.3,0.3-0.6,0.6-0.9,0.9c-0.3,0.3-0.6,0.6-0.9,1c-0.4,0.4-0.8,0.9-1.2,1.3c-0.2,0.2-0.3,0.4-0.5,0.6c-0.3,0.4-0.7,0.8-1,1.2l0,0
			c-0.2,0.2-0.4,0.4-0.5,0.7l3.5,2.3c0.4-0.5,0.9-1,1.3-1.6c0.2-0.2,0.3-0.4,0.5-0.6c0.3-0.4,0.7-0.7,1-1.1c0.3-0.3,0.5-0.6,0.8-0.8
			c0.3-0.3,0.6-0.5,0.8-0.8c0.4-0.3,0.7-0.7,1.1-1c0.2-0.2,0.4-0.4,0.6-0.5c0.5-0.4,1-0.9,1.6-1.3l-2.3-3.5
			C117.9,80.9,117.7,81.1,117.4,81.3z"/>
		<path class="st5" d="M135.4,71.9L135.4,71.9c-0.6,0.1-1.2,0.4-1.8,0.5c-0.1,0-0.2,0.1-0.3,0.1c-3.1,1.1-6,2.4-8.8,3.9l2.4,3.5
			c0.2-0.1,0.5-0.2,0.7-0.4l0,0c2.2-1.2,4.6-2.2,7-3.1c0,0,0.1,0,0.1,0c0.8-0.3,1.6-0.5,2.4-0.8l-0.8-4.1
			C135.9,71.7,135.7,71.8,135.4,71.9z"/>
		<path class="st5" d="M210,157.3c1.8-3,3.3-6.1,4.6-9.3c0.1-0.2,0.1-0.3,0.2-0.5c0.5-1.2,0.9-2.4,1.4-3.7c0.2-0.5,0.3-1,0.5-1.5
			c0.2-0.7,0.5-1.5,0.7-2.2l0,0c0.1-0.4,0.2-0.7,0.3-1.1l-4.1-0.8c-0.3,1.1-0.6,2.1-0.9,3.2c-0.1,0.4-0.2,0.8-0.4,1.2
			c-0.4,1.2-0.8,2.4-1.3,3.5c0,0.1-0.1,0.2-0.1,0.3c-1.1,2.6-2.3,5.2-3.7,7.6l0,0c-0.2,0.3-0.3,0.6-0.5,0.9L210,157.3z"/>
		<path class="st5" d="M170.9,59.5c1.2,0.4,2.3,0.8,3.5,1.3c0.1,0,0.2,0.1,0.3,0.1c2.6,1.1,5.2,2.3,7.6,3.7l0,0
			c0.3,0.2,0.6,0.3,0.9,0.5l2.3-3.5c-3-1.8-6.1-3.3-9.3-4.6c-0.2-0.1-0.3-0.1-0.5-0.2c-1.2-0.5-2.5-1-3.7-1.4
			c-0.5-0.2-1-0.3-1.5-0.5c-0.8-0.2-1.5-0.5-2.3-0.7l0,0c-0.4-0.1-0.7-0.2-1.1-0.3l-0.8,4.1c1.1,0.3,2.1,0.6,3.2,0.9
			C170.1,59.3,170.5,59.4,170.9,59.5z"/>
		<path class="st5" d="M97.3,76.1c-0.2,0.2-0.3,0.4-0.4,0.5c-0.7,0.8-1.3,1.5-2,2.3l0,0c-0.2,0.3-0.5,0.6-0.7,0.9l3.5,2.3
			c0.8-1,1.6-2,2.4-3c0.1-0.2,0.3-0.3,0.4-0.5c0.6-0.7,1.3-1.4,2-2.1c0.4-0.4,0.8-0.9,1.2-1.3c0.4-0.4,0.9-0.8,1.3-1.2
			c0.7-0.7,1.4-1.3,2.1-1.9c0.2-0.1,0.3-0.3,0.5-0.4c1-0.8,2-1.6,3-2.4l-2.3-3.5c-0.3,0.2-0.6,0.5-0.9,0.7l0-0.1
			c-0.8,0.6-1.6,1.3-2.4,2c-0.2,0.1-0.3,0.3-0.5,0.4c-0.8,0.7-1.6,1.4-2.4,2.2c-0.4,0.4-0.9,0.8-1.3,1.3c-0.5,0.5-0.9,0.9-1.4,1.4
			C98.7,74.6,98,75.3,97.3,76.1z"/>
		<path class="st5" d="M222.1,79.6c4.1,6.9,7.1,14.5,9.1,22.4l4.2-0.8c-0.1-0.5-0.2-0.9-0.4-1.4l0,0c-2.2-8.6-5.7-16.5-10.1-23.8
			l-3.5,2.4C221.6,78.7,221.9,79.1,222.1,79.6L222.1,79.6z"/>
		<path class="st5" d="M78.1,163.8c-4.1-6.9-7.1-14.5-9.1-22.4l-4.2,0.8c0.1,0.5,0.2,0.9,0.4,1.4l0,0c2.2,8.6,5.7,16.5,10.1,23.8
			l3.5-2.4C78.5,164.6,78.3,164.3,78.1,163.8L78.1,163.8z"/>
		<path class="st5" d="M162.3,34.8L162.3,34.8c-0.3,0-0.5-0.1-0.8-0.1c-0.6-0.1-1.2-0.2-1.8-0.2c-0.5-0.1-1-0.1-1.4-0.1
			c-0.6-0.1-1.2-0.1-1.7-0.1c-0.5,0-1-0.1-1.5-0.1c-0.6,0-1.1-0.1-1.7-0.1c-0.5,0-1.1,0-1.6,0c-0.5,0-1.1,0-1.6,0
			c-0.5,0-1.1,0-1.6,0c-0.5,0-1.1,0-1.6,0c-0.6,0-1.1,0.1-1.7,0.1c-0.5,0-1,0.1-1.5,0.1c-0.6,0-1.2,0.1-1.7,0.1
			c-0.5,0-1,0.1-1.4,0.1c-0.6,0.1-1.2,0.1-1.8,0.2c-0.3,0-0.5,0.1-0.8,0.1l0,0c-0.5,0.1-0.9,0.1-1.4,0.2l0.9,4.2
			c0.5-0.1,1-0.1,1.5-0.2c0.9-0.1,1.7-0.2,2.6-0.3c0.2,0,0.3,0,0.5,0c0.8-0.1,1.6-0.1,2.4-0.2c0.3,0,0.5,0,0.8,0
			c0.7,0,1.4-0.1,2.1-0.1c0.4,0,0.8,0,1.2,0c0.6,0,1.1,0,1.7,0c0.6,0,1.1,0,1.7,0c0.4,0,0.8,0,1.2,0c0.7,0,1.4,0.1,2.1,0.1
			c0.3,0,0.5,0,0.8,0c0.8,0.1,1.6,0.1,2.4,0.2c0.2,0,0.3,0,0.5,0c0.9,0.1,1.7,0.2,2.6,0.3c0.5,0.1,1,0.1,1.5,0.2l0.9-4.2
			C163.2,35,162.7,34.9,162.3,34.8z"/>
		<path class="st5" d="M89.1,184.7c0.5,0.5,1,1,1.5,1.5c0.2,0.2,0.4,0.4,0.6,0.5c0.7,0.6,1.4,1.2,2.1,1.8c0,0,0.1,0.1,0.1,0.1
			c1.3,1.1,2.5,2.1,3.8,3.1l0,0c0.3,0.2,0.6,0.5,0.9,0.7l1.2-4.5c-1.9-1.4-3.7-2.9-5.5-4.5c-0.1-0.1-0.2-0.2-0.3-0.3
			c-0.5-0.5-1.1-1-1.6-1.5c-0.3-0.3-0.7-0.6-1-1c-0.3-0.3-0.6-0.6-0.8-0.9c-0.5-0.6-1.1-1.1-1.6-1.7c-0.1-0.1-0.1-0.1-0.2-0.2
			c-2-2.2-3.9-4.5-5.7-6.9l-3.6,2.3c0.3,0.4,0.6,0.8,0.9,1.1l0,0c1,1.3,2,2.6,3.1,3.8c0,0,0.1,0.1,0.1,0.1c0.6,0.7,1.2,1.4,1.8,2.1
			c0.2,0.2,0.4,0.4,0.6,0.6c0.5,0.5,1,1,1.4,1.5c0.3,0.4,0.7,0.7,1,1C88.4,184.1,88.8,184.4,89.1,184.7z"/>
		<path class="st5" d="M103.3,173.3l1.2-4.6c-2.2-2.1-4.2-4.3-6.1-6.7l-3.5,2.3C97.4,167.6,100.3,170.6,103.3,173.3z"/>
		<path class="st5" d="M197.8,172.5c0.4-0.4,0.8-0.8,1.2-1.2c0.2-0.2,0.3-0.4,0.5-0.5c0.7-0.7,1.4-1.4,2.1-2.2
			c0.6-0.6,1.1-1.3,1.7-1.9c0.2-0.3,0.4-0.5,0.7-0.8c0.4-0.5,0.8-1,1.2-1.5l0,0c0.2-0.3,0.5-0.6,0.7-0.9l-3.5-2.3
			c-0.7,0.9-1.4,1.9-2.2,2.7c0,0-0.1,0.1-0.1,0.1c-0.6,0.8-1.3,1.5-2,2.2c-0.2,0.2-0.5,0.5-0.7,0.7c-0.3,0.3-0.5,0.5-0.8,0.8
			L197.8,172.5z"/>
		<path class="st5" d="M221,173.3l-3.6-2.3c-1.8,2.4-3.6,4.7-5.7,6.9c-0.1,0.1-0.1,0.1-0.2,0.2c-0.5,0.6-1.1,1.1-1.6,1.7
			c-0.3,0.3-0.6,0.6-0.8,0.9c-0.3,0.3-0.7,0.7-1,1c-0.5,0.5-1,1-1.6,1.5c-0.1,0.1-0.2,0.2-0.3,0.3c-1.5,1.3-3,2.6-4.5,3.8l1.2,4.5
			c1.3-1,2.6-2,3.8-3.1c0,0,0.1-0.1,0.1-0.1c0.7-0.6,1.4-1.2,2.1-1.8c0.2-0.2,0.4-0.4,0.6-0.5c0.5-0.5,1-1,1.5-1.5
			c0.3-0.3,0.7-0.7,1-1c0.3-0.3,0.7-0.7,1-1c0.5-0.5,1-1,1.4-1.5c0.2-0.2,0.4-0.4,0.6-0.6c0.6-0.7,1.2-1.4,1.8-2.1
			c0,0,0.1-0.1,0.1-0.1c1.1-1.3,2.1-2.5,3.1-3.8l0,0C220.4,174.1,220.7,173.7,221,173.3z"/>
	</g>
	<path class="st6" d="M216.2,280.5l-14.9-56l-25.7-25.7v49c0,2.8-2.3,5.1-5.1,5.1h-39.5c-2.9,0-5.5-2.4-5.5-5.1v-49.1l-25.7,25.7
		l-6.6,24.8l-1,3.9L85,280.5c-0.1,0.3-0.1,0.6-0.1,1c0,2,1.6,3.6,3.6,3.6h10.1h104.2h10.1c2,0,3.6-1.6,3.6-3.6
		C216.4,281.1,216.3,280.8,216.2,280.5z"/>
</g>
</svg>
