<?xml version="1.0" encoding="utf-8"?>
<!-- Generator: Adobe Illustrator 21.0.0, SVG Export Plug-In . SVG Version: 6.00 Build 0)  -->
<svg version="1.1" id="Слой_1" xmlns="http://www.w3.org/2000/svg" xmlns:xlink="http://www.w3.org/1999/xlink" x="0px" y="0px"
	 viewBox="0 0 300 300" style="enable-background:new 0 0 300 300;" xml:space="preserve">
<style type="text/css">
	.st0{fill:#725846;}
	.st1{fill:#4D5B9D;stroke:#000000;stroke-width:4.2706;stroke-miterlimit:10;}
	.st2{fill:#D14A43;}
	.st3{fill:#E8A754;stroke:#000000;stroke-width:4.2706;stroke-miterlimit:10;}
	.st4{fill:#000105;}
	.st5{fill:#4D5B9D;stroke:#000105;stroke-width:4.2706;stroke-miterlimit:10;}
</style>
<rect x="96.5" y="49.6" class="st0" width="173.8" height="167.4"/>
<path class="st1" d="M271.7,42.5H95.1c-3.2,0-5.8,2.6-5.8,5.8v176.5c0,3.2,2.6,5.8,5.8,5.8h176.5c3.2,0,5.8-2.6,5.8-5.8V48.3
	C277.4,45.1,274.9,42.5,271.7,42.5z M145.2,53.8h30.3v8.8h-30.3V53.8z M104,131.4h158.9v75.3H104V131.4z"/>
<rect x="149.3" y="85.9" width="22.5" height="32.7"/>
<polygon class="st2" points="168.2,89 154.9,89 154.1,89.5 156.8,91.5 165.8,91.5 169.3,89.8 "/>
<polygon class="st2" points="152.3,115.6 165.1,115.6 165.8,115.1 163.2,113.2 154.6,113.2 151.3,114.8 "/>
<polygon class="st2" points="165,104.4 164,112.5 166.2,114 166.3,114 167.5,103.1 "/>
<polygon class="st2" points="167.6,102 168.9,91 166.4,92.2 165.4,100.5 "/>
<polygon class="st2" points="166.6,102.5 164.9,101.3 155.9,101.3 153.7,102.3 154.7,103.1 155.6,103.7 164.2,103.7 "/>
<circle cx="201.4" cy="118.2" r="3.9"/>
<circle cx="182.9" cy="118.2" r="3.9"/>
<g>
	<rect x="111" y="140.4" class="st3" width="13.1" height="15.2"/>
	<rect x="129.8" y="140.4" class="st3" width="13.1" height="15.2"/>
	<rect x="148.6" y="140.4" class="st3" width="13.1" height="15.2"/>
	<rect x="167.4" y="140.4" class="st3" width="13.1" height="15.2"/>
	<rect x="186.2" y="140.4" class="st3" width="13.1" height="15.2"/>
	<rect x="205" y="140.4" class="st3" width="13.1" height="15.2"/>
	<rect x="223.8" y="140.4" class="st3" width="13.1" height="15.2"/>
	<rect x="242.5" y="140.4" class="st3" width="13.1" height="15.2"/>
	<rect x="111" y="161.8" class="st3" width="13.1" height="15.2"/>
	<rect x="129.8" y="161.8" class="st3" width="13.1" height="15.2"/>
	<rect x="148.6" y="161.8" class="st3" width="13.1" height="15.2"/>
	<rect x="167.4" y="161.8" class="st3" width="13.1" height="15.2"/>
	<rect x="186.2" y="161.8" class="st3" width="13.1" height="15.2"/>
	<rect x="205" y="161.8" class="st3" width="13.1" height="15.2"/>
	<rect x="223.8" y="161.8" class="st3" width="13.1" height="15.2"/>
	<rect x="242.5" y="161.8" class="st3" width="13.1" height="15.2"/>
	<rect x="111" y="183" class="st3" width="13.1" height="15.2"/>
	<rect x="129.8" y="183" class="st3" width="13.1" height="15.2"/>
	<rect x="148.6" y="183" class="st3" width="13.1" height="15.2"/>
	<rect x="167.4" y="183" class="st3" width="13.1" height="15.2"/>
	<rect x="186.2" y="183" class="st3" width="13.1" height="15.2"/>
	<rect x="205" y="183" class="st3" width="13.1" height="15.2"/>
	<rect x="223.8" y="183" class="st3" width="13.1" height="15.2"/>
	<rect x="242.5" y="183" class="st3" width="13.1" height="15.2"/>
</g>
<polygon class="st4" points="111,147 111,140.4 117.5,140.4 "/>
<polygon class="st4" points="129.8,147 129.8,140.4 136.3,140.4 "/>
<polygon class="st4" points="148.6,147 148.6,140.4 155.1,140.4 "/>
<polygon class="st4" points="167.4,147 167.4,140.4 173.9,140.4 "/>
<polygon class="st4" points="186.2,147 186.2,140.4 192.7,140.4 "/>
<polygon class="st4" points="205,147 205,140.4 211.5,140.4 "/>
<polygon class="st4" points="223.8,147 223.8,140.4 230.3,140.4 "/>
<polygon class="st4" points="242.5,147 242.5,140.4 249.1,140.4 "/>
<polygon class="st4" points="111.4,168.3 111.4,161.8 118,161.8 "/>
<polygon class="st4" points="130.2,168.3 130.2,161.8 136.7,161.8 "/>
<polygon class="st4" points="149,168.3 149,161.8 155.5,161.8 "/>
<polygon class="st4" points="167.8,168.3 167.8,161.8 174.3,161.8 "/>
<polygon class="st4" points="186.6,168.3 186.6,161.8 193.1,161.8 "/>
<polygon class="st4" points="205.4,168.3 205.4,161.8 211.9,161.8 "/>
<polygon class="st4" points="224.2,168.3 224.2,161.8 230.7,161.8 "/>
<polygon class="st4" points="243,168.3 243,161.8 249.5,161.8 "/>
<polygon class="st4" points="111.4,189.6 111.4,183 118,183 "/>
<polygon class="st4" points="130.2,189.6 130.2,183 136.7,183 "/>
<polygon class="st4" points="149,189.6 149,183 155.5,183 "/>
<polygon class="st4" points="167.8,189.6 167.8,183 174.3,183 "/>
<polygon class="st4" points="186.6,189.6 186.6,183 193.1,183 "/>
<polygon class="st4" points="205.4,189.6 205.4,183 211.9,183 "/>
<polygon class="st4" points="224.2,189.6 224.2,183 230.7,183 "/>
<polygon class="st4" points="243,189.6 243,183 249.5,183 "/>
<rect x="33.8" y="175.7" class="st0" width="173.3" height="72.2"/>
<path class="st5" d="M24.1,152.6v21.3v75.9c0,0.2,0,0.4,0,0.6c0.3,3,2.9,5.4,6.1,5.4h0h182.4c3.2,0,5.8-2.4,6.1-5.4
	c0-0.2,0-0.4,0-0.6v-75.9v-21.3c0-3.3-2.7-6-6.1-6l-74.4,0v0c-1.6,0-3,0.8-3.8,2h0l-3.1,4.6h0c-0.8,1.3-2.2,2.1-3.9,2.1
	c0,0-0.1,0-0.1,0h-50c-1.6,0-3-0.9-3.8-2.1h0l-3.1-4.5c-0.8-1.3-2.2-2.1-3.9-2.1v0l-36.3,0C26.9,146.6,24.1,149.3,24.1,152.6z
	 M40.4,240.7c-0.9,0-1.6-0.7-1.6-1.6v-47c0-0.9,0.7-1.6,1.6-1.6h162.1c0.9,0,1.6,0.7,1.6,1.6v47c0,0.9-0.7,1.6-1.6,1.6H40.4z"/>
<g>
	<rect x="49.5" y="197.5" class="st3" width="13" height="15.1"/>
	<rect x="68.1" y="197.5" class="st3" width="13" height="15.1"/>
	<rect x="86.8" y="197.5" class="st3" width="13" height="15.1"/>
	<rect x="105.5" y="197.5" class="st3" width="13" height="15.1"/>
	<rect x="124.1" y="197.5" class="st3" width="13" height="15.1"/>
	<rect x="142.8" y="197.5" class="st3" width="13" height="15.1"/>
	<rect x="161.5" y="197.5" class="st3" width="13" height="15.1"/>
	<rect x="180.1" y="197.5" class="st3" width="13" height="15.1"/>
	<rect x="49.5" y="218.6" class="st3" width="13" height="15.1"/>
	<rect x="68.1" y="218.6" class="st3" width="13" height="15.1"/>
	<rect x="86.8" y="218.6" class="st3" width="13" height="15.1"/>
	<rect x="105.5" y="218.6" class="st3" width="13" height="15.1"/>
	<rect x="124.1" y="218.6" class="st3" width="13" height="15.1"/>
	<rect x="142.8" y="218.6" class="st3" width="13" height="15.1"/>
	<rect x="161.5" y="218.6" class="st3" width="13" height="15.1"/>
	<rect x="180.1" y="218.6" class="st3" width="13" height="15.1"/>
</g>
<polygon class="st4" points="49.5,204 49.5,197.5 56,197.5 "/>
<polygon class="st4" points="68.1,204 68.1,197.5 74.6,197.5 "/>
<polygon class="st4" points="86.8,204 86.8,197.5 93.3,197.5 "/>
<polygon class="st4" points="105.5,204 105.5,197.5 112,197.5 "/>
<polygon class="st4" points="124.1,204 124.1,197.5 130.6,197.5 "/>
<polygon class="st4" points="142.8,204 142.8,197.5 149.3,197.5 "/>
<polygon class="st4" points="161.5,204 161.5,197.5 168,197.5 "/>
<polygon class="st4" points="180.1,204 180.1,197.5 186.6,197.5 "/>
<polygon class="st4" points="49.9,225.2 49.9,218.6 56.4,218.6 "/>
<polygon class="st4" points="68.5,225.2 68.5,218.6 75.1,218.6 "/>
<polygon class="st4" points="87.2,225.2 87.2,218.6 93.7,218.6 "/>
<polygon class="st4" points="105.9,225.2 105.9,218.6 112.4,218.6 "/>
<polygon class="st4" points="124.5,225.2 124.5,218.6 131.1,218.6 "/>
<polygon class="st4" points="143.2,225.2 143.2,218.6 149.7,218.6 "/>
<polygon class="st4" points="161.9,225.2 161.9,218.6 168.4,218.6 "/>
<polygon class="st4" points="180.5,225.2 180.5,218.6 187,218.6 "/>
</svg>
