<?xml version="1.0" encoding="utf-8"?>
<!-- Generator: Adobe Illustrator 21.0.0, SVG Export Plug-In . SVG Version: 6.00 Build 0)  -->
<svg version="1.1" id="Слой_1" xmlns="http://www.w3.org/2000/svg" xmlns:xlink="http://www.w3.org/1999/xlink" x="0px" y="0px"
	 viewBox="0 0 300 300" style="enable-background:new 0 0 300 300;" xml:space="preserve">
<style type="text/css">
	.st0{fill:#48443E;}
	.st1{fill:#AFAEAE;stroke:#000000;stroke-width:4.2706;stroke-miterlimit:10;}
	.st2{fill:#E2E2E2;}
	.st3{fill:#000105;}
	.st4{fill:#AFAEAE;stroke:#000105;stroke-width:4.2706;stroke-miterlimit:10;}
</style>
<rect x="95.5" y="49.5" class="st0" width="173.8" height="167.4"/>
<path class="st1" d="M270.7,42.4H94.2c-3.2,0-5.8,2.6-5.8,5.8v176.5c0,3.2,2.6,5.8,5.8,5.8h176.5c3.2,0,5.8-2.6,5.8-5.8V48.2
	C276.5,45,273.9,42.4,270.7,42.4z M144.2,53.7h30.3v8.8h-30.3V53.7z M103,131.3h158.9v75.3H103V131.3z"/>
<rect x="148.3" y="85.8" width="22.5" height="32.7"/>
<polygon class="st2" points="167.2,88.9 153.9,88.9 153.2,89.4 155.8,91.4 164.8,91.4 168.3,89.7 "/>
<polygon class="st2" points="151.4,115.5 164.1,115.5 164.8,115 162.2,113.1 153.7,113.1 150.3,114.7 "/>
<polygon class="st2" points="164,104.3 163.1,112.5 165.3,113.9 165.3,113.9 166.6,103.1 "/>
<polygon class="st2" points="166.7,102 167.9,90.9 165.4,92.2 164.4,100.4 "/>
<polygon class="st2" points="165.6,102.4 163.9,101.2 154.9,101.2 152.8,102.3 153.8,103 154.7,103.6 163.2,103.6 "/>
<circle cx="200.5" cy="118.1" r="3.9"/>
<circle cx="182" cy="118.1" r="3.9"/>
<g>
	<rect x="110" y="140.3" class="st1" width="13.1" height="15.2"/>
	<rect x="128.8" y="140.3" class="st1" width="13.1" height="15.2"/>
	<rect x="147.6" y="140.3" class="st1" width="13.1" height="15.2"/>
	<rect x="166.4" y="140.3" class="st1" width="13.1" height="15.2"/>
	<rect x="185.2" y="140.3" class="st1" width="13.1" height="15.2"/>
	<rect x="204" y="140.3" class="st1" width="13.1" height="15.2"/>
	<rect x="222.8" y="140.3" class="st1" width="13.1" height="15.2"/>
	<rect x="241.6" y="140.3" class="st1" width="13.1" height="15.2"/>
	<rect x="110" y="161.7" class="st1" width="13.1" height="15.2"/>
	<rect x="128.8" y="161.7" class="st1" width="13.1" height="15.2"/>
	<rect x="147.6" y="161.7" class="st1" width="13.1" height="15.2"/>
	<rect x="166.4" y="161.7" class="st1" width="13.1" height="15.2"/>
	<rect x="185.2" y="161.7" class="st1" width="13.1" height="15.2"/>
	<rect x="204" y="161.7" class="st1" width="13.1" height="15.2"/>
	<rect x="222.8" y="161.7" class="st1" width="13.1" height="15.2"/>
	<rect x="241.6" y="161.7" class="st1" width="13.1" height="15.2"/>
	<rect x="110" y="182.9" class="st1" width="13.1" height="15.2"/>
	<rect x="128.8" y="182.9" class="st1" width="13.1" height="15.2"/>
	<rect x="147.6" y="182.9" class="st1" width="13.1" height="15.2"/>
	<rect x="166.4" y="182.9" class="st1" width="13.1" height="15.2"/>
	<rect x="185.2" y="182.9" class="st1" width="13.1" height="15.2"/>
	<rect x="204" y="182.9" class="st1" width="13.1" height="15.2"/>
	<rect x="222.8" y="182.9" class="st1" width="13.1" height="15.2"/>
	<rect x="241.6" y="182.9" class="st1" width="13.1" height="15.2"/>
</g>
<polygon class="st3" points="110,146.9 110,140.3 116.6,140.3 "/>
<polygon class="st3" points="128.8,146.9 128.8,140.3 135.4,140.3 "/>
<polygon class="st3" points="147.6,146.9 147.6,140.3 154.1,140.3 "/>
<polygon class="st3" points="166.4,146.9 166.4,140.3 172.9,140.3 "/>
<polygon class="st3" points="185.2,146.9 185.2,140.3 191.7,140.3 "/>
<polygon class="st3" points="204,146.9 204,140.3 210.5,140.3 "/>
<polygon class="st3" points="222.8,146.9 222.8,140.3 229.3,140.3 "/>
<polygon class="st3" points="241.6,146.9 241.6,140.3 248.1,140.3 "/>
<polygon class="st3" points="110.4,168.2 110.4,161.7 117,161.7 "/>
<polygon class="st3" points="129.2,168.2 129.2,161.7 135.8,161.7 "/>
<polygon class="st3" points="148,168.2 148,161.7 154.6,161.7 "/>
<polygon class="st3" points="166.8,168.2 166.8,161.7 173.4,161.7 "/>
<polygon class="st3" points="185.6,168.2 185.6,161.7 192.2,161.7 "/>
<polygon class="st3" points="204.4,168.2 204.4,161.7 211,161.7 "/>
<polygon class="st3" points="223.2,168.2 223.2,161.7 229.8,161.7 "/>
<polygon class="st3" points="242,168.2 242,161.7 248.6,161.7 "/>
<polygon class="st3" points="110.4,189.5 110.4,182.9 117,182.9 "/>
<polygon class="st3" points="129.2,189.5 129.2,182.9 135.8,182.9 "/>
<polygon class="st3" points="148,189.5 148,182.9 154.6,182.9 "/>
<polygon class="st3" points="166.8,189.5 166.8,182.9 173.4,182.9 "/>
<polygon class="st3" points="185.6,189.5 185.6,182.9 192.2,182.9 "/>
<polygon class="st3" points="204.4,189.5 204.4,182.9 211,182.9 "/>
<polygon class="st3" points="223.2,189.5 223.2,182.9 229.8,182.9 "/>
<polygon class="st3" points="242,189.5 242,182.9 248.6,182.9 "/>
<rect x="32.8" y="175.6" class="st0" width="173.3" height="72.2"/>
<path class="st4" d="M23.2,152.5v21.3v75.9c0,0.2,0,0.4,0,0.6c0.3,3,2.9,5.4,6.1,5.4h0h182.4c3.2,0,5.8-2.4,6.1-5.4
	c0-0.2,0-0.4,0-0.6v-75.9v-21.3c0-3.3-2.7-6-6.1-6l-74.4,0v0c-1.6,0-3,0.8-3.8,2h0l-3.1,4.6h0c-0.8,1.3-2.2,2.1-3.9,2.1
	c0,0-0.1,0-0.1,0h-50c-1.6,0-3-0.9-3.8-2.1h0l-3.1-4.5c-0.8-1.3-2.2-2.1-3.9-2.1v0l-36.3,0C25.9,146.5,23.2,149.2,23.2,152.5z
	 M39.4,240.6c-0.9,0-1.6-0.7-1.6-1.6v-47c0-0.9,0.7-1.6,1.6-1.6h162.1c0.9,0,1.6,0.7,1.6,1.6v47c0,0.9-0.7,1.6-1.6,1.6H39.4z"/>
<g>
	<rect x="48.5" y="197.4" class="st1" width="13" height="15.1"/>
	<rect x="67.2" y="197.4" class="st1" width="13" height="15.1"/>
	<rect x="85.8" y="197.4" class="st1" width="13" height="15.1"/>
	<rect x="104.5" y="197.4" class="st1" width="13" height="15.1"/>
	<rect x="123.2" y="197.4" class="st1" width="13" height="15.1"/>
	<rect x="141.8" y="197.4" class="st1" width="13" height="15.1"/>
	<rect x="160.5" y="197.4" class="st1" width="13" height="15.1"/>
	<rect x="179.2" y="197.4" class="st1" width="13" height="15.1"/>
	<rect x="48.5" y="218.6" class="st1" width="13" height="15.1"/>
	<rect x="67.2" y="218.6" class="st1" width="13" height="15.1"/>
	<rect x="85.8" y="218.6" class="st1" width="13" height="15.1"/>
	<rect x="104.5" y="218.6" class="st1" width="13" height="15.1"/>
	<rect x="123.2" y="218.6" class="st1" width="13" height="15.1"/>
	<rect x="141.8" y="218.6" class="st1" width="13" height="15.1"/>
	<rect x="160.5" y="218.6" class="st1" width="13" height="15.1"/>
	<rect x="179.2" y="218.6" class="st1" width="13" height="15.1"/>
</g>
<polygon class="st3" points="48.5,203.9 48.5,197.4 55,197.4 "/>
<polygon class="st3" points="67.2,203.9 67.2,197.4 73.7,197.4 "/>
<polygon class="st3" points="85.8,203.9 85.8,197.4 92.3,197.4 "/>
<polygon class="st3" points="104.5,203.9 104.5,197.4 111,197.4 "/>
<polygon class="st3" points="123.2,203.9 123.2,197.4 129.7,197.4 "/>
<polygon class="st3" points="141.8,203.9 141.8,197.4 148.3,197.4 "/>
<polygon class="st3" points="160.5,203.9 160.5,197.4 167,197.4 "/>
<polygon class="st3" points="179.2,203.9 179.2,197.4 185.7,197.4 "/>
<polygon class="st3" points="48.9,225.1 48.9,218.6 55.4,218.6 "/>
<polygon class="st3" points="67.6,225.1 67.6,218.6 74.1,218.6 "/>
<polygon class="st3" points="86.2,225.1 86.2,218.6 92.8,218.6 "/>
<polygon class="st3" points="104.9,225.1 104.9,218.6 111.4,218.6 "/>
<polygon class="st3" points="123.6,225.1 123.6,218.6 130.1,218.6 "/>
<polygon class="st3" points="142.2,225.1 142.2,218.6 148.8,218.6 "/>
<polygon class="st3" points="160.9,225.1 160.9,218.6 167.4,218.6 "/>
<polygon class="st3" points="179.6,225.1 179.6,218.6 186.1,218.6 "/>
</svg>
