<?xml version="1.0" encoding="utf-8"?>
<!-- Generator: Adobe Illustrator 21.0.0, SVG Export Plug-In . SVG Version: 6.00 Build 0)  -->
<svg version="1.1" id="Слой_1" xmlns="http://www.w3.org/2000/svg" xmlns:xlink="http://www.w3.org/1999/xlink" x="0px" y="0px"
	 viewBox="0 0 300 300" style="enable-background:new 0 0 300 300;" xml:space="preserve">
<style type="text/css">
	.st0{fill:#725846;}
	.st1{fill:#4D5B9D;stroke:#201600;stroke-width:4.2706;stroke-miterlimit:10;}
	.st2{fill:#201600;}
	.st3{fill:#D14A43;}
	.st4{fill:#E8A754;stroke:#201600;stroke-width:4.2706;stroke-miterlimit:10;}
	.st5{fill:#000105;}
</style>
<g>
	<rect x="63.1" y="62.5" class="st0" width="173.8" height="167.4"/>
	<path class="st1" d="M238.3,55.4H61.8c-3.2,0-5.8,2.6-5.8,5.8v176.5c0,3.2,2.6,5.8,5.8,5.8h176.5c3.2,0,5.8-2.6,5.8-5.8V61.2
		C244.1,58,241.5,55.4,238.3,55.4z M111.8,66.7h30.3v8.8h-30.3V66.7z M70.6,112h158.9v75.3H70.6V112z"/>
	<rect x="91.8" y="197.9" class="st2" width="22.5" height="32.7"/>
	<polygon class="st3" points="110.6,200.9 97.3,200.9 96.6,201.5 99.3,203.4 108.2,203.4 111.7,201.8 	"/>
	<polygon class="st3" points="94.8,227.6 107.5,227.6 108.2,227 105.7,225.2 97.1,225.2 93.8,226.8 	"/>
	<polygon class="st3" points="95,214.6 93.7,225.7 96.3,224.4 97.2,216.2 	"/>
	<polygon class="st3" points="110.1,214 111.4,203 108.8,204.2 107.9,212.5 	"/>
	<polygon class="st3" points="109.1,214.5 107.3,213.3 98.4,213.3 96.2,214.3 97.2,215 98.1,215.7 106.6,215.7 	"/>
	<circle class="st2" cx="211.9" cy="89.1" r="3.9"/>
	<circle class="st2" cx="193.4" cy="89.1" r="3.9"/>
	<g>
		<rect x="77.6" y="120.8" class="st4" width="13.1" height="15.2"/>
		<rect x="96.4" y="120.8" class="st4" width="13.1" height="15.2"/>
		<rect x="115.2" y="120.8" class="st4" width="13.1" height="15.2"/>
		<rect x="134" y="120.8" class="st4" width="13.1" height="15.2"/>
		<rect x="152.8" y="120.8" class="st4" width="13.1" height="15.2"/>
		<rect x="171.6" y="120.8" class="st4" width="13.1" height="15.2"/>
		<rect x="190.4" y="120.8" class="st4" width="13.1" height="15.2"/>
		<rect x="209.2" y="120.8" class="st4" width="13.1" height="15.2"/>
		<rect x="77.6" y="142.1" class="st4" width="13.1" height="15.2"/>
		<rect x="96.4" y="142.1" class="st4" width="13.1" height="15.2"/>
		<rect x="115.2" y="142.1" class="st4" width="13.1" height="15.2"/>
		<rect x="134" y="142.1" class="st4" width="13.1" height="15.2"/>
		<rect x="152.8" y="142.1" class="st4" width="13.1" height="15.2"/>
		<rect x="171.6" y="142.1" class="st4" width="13.1" height="15.2"/>
		<rect x="190.4" y="142.1" class="st4" width="13.1" height="15.2"/>
		<rect x="209.2" y="142.1" class="st4" width="13.1" height="15.2"/>
		<rect x="77.6" y="163.4" class="st4" width="13.1" height="15.2"/>
		<rect x="96.4" y="163.4" class="st4" width="13.1" height="15.2"/>
		<rect x="115.2" y="163.4" class="st4" width="13.1" height="15.2"/>
		<rect x="134" y="163.4" class="st4" width="13.1" height="15.2"/>
		<rect x="152.8" y="163.4" class="st4" width="13.1" height="15.2"/>
		<rect x="171.6" y="163.4" class="st4" width="13.1" height="15.2"/>
		<rect x="190.4" y="163.4" class="st4" width="13.1" height="15.2"/>
		<rect x="209.2" y="163.4" class="st4" width="13.1" height="15.2"/>
	</g>
	<polygon class="st5" points="77.6,127.3 77.6,120.8 84.2,120.8 	"/>
	<polygon class="st5" points="96.4,127.3 96.4,120.8 103,120.8 	"/>
	<polygon class="st5" points="115.2,127.3 115.2,120.8 121.8,120.8 	"/>
	<polygon class="st5" points="134,127.3 134,120.8 140.6,120.8 	"/>
	<polygon class="st5" points="152.8,127.3 152.8,120.8 159.4,120.8 	"/>
	<polygon class="st5" points="171.6,127.3 171.6,120.8 178.2,120.8 	"/>
	<polygon class="st5" points="190.4,127.3 190.4,120.8 197,120.8 	"/>
	<polygon class="st5" points="209.2,127.3 209.2,120.8 215.8,120.8 	"/>
	<polygon class="st5" points="78.1,148.6 78.1,142.1 84.6,142.1 	"/>
	<polygon class="st5" points="96.9,148.6 96.9,142.1 103.4,142.1 	"/>
	<polygon class="st5" points="115.7,148.6 115.7,142.1 122.2,142.1 	"/>
	<polygon class="st5" points="134.4,148.6 134.4,142.1 141,142.1 	"/>
	<polygon class="st5" points="153.2,148.6 153.2,142.1 159.8,142.1 	"/>
	<polygon class="st5" points="172,148.6 172,142.1 178.6,142.1 	"/>
	<polygon class="st5" points="190.8,148.6 190.8,142.1 197.4,142.1 	"/>
	<polygon class="st5" points="209.6,148.6 209.6,142.1 216.2,142.1 	"/>
	<polygon class="st5" points="78.1,169.9 78.1,163.4 84.6,163.4 	"/>
	<polygon class="st5" points="96.9,169.9 96.9,163.4 103.4,163.4 	"/>
	<polygon class="st5" points="115.7,169.9 115.7,163.4 122.2,163.4 	"/>
	<polygon class="st5" points="134.4,169.9 134.4,163.4 141,163.4 	"/>
	<polygon class="st5" points="153.2,169.9 153.2,163.4 159.8,163.4 	"/>
	<polygon class="st5" points="172,169.9 172,163.4 178.6,163.4 	"/>
	<polygon class="st5" points="190.8,169.9 190.8,163.4 197.4,163.4 	"/>
	<polygon class="st5" points="209.6,169.9 209.6,163.4 216.2,163.4 	"/>
</g>
</svg>
