<?xml version="1.0" encoding="utf-8"?>
<!-- Generator: Adobe Illustrator 21.0.0, SVG Export Plug-In . SVG Version: 6.00 Build 0)  -->
<svg version="1.1" id="Слой_1" xmlns="http://www.w3.org/2000/svg" xmlns:xlink="http://www.w3.org/1999/xlink" x="0px" y="0px"
	 viewBox="0 0 300 300" style="enable-background:new 0 0 300 300;" xml:space="preserve">
<style type="text/css">
	.st0{fill:#48443E;}
	.st1{fill:#AFAEAE;stroke:#000105;stroke-width:4.2706;stroke-miterlimit:10;}
	.st2{fill:#AFAEAE;stroke:#201600;stroke-width:4.2706;stroke-miterlimit:10;}
	.st3{fill:#000105;}
</style>
<g>
	<rect x="45.6" y="118.6" class="st0" width="206.3" height="86"/>
	<path class="st1" d="M34.2,91v25.4v90.3c0,0.2,0,0.5,0,0.7c0.4,3.6,3.5,6.4,7.2,6.4h0h217.1c3.8,0,6.9-2.8,7.2-6.4
		c0-0.2,0-0.5,0-0.7v-90.3V91c0-4-3.3-7.2-7.3-7.2l-88.5,0v0c-1.9,0-3.5,0.9-4.5,2.4h0l-3.7,5.5h0c-1,1.5-2.7,2.6-4.6,2.6
		c0,0-0.1,0-0.1,0H97.4c-1.9,0-3.6-1-4.5-2.5h0l-3.7-5.4c-1-1.5-2.7-2.5-4.6-2.5v0l-43.2,0C37.4,83.9,34.2,87.1,34.2,91z
		 M53.5,195.9c-1.1,0-1.9-0.9-1.9-1.9v-56c0-1,0.9-1.9,1.9-1.9h193c1.1,0,1.9,0.9,1.9,1.9v56c0,1-0.9,1.9-1.9,1.9H53.5z"/>
	<g>
		<rect x="64.3" y="144.4" class="st2" width="15.5" height="18"/>
		<rect x="86.5" y="144.4" class="st2" width="15.5" height="18"/>
		<rect x="108.7" y="144.4" class="st2" width="15.5" height="18"/>
		<rect x="131" y="144.4" class="st2" width="15.5" height="18"/>
		<rect x="153.2" y="144.4" class="st2" width="15.5" height="18"/>
		<rect x="175.4" y="144.4" class="st2" width="15.5" height="18"/>
		<rect x="197.6" y="144.4" class="st2" width="15.5" height="18"/>
		<rect x="219.8" y="144.4" class="st2" width="15.5" height="18"/>
		<rect x="64.3" y="169.6" class="st2" width="15.5" height="18"/>
		<rect x="86.5" y="169.6" class="st2" width="15.5" height="18"/>
		<rect x="108.7" y="169.6" class="st2" width="15.5" height="18"/>
		<rect x="131" y="169.6" class="st2" width="15.5" height="18"/>
		<rect x="153.2" y="169.6" class="st2" width="15.5" height="18"/>
		<rect x="175.4" y="169.6" class="st2" width="15.5" height="18"/>
		<rect x="197.6" y="169.6" class="st2" width="15.5" height="18"/>
		<rect x="219.8" y="169.6" class="st2" width="15.5" height="18"/>
	</g>
	<polygon class="st3" points="64.3,152.2 64.3,144.4 72,144.4 	"/>
	<polygon class="st3" points="86.5,152.2 86.5,144.4 94.3,144.4 	"/>
	<polygon class="st3" points="108.7,152.2 108.7,144.4 116.5,144.4 	"/>
	<polygon class="st3" points="131,152.2 131,144.4 138.7,144.4 	"/>
	<polygon class="st3" points="153.2,152.2 153.2,144.4 160.9,144.4 	"/>
	<polygon class="st3" points="175.4,152.2 175.4,144.4 183.1,144.4 	"/>
	<polygon class="st3" points="197.6,152.2 197.6,144.4 205.4,144.4 	"/>
	<polygon class="st3" points="219.8,152.2 219.8,144.4 227.6,144.4 	"/>
	<polygon class="st3" points="64.8,177.4 64.8,169.6 72.5,169.6 	"/>
	<polygon class="st3" points="87,177.4 87,169.6 94.8,169.6 	"/>
	<polygon class="st3" points="109.2,177.4 109.2,169.6 117,169.6 	"/>
	<polygon class="st3" points="131.5,177.4 131.5,169.6 139.2,169.6 	"/>
	<polygon class="st3" points="153.7,177.4 153.7,169.6 161.4,169.6 	"/>
	<polygon class="st3" points="175.9,177.4 175.9,169.6 183.6,169.6 	"/>
	<polygon class="st3" points="198.1,177.4 198.1,169.6 205.9,169.6 	"/>
	<polygon class="st3" points="220.3,177.4 220.3,169.6 228.1,169.6 	"/>
</g>
</svg>
