<?xml version="1.0" encoding="utf-8"?>
<!-- Generator: Adobe Illustrator 21.0.0, SVG Export Plug-In . SVG Version: 6.00 Build 0)  -->
<svg version="1.1" id="Слой_1" xmlns="http://www.w3.org/2000/svg" xmlns:xlink="http://www.w3.org/1999/xlink" x="0px" y="0px"
	 viewBox="0 0 300 300" style="enable-background:new 0 0 300 300;" xml:space="preserve">
<style type="text/css">
	.st0{fill:#585551;stroke:#000105;stroke-width:4.2706;stroke-miterlimit:10;}
	.st1{fill:#969594;stroke:#000105;stroke-width:4.2706;stroke-miterlimit:10;}
	.st2{fill:#FFFFFF;stroke:#000105;stroke-width:4.2706;stroke-miterlimit:10;}
</style>
<g>
	<path class="st0" d="M285.2,73.4h-267h-3.6v157.6h3.6v0l50.7,0c0.9,0,1.6-0.8,1.6-1.8l0-14.5c0-1-0.7-1.8-1.6-1.8h0h-8.3
		c-0.8,0-1.4-0.7-1.5-1.6v-10.6c0-1,0.7-1.8,1.6-1.8h180.6c0.9,0,1.6,0.8,1.6,1.8v10.6c-0.1,0.9-0.7,1.6-1.5,1.6h-8.3h0
		c-0.9,0-1.6,0.8-1.6,1.8l0,14.5c0,1,0.7,1.8,1.6,1.8l42,0v0H287V73.4H285.2z"/>
	<rect x="3.5" y="66.6" class="st1" width="294.5" height="6.4"/>
	<circle class="st2" cx="150.8" cy="96.5" r="8.5"/>
	<circle class="st2" cx="223.8" cy="167.3" r="7.3"/>
	<circle class="st2" cx="77.7" cy="167.3" r="7.3"/>
</g>
</svg>
