<?xml version="1.0" encoding="utf-8"?>
<!-- Generator: Adobe Illustrator 21.0.0, SVG Export Plug-In . SVG Version: 6.00 Build 0)  -->
<svg version="1.1" id="Слой_1" xmlns="http://www.w3.org/2000/svg" xmlns:xlink="http://www.w3.org/1999/xlink" x="0px" y="0px"
	 viewBox="0 0 300 78" style="enable-background:new 0 0 300 78;" xml:space="preserve">
<style type="text/css">
	.st0{fill:#00ABEB;}
	.st1{fill:#ADC4DC;}
	.st2{fill:#CC2E4A;}
	.st3{fill:#D97D35;}
	.st4{fill:#319261;}
</style>
<g>
	<path class="st0" d="M79.8,53.4c-0.3,0-0.7-0.1-1.1-0.4c-0.4-0.3-0.6-0.8-0.6-1.6c0-0.7,0.2-1.3,0.7-1.6c0.4-0.3,0.8-0.5,1-0.5
		h10.5c0.8,0,1.5-0.2,2-0.6c0.5-0.4,0.8-1,0.8-1.8c0-0.6-0.2-1.2-0.7-1.6c-0.5-0.4-1.2-0.7-2.2-1l-6-1.8c-0.9-0.2-1.7-0.5-2.5-0.8
		c-0.8-0.3-1.4-0.7-2-1.2c-0.6-0.5-1-1.1-1.3-1.8c-0.3-0.7-0.5-1.6-0.5-2.6c0-1.8,0.6-3.3,1.7-4.5c1.1-1.2,2.9-1.8,5.2-1.8h9.5
		c0.3,0,0.6,0.1,1,0.4c0.4,0.3,0.6,0.8,0.6,1.6c0,0.8-0.2,1.3-0.6,1.6c-0.4,0.3-0.8,0.4-1.1,0.4h-9.5c-0.8,0-1.4,0.2-1.9,0.5
		c-0.5,0.3-0.8,0.9-0.8,1.7c0,0.6,0.2,1,0.7,1.4c0.5,0.3,1.2,0.6,2.1,0.9l6.1,1.7c0.9,0.3,1.8,0.6,2.5,0.9c0.8,0.3,1.4,0.8,2,1.3
		c0.6,0.5,1,1.1,1.3,1.9c0.3,0.7,0.5,1.6,0.5,2.6c0,0.9-0.1,1.7-0.4,2.5c-0.3,0.8-0.7,1.5-1.3,2.1c-0.6,0.6-1.3,1.1-2.2,1.5
		s-1.9,0.5-3.1,0.5H79.8z"/>
	<path class="st1" d="M135,53.7c-0.8,0-1.3-0.2-1.7-0.5c-0.3-0.3-0.5-0.7-0.5-1.2V38.8c0-0.9-0.1-1.6-0.4-2.3
		c-0.3-0.6-0.7-1.1-1.2-1.5c-0.5-0.4-1.1-0.7-1.7-0.8c-0.6-0.2-1.3-0.3-2-0.3H122v18.2c0,0.4-0.2,0.8-0.5,1.1
		c-0.3,0.3-0.9,0.5-1.6,0.5c-0.7,0-1.2-0.2-1.6-0.5c-0.3-0.3-0.5-0.7-0.5-1.1v-20c0-0.4,0.2-0.9,0.5-1.5c0.3-0.5,0.9-0.8,1.8-0.8
		h7.8c2.9,0,5.1,0.8,6.8,2.3c1.6,1.5,2.5,3.8,2.5,6.8v13.3c0,0.4-0.2,0.8-0.5,1.1C136.3,53.5,135.8,53.7,135,53.7z"/>
	<path class="st1" d="M161.1,51.2c0,0.5-0.2,1-0.5,1.5c-0.3,0.5-0.8,0.7-1.5,0.7h-12.9c-0.9,0-1.7-0.2-2.5-0.5
		c-0.8-0.3-1.4-0.8-2-1.4c-0.6-0.6-1-1.3-1.4-2.2c-0.3-0.8-0.5-1.8-0.5-2.9v-0.6c0-0.8,0.1-1.6,0.4-2.4c0.3-0.8,0.7-1.5,1.3-2.1
		c0.6-0.6,1.3-1.1,2.1-1.5c0.8-0.4,1.8-0.6,2.9-0.6h10.3v-0.9c0-1.3-0.4-2.4-1.2-3.3c-0.8-0.9-2-1.3-3.6-1.3h-6.9
		c-0.4,0-0.7-0.1-1.1-0.4c-0.4-0.3-0.5-0.7-0.5-1.4c0-0.7,0.2-1.2,0.5-1.6c0.4-0.3,0.7-0.5,1.1-0.5h7c2.9,0,5.1,0.7,6.6,2.3
		c1.5,1.5,2.3,3.7,2.3,6.5V51.2z M147.6,42.9c-0.9,0-1.8,0.2-2.5,0.7c-0.8,0.4-1.2,1.2-1.2,2.3v0.4c0,1.1,0.4,1.9,1.1,2.4
		c0.7,0.5,1.6,0.7,2.6,0.7h9.3v-6.4H147.6z"/>
	<path class="st1" d="M172.7,49.1l6.3-18.3c0.3-0.9,0.9-1.3,1.9-1.3c0.6,0,1.1,0.2,1.5,0.5c0.4,0.3,0.7,0.8,0.7,1.4
		c0,0.2-0.1,0.5-0.2,0.7l-7,19.6c-0.4,1.2-1.2,1.8-2.4,1.8h-2c-1.1,0-1.9-0.6-2.4-1.8L162.1,32c-0.1-0.3-0.1-0.5-0.1-0.7
		c0-0.6,0.2-1,0.6-1.4c0.4-0.3,0.9-0.5,1.6-0.5c0.4,0,0.8,0.1,1.2,0.4c0.3,0.2,0.6,0.6,0.8,1.1l6.4,18.2H172.7z"/>
	<path class="st1" d="M191,53.7c-0.8,0-1.3-0.2-1.6-0.5c-0.3-0.3-0.5-0.7-0.5-1.1V33.8h-2.7c-0.4,0-0.8-0.2-1.1-0.5
		c-0.4-0.3-0.6-0.8-0.6-1.5c0-0.7,0.2-1.2,0.5-1.5c0.4-0.3,0.7-0.5,1.2-0.5h4.8c0.7,0,1.2,0.2,1.6,0.6c0.3,0.4,0.5,0.8,0.5,1.2v20.5
		c0,0.4-0.2,0.7-0.5,1.1C192.3,53.5,191.8,53.7,191,53.7z"/>
	<path class="st1" d="M217.6,55.1c0,1.4-0.2,2.7-0.7,3.8c-0.5,1.1-1.1,2-1.9,2.7c-0.8,0.7-1.8,1.3-2.9,1.7c-1.1,0.4-2.4,0.6-3.7,0.6
		h-7.5c-0.4,0-0.8-0.2-1.1-0.5c-0.4-0.3-0.6-0.9-0.6-1.5c0-0.7,0.2-1.2,0.6-1.5c0.4-0.3,0.8-0.4,1.1-0.4h7.5c1.4,0,2.6-0.4,3.6-1.2
		c1-0.8,1.5-2,1.5-3.8v-1.5h-7.7c-1.3,0-2.5-0.2-3.6-0.6c-1.1-0.4-2.1-0.9-2.9-1.7c-0.8-0.7-1.5-1.7-1.9-2.8
		c-0.5-1.1-0.7-2.4-0.7-3.9v-5.9c0-1.4,0.2-2.7,0.7-3.8c0.5-1.1,1.1-2,2-2.8c0.8-0.7,1.8-1.3,2.9-1.7c1.1-0.4,2.3-0.6,3.6-0.6h9.7
		c0.7,0,1.2,0.3,1.6,0.8c0.4,0.5,0.5,1,0.5,1.5L217.6,55.1z M200.8,44.4c0,1.7,0.5,3,1.4,3.8c1,0.8,2.2,1.2,3.6,1.2h7.5V33.8h-7.5
		c-1.4,0-2.6,0.4-3.6,1.2c-1,0.8-1.5,2-1.5,3.7V44.4z"/>
	<path class="st1" d="M241.6,51.2c0,0.5-0.2,1-0.5,1.5c-0.3,0.5-0.8,0.7-1.5,0.7h-12.9c-0.9,0-1.7-0.2-2.5-0.5
		c-0.8-0.3-1.4-0.8-2-1.4c-0.6-0.6-1-1.3-1.4-2.2c-0.3-0.8-0.5-1.8-0.5-2.9v-0.6c0-0.8,0.1-1.6,0.4-2.4c0.3-0.8,0.7-1.5,1.3-2.1
		c0.6-0.6,1.3-1.1,2.1-1.5c0.8-0.4,1.8-0.6,2.9-0.6h10.3v-0.9c0-1.3-0.4-2.4-1.2-3.3c-0.8-0.9-2-1.3-3.6-1.3h-6.9
		c-0.4,0-0.7-0.1-1.1-0.4c-0.4-0.3-0.5-0.7-0.5-1.4c0-0.7,0.2-1.2,0.5-1.6c0.4-0.3,0.7-0.5,1.1-0.5h7c2.9,0,5.1,0.7,6.6,2.3
		c1.5,1.5,2.3,3.7,2.3,6.5V51.2z M228.1,42.9c-0.9,0-1.8,0.2-2.5,0.7c-0.8,0.4-1.2,1.2-1.2,2.3v0.4c0,1.1,0.4,1.9,1.1,2.4
		c0.7,0.5,1.6,0.7,2.6,0.7h9.3v-6.4H228.1z"/>
	<path class="st1" d="M258.3,49.4c0.4,0,0.8,0.2,1.2,0.5c0.4,0.3,0.6,0.9,0.6,1.6c0,0.7-0.2,1.2-0.6,1.5c-0.4,0.3-0.8,0.5-1.2,0.5
		h-3.2c-1.3,0-2.4-0.2-3.4-0.5c-1-0.3-1.9-0.8-2.6-1.5c-0.7-0.7-1.3-1.6-1.7-2.6c-0.4-1.1-0.6-2.4-0.6-3.9V33.7h-2.6
		c-0.4,0-0.7-0.1-1.1-0.4c-0.4-0.3-0.5-0.8-0.5-1.5c0-0.7,0.2-1.2,0.5-1.5c0.4-0.3,0.7-0.5,1.1-0.5h2.5l0.1-7.3
		c0-0.4,0.2-0.8,0.5-1.1c0.3-0.3,0.8-0.5,1.6-0.5c0.7,0,1.3,0.2,1.6,0.5c0.4,0.3,0.5,0.7,0.5,1.1v7.3h5.7c0.4,0,0.7,0.2,1.1,0.5
		c0.4,0.3,0.5,0.8,0.5,1.5c0,0.7-0.2,1.2-0.5,1.5c-0.4,0.3-0.7,0.4-1.1,0.4h-5.7v11c0,1.7,0.4,3,1.3,3.7c0.8,0.7,2,1,3.4,1H258.3z"
		/>
	<path class="st1" d="M270,53.4c-1.2,0-2.4-0.2-3.5-0.6c-1.1-0.4-2-0.9-2.8-1.7c-0.8-0.7-1.5-1.7-1.9-2.8c-0.5-1.1-0.7-2.4-0.7-3.9
		v-5.8c0-1.5,0.2-2.8,0.7-3.9c0.5-1.1,1.1-2.1,1.9-2.8c0.8-0.8,1.8-1.3,2.9-1.7c1.1-0.4,2.4-0.6,3.8-0.6h2.3c1.3,0,2.6,0.2,3.7,0.6
		c1.1,0.4,2.1,0.9,2.9,1.7c0.8,0.8,1.4,1.7,1.9,2.8c0.5,1.1,0.7,2.4,0.7,3.9v5.8c0,1.5-0.2,2.8-0.7,3.9c-0.5,1.1-1.1,2-2,2.8
		c-0.8,0.7-1.8,1.3-2.9,1.7c-1.1,0.4-2.3,0.6-3.5,0.6H270z M270.3,33.7c-1.5,0-2.7,0.4-3.6,1.3c-0.9,0.8-1.4,2.1-1.4,3.9v5.8
		c0,1.7,0.5,2.9,1.4,3.7c0.9,0.8,2.1,1.2,3.6,1.2h2.3c1.4,0,2.6-0.4,3.6-1.2c1-0.8,1.5-2,1.5-3.7v-5.8c0-1.8-0.5-3.1-1.4-3.9
		c-1-0.8-2.2-1.2-3.6-1.2H270.3z"/>
	<path class="st1" d="M296.5,30.2c-0.4-0.3-0.7-0.5-1.1-0.5l-1.3,0c-1.3,0-2.6,0.2-3.7,0.6c-1.1,0.4-2.1,1-2.9,1.7
		c-0.8,0.8-1.5,1.7-1.9,2.8c-0.5,1.1-0.7,2.4-0.7,3.9l0,13.3c0,0.4,0.2,0.8,0.5,1.1c0.4,0.3,0.9,0.5,1.6,0.5c0.7,0,1.2-0.2,1.6-0.5
		c0.3-0.3,0.5-0.7,0.5-1.1l0-13.3c0-1.7,0.5-3,1.4-3.9c0.9-0.8,2.1-1.3,3.6-1.3h0h1.3c0.4,0,0.7-0.1,1.1-0.4
		c0.4-0.3,0.5-0.8,0.5-1.5C297,31,296.8,30.5,296.5,30.2z"/>
	<path class="st0" d="M111.3,30.2c-0.4-0.3-0.7-0.5-1.1-0.5l-1.3,0c-1.3,0-2.6,0.2-3.7,0.6c-1.1,0.4-2.1,1-2.9,1.7
		c-0.8,0.8-1.5,1.7-1.9,2.8c-0.5,1.1-0.7,2.4-0.7,3.9l0,13.3c0,0.4,0.2,0.8,0.5,1.1c0.4,0.3,0.9,0.5,1.6,0.5c0.7,0,1.2-0.2,1.6-0.5
		c0.3-0.3,0.5-0.7,0.5-1.1l0-13.3c0-1.7,0.5-3,1.4-3.9c0.9-0.8,2.1-1.3,3.6-1.3h0h1.3c0.4,0,0.7-0.1,1.1-0.4
		c0.4-0.3,0.5-0.8,0.5-1.5C111.9,31,111.7,30.5,111.3,30.2z"/>
	<circle class="st1" cx="190.6" cy="22.7" r="2.5"/>
	<circle class="st0" cx="110.9" cy="51.4" r="2.5"/>
	<polygon class="st2" points="36.8,20.9 40.6,21.7 43.2,14.6 42.2,12.4 36.9,11.6 	"/>
	<polygon class="st3" points="46,13.7 42.4,22.2 45.6,24.4 50.7,18.8 50.6,16.5 	"/>
	<polygon class="st4" points="47.4,25.8 49.5,29.1 56.5,25.9 57.4,23.6 54.1,19.2 	"/>
	<path class="st0" d="M54.7,71.3L38.8,34.9h0c-0.4-0.9-1.4-1.5-2.4-1.5c-1.1,0-2,0.6-2.4,1.5h0L18.1,71.3h0c0,1.5,1.2,2.7,2.7,2.7
		H21h2.4h13h13h2.4H52C53.5,74,54.7,72.7,54.7,71.3L54.7,71.3z M23.7,69.8l10.2-23.4h0c0.4-0.9,1.4-1.5,2.4-1.5c1.1,0,2,0.6,2.4,1.5
		h0L49,69.8H23.7z"/>
	<path class="st1" d="M65.3,33.4c-0.5,0-1,0-1.5,0.1c-0.6-6.3-3.2-11.9-7.2-16.2c0.3-0.3,0.7-0.5,1-0.9c1.6-1.6,2.3-3.5,1.6-4.2
		c-0.7-0.7-2.6,0-4.2,1.6c-0.4,0.4-0.7,0.7-0.9,1.1C49.4,11,43.7,8.7,37.4,8.5c0.1-0.4,0.1-0.9,0.1-1.4c0-2.3-0.8-4.1-1.9-4.1
		c-1,0-1.9,1.8-1.9,4.1c0,0.5,0,1,0.1,1.5c-6.3,0.6-11.9,3.2-16.2,7.2c-0.3-0.3-0.5-0.7-0.9-1c-1.6-1.6-3.5-2.3-4.2-1.6
		c-0.7,0.7,0,2.6,1.6,4.2c0.4,0.4,0.7,0.7,1.1,0.9C11.4,23,9,28.7,8.8,35c-0.4-0.1-0.9-0.1-1.4-0.1c-2.3,0-4.1,0.8-4.1,1.9
		s1.8,1.9,4.1,1.9c0.5,0,1,0,1.5-0.1c0.6,6.3,3.2,11.9,7.2,16.2c-0.3,0.3-0.7,0.5-1,0.9c-1.6,1.6-2.3,3.5-1.6,4.2
		c0.7,0.7,2.6,0,4.2-1.6c0.4-0.4,0.7-0.7,0.9-1.1c1.3,1.1,2.7,2,4.2,2.9l1.4-3.1l-2.2-1.3L22,53.2l5.2-5.6l0.9,0.6l2.6-6
		c-1.7-1.5-2.8-3.8-2.8-6.2c0-4.7,3.8-8.4,8.4-8.4c4.7,0,8.4,3.8,8.4,8.4c0,2.5-1.1,4.7-2.7,6.2l2.6,6.1l1.9-1.2l6.6,6.8l-4.4,3.3
		l-0.3-0.1l1.4,3.1c1.9-1.1,3.7-2.3,5.3-3.8c0.3,0.3,0.5,0.7,0.9,1c1.6,1.6,3.5,2.3,4.2,1.6c0.7-0.7,0-2.6-1.6-4.2
		c-0.4-0.4-0.7-0.7-1.1-0.9c3.8-4.6,6.1-10.3,6.4-16.6c0.4,0.1,0.9,0.1,1.4,0.1c2.3,0,4.1-0.8,4.1-1.9
		C69.3,34.2,67.5,33.4,65.3,33.4z M16.8,21.7l2.4-0.1l5.6,5.2L22.5,30L14,26.4L16.8,21.7z M12.7,30.2l2.2-1l7.1,2.6l-0.8,3.8
		l-9.3-0.1L12.7,30.2z M12.2,39.5l1.6-1.8l7.6-0.3l0.7,3.8l-8.6,3.5L12.2,39.5z M18.6,52.8l-3.3-4.4l0.8-2.3l7-3.2l2.1,3.3
		L18.6,52.8z M26.2,25l-6.6-6.8L24,15l2.3,0.8l3.2,7L26.2,25z M31.2,21.9l-3.5-8.8l5.3-1.3l1.8,1.7l0.3,7.7L31.2,21.9z M60.5,32.5
		l-1.6,1.8l-7.6,0.3l-0.7-3.8l8.6-3.5L60.5,32.5z M40.6,21.7l-3.8-0.8l0.1-9.3l5.3,0.8l1,2.2L40.6,21.7z M45.6,24.4l-3.2-2.2
		l3.6-8.5l4.6,2.8l0.1,2.4L45.6,24.4z M54.1,19.2l3.3,4.4l-0.8,2.3l-7,3.2l-2.1-3.3L54.1,19.2z M55.9,50.3l-2.4,0.1L48,45.2l2.2-3.2
		l8.5,3.6L55.9,50.3z M60,41.9l-2.2,1l-7.1-2.6l0.8-3.8l9.3,0.1L60,41.9z"/>
</g>
</svg>
